<?xml version="1.0" encoding="UTF-8"?>
<!DOCTYPE svg PUBLIC "-//W3C//DTD SVG 1.1//EN" "http://www.w3.org/Graphics/SVG/1.1/DTD/svg11.dtd">
<!-- Creator: CorelDRAW 2020 (64-Bit) -->
<svg xmlns="http://www.w3.org/2000/svg" xml:space="preserve" width="3.71814in" height="1.61909in" version="1.1" style="shape-rendering:geometricPrecision; text-rendering:geometricPrecision; image-rendering:optimizeQuality; fill-rule:evenodd; clip-rule:evenodd"
viewBox="0 0 3730.55 1624.49"
 xmlns:xlink="http://www.w3.org/1999/xlink"
 xmlns:xodm="http://www.corel.com/coreldraw/odm/2003">
 <defs>
  <style type="text/css">
   <![CDATA[
    .fil1 {fill:#ED2790}
    .fil0 {fill:#201F1F;fill-rule:nonzero}
    .fil2 {fill:url(#id0)}
    .fil3 {fill:url(#id1)}
    .fil4 {fill:url(#id2)}
    .fil5 {fill:url(#id3)}
   ]]>
  </style>
  <linearGradient id="id0" gradientUnits="userSpaceOnUse" x1="1902.27" y1="889.04" x2="3730.57" y2="889.04">
   <stop offset="0" style="stop-opacity:1; stop-color:#F58735"/>
   <stop offset="1" style="stop-opacity:1; stop-color:#FFF215"/>
  </linearGradient>
  <linearGradient id="id1" gradientUnits="userSpaceOnUse" xlink:href="#id0" x1="1828.28" y1="889.04" x2="-0.03" y2="889.04">
  </linearGradient>
  <linearGradient id="id2" gradientUnits="userSpaceOnUse" x1="1610.05" y1="724.69" x2="988.26" y2="724.69">
   <stop offset="0" style="stop-opacity:1; stop-color:#A9D046"/>
   <stop offset="0.65098" style="stop-opacity:1; stop-color:#00A85A"/>
   <stop offset="1" style="stop-opacity:1; stop-color:#00A85A"/>
  </linearGradient>
  <linearGradient id="id3" gradientUnits="userSpaceOnUse" xlink:href="#id2" x1="2120.5" y1="724.97" x2="2742.29" y2="724.97">
  </linearGradient>
 </defs>
 <g id="Layer_x0020_1">
  <metadata id="CorelCorpID_0Corel-Layer"/>
  <g id="_1800503265856">
   <path class="fil0" d="M261.31 1622.77m101.61 -58.55c0,-16.71 -5.17,-30.14 -15.16,-40.3 -10.16,-10.16 -23.42,-15.16 -39.95,-15.16 -2.24,0 -4.82,0.17 -7.92,0.34 -2.93,0.35 -5.34,0.52 -7.23,0.86 0,1.38 0,3.44 -0.17,6.2 -0.34,14.81 -0.52,26 -0.52,33.41 0,6.2 0.17,14.98 0.34,26.35 0.17,5.34 0.34,9.47 0.34,12.4l0.52 24.45c3.96,1.38 7.75,2.41 11.37,2.93 3.61,0.69 7.58,1.03 11.88,1.03 14.81,0 26.35,-4.65 34.44,-13.95 7.92,-9.3 12.06,-22.22 12.06,-38.58zm18.94 -1.72c0,17.91 -5.85,32.72 -17.74,44.09 -12.06,11.36 -27.9,17.05 -47.7,17.05 -4.14,0 -9.82,-0.34 -17.05,-0.86 -7.06,-0.52 -12.4,-0.86 -15.67,-0.86 -3.1,0 -6.54,0 -10.33,0.17 -3.62,0.17 -7.58,0.34 -12.06,0.69l0 -3.62c0.34,0 0.69,0 1.2,0.17 0.52,0 1.38,0 2.24,0 4.99,0 8.26,-1.72 9.82,-5.34 1.38,-3.62 2.24,-10.68 2.24,-21.35l0 -62.86c0,-10.33 -0.69,-16.88 -2.07,-19.81 -1.55,-2.93 -4.82,-4.3 -9.99,-4.3 -0.69,0 -1.2,0 -1.55,0 -0.34,0 -0.69,0 -1.03,0.17l0 -3.61c3.27,0.17 6.72,0.51 10.68,0.69 3.79,0.17 7.58,0.17 10.85,0.17 2.93,0 7.41,-0.17 13.78,-0.52 6.37,-0.17 11.02,-0.34 13.78,-0.34 21.35,0 38.57,5.34 51.32,16.36 12.92,10.85 19.29,25.49 19.29,43.91zm15.5 60.28m93.86 -24.97c-1.55,4.82 -2.93,9.3 -4.13,13.43 -1.03,3.96 -2.07,7.92 -2.76,11.54 -2.07,0 -5.17,-0.17 -9.3,-0.34 -12.92,-0.34 -23.25,-0.52 -31.17,-0.52 -11.02,0 -26,0.34 -44.95,0.69l-1.55 0.17 0 -3.62c0.34,0 0.69,0 1.2,0.17 0.52,0 1.38,0 2.24,0 4.99,0 8.26,-1.72 9.82,-5.34 1.38,-3.62 2.24,-10.68 2.24,-21.35l0 -62.86c0,-10.33 -0.69,-16.88 -2.07,-19.81 -1.55,-2.93 -4.82,-4.3 -9.99,-4.3 -0.69,0 -1.2,0 -1.55,0 -0.34,0 -0.69,0 -1.03,0.17l0 -3.61 2.75 0.17c19.81,1.03 34.27,1.55 42.88,1.55 4.48,0 9.99,-0.17 16.71,-0.52 6.54,-0.34 13.77,-0.69 21.18,-1.2 0,3.44 0.17,7.06 0.34,10.85 0.34,3.96 0.86,8.44 1.38,13.6l-3.44 0.52c-2.24,-7.92 -5.17,-12.74 -8.44,-14.47 -3.44,-1.9 -10.33,-2.76 -20.84,-2.76 -3.79,0 -7.58,0 -11.54,0.17 -3.96,0 -7.41,0.17 -10.51,0.34 0,5 -0.17,10.68 -0.17,17.22 -0.17,6.55 -0.17,16.53 -0.17,29.97 1.38,0.17 2.76,0.34 4.13,0.34 1.38,0.17 2.93,0.17 4.48,0.17l15.5 0c7.92,0 13.43,-0.86 16.36,-2.41 3.1,-1.55 4.65,-4.65 5.17,-9.13l3.44 0.35c-0.34,2.07 -0.69,4.31 -0.86,6.72 -0.17,2.41 -0.34,4.99 -0.34,7.92 0,2.76 0.17,5.51 0.34,8.09 0.17,2.58 0.52,5.34 0.86,8.27l-3.44 0.34c-0.52,-5.51 -2.07,-9.12 -5.17,-11.02 -2.93,-1.9 -8.44,-2.76 -16.36,-2.76l-15.5 0c-1.72,0 -3.27,0 -4.65,0.17 -1.2,0 -2.58,0.17 -3.96,0.34 0,7.58 0.17,15.84 0.34,25.14 0,9.3 0.35,17.22 0.52,23.94 3.96,0.34 7.92,0.69 12.06,1.03 3.96,0.17 7.75,0.34 11.19,0.34 10.68,0 18.42,-1.2 23.08,-3.44 4.82,-2.41 8.78,-7.58 12.23,-15.5l3.44 1.21zm15.5 24.97m80.08 -35.3c0,10.5 -4.31,19.46 -13.09,26.35 -8.79,7.06 -19.98,10.68 -33.41,10.68 -4.48,0 -9.13,-0.52 -14.12,-1.38 -4.99,-1.03 -10.5,-2.58 -16.88,-4.65l0 -2.41c0,-4.31 -0.34,-8.95 -0.69,-14.3 -0.51,-5.51 -1.2,-9.3 -1.89,-11.71l4.65 -1.2c1.72,10.16 5.17,17.56 10.33,22.21 5.17,4.65 12.57,6.89 22.04,6.89 8.27,0 14.98,-2.41 20.32,-7.06 5.34,-4.82 8.09,-10.51 8.09,-17.39 0,-5.68 -2.07,-10.51 -6.02,-14.47 -4.14,-3.96 -10.68,-7.41 -19.81,-10.51l-5.17 -1.72c-11.19,-3.79 -18.94,-8.09 -23.42,-13.09 -4.48,-5.17 -6.72,-11.71 -6.72,-19.63 0,-9.47 3.96,-17.39 11.88,-23.94 8.09,-6.37 17.91,-9.64 29.45,-9.64 4.13,0 8.61,0.34 13.6,1.2 4.82,0.69 9.47,1.72 13.95,3.1 0,3.44 0.17,6.89 0.52,10.16 0.34,3.27 1.03,7.23 2.07,12.23l-3.96 1.2c-2.07,-7.58 -5.34,-13.26 -9.82,-16.71 -4.48,-3.44 -10.85,-5.16 -18.94,-5.16 -7.58,0 -13.78,1.89 -18.25,5.85 -4.48,3.96 -6.72,9.12 -6.72,15.67 0,5.17 1.9,9.64 5.68,13.26 3.79,3.61 10.16,6.89 19.29,9.99l5.17 1.72c11.88,3.96 20.15,8.61 24.8,13.95 4.65,5.34 7.06,12.06 7.06,20.49z"/>
   <path class="fil0" d="M593.94 1622.77m104.19 -95.58l-3.44 0.86c-2.24,-7.75 -4.82,-12.74 -7.75,-14.81 -2.93,-2.24 -8.09,-3.27 -15.5,-3.27l-16.88 0c-0.17,8.61 -0.34,15.16 -0.34,19.81l0 62c0,11.88 0.86,19.46 2.58,22.73 1.72,3.1 5.51,4.82 11.19,4.82 0.69,0 1.38,0 1.9,0 0.34,-0.17 1.03,-0.17 1.55,-0.17l0 3.62c-6.54,-0.34 -11.71,-0.52 -15.5,-0.69 -3.62,-0.17 -6.72,-0.17 -9.47,-0.17 -2.58,0 -5.85,0 -9.47,0.17 -3.61,0.17 -8.78,0.34 -15.5,0.69l0 -3.62c0.52,0 1.21,0 1.72,0.17 0.35,0 1.03,0 1.72,0 5.68,0 9.47,-1.72 11.19,-4.82 1.72,-3.27 2.58,-10.85 2.58,-22.73l0 -62c0,-4.65 -0.17,-11.19 -0.34,-19.81l-16.02 0c-7.4,0 -12.91,1.21 -16.36,3.62 -3.44,2.58 -6.37,7.23 -8.61,14.47l-3.44 -0.86c1.2,-4.65 2.07,-8.78 2.58,-12.74 0.69,-3.79 0.86,-8.27 0.86,-13.09 2.93,1.2 6.37,1.89 10.33,2.24 3.96,0.17 10.33,0.35 18.94,0.35l37.89 0c8.95,0 15.67,-0.17 20.15,-0.52 4.48,-0.34 8.61,-1.03 12.23,-2.07 -0.35,1.72 -0.52,4.31 -0.52,7.75 0,2.58 0.17,5.34 0.34,8.27 0.34,2.76 0.86,6.03 1.38,9.82zm6.89 95.58m48.22 0c-0.34,0 -1.03,0 -1.9,-0.17 -9.99,-0.34 -17.39,-0.69 -22.22,-0.69 -4.65,0 -12.05,0.34 -22.22,0.69 -0.86,0.17 -1.55,0.17 -1.89,0.17l0 -3.62c0.34,0 0.69,0 1.03,0.17 0.52,0 1.21,0 2.41,0 5.34,0 8.78,-1.72 10.5,-4.99 1.55,-3.27 2.41,-10.85 2.41,-22.56l0 -62c0,-10.5 -0.69,-17.05 -2.24,-19.98 -1.55,-2.76 -5.17,-4.13 -10.68,-4.13 -0.69,0 -1.2,0 -1.55,0 -0.34,0 -0.69,0 -1.03,0.17l0 -3.61c0.34,0 1.03,0 1.72,0 10.33,0.51 17.39,0.86 21.52,0.86 4.14,0 11.19,-0.17 21.18,-0.69 0.86,-0.17 1.55,-0.17 2.07,-0.17l0 3.61c-0.34,-0.17 -0.69,-0.17 -1.03,-0.17 -0.34,0 -0.86,0 -1.55,0 -5.51,0 -9.13,1.37 -10.68,4.13 -1.38,2.93 -2.24,9.47 -2.24,19.98l0 62c0,11.71 0.86,19.28 2.41,22.56 1.72,3.27 5.16,4.99 10.5,4.99 1.2,0 1.89,0 2.41,0 0.34,-0.17 0.69,-0.17 1.03,-0.17l0 3.62zm12.92 0m124.85 -116.93c-0.52,-0.17 -1.2,-0.17 -1.89,-0.17 -2.07,0 -3.79,0.34 -5.51,1.2 -1.72,0.69 -2.93,1.72 -3.79,3.1 -1.37,2.07 -2.24,7.41 -2.75,15.67 -0.34,8.44 -0.69,21.35 -0.69,38.57l0 34.45c0,4.65 0.17,9.47 0.52,14.29 0.34,4.65 0.69,8.27 1.2,10.68l-6.02 0c-0.35,-0.69 -1.03,-1.72 -2.07,-3.1 -1.03,-1.38 -2.24,-3.1 -3.96,-4.99l-77.5 -92.65 0 37.89c0,19.63 0.17,33.07 0.69,40.3 0.34,7.41 1.38,12.06 2.75,13.95 1.2,1.55 2.58,2.58 4.31,3.27 1.72,0.69 3.96,1.03 6.89,1.03 1.2,0 2.24,0 3.44,-0.17l0 3.62c-1.03,0 -2.58,-0.17 -4.82,-0.34 -7.4,-0.34 -12.74,-0.52 -15.84,-0.52 -2.58,0 -7.4,0.17 -14.64,0.52 -2.24,0.17 -3.96,0.34 -5.17,0.34l0 -3.62c0.34,0 0.69,0 1.03,0.17 0.52,0 1.03,0 1.72,0 2.07,0 3.79,-0.34 5.51,-1.2 1.55,-0.69 2.93,-1.72 3.79,-3.1 1.37,-2.07 2.24,-7.23 2.75,-15.67 0.52,-8.44 0.69,-21.35 0.69,-38.58l0 -32.72c0,-8.44 -0.86,-14.29 -2.58,-17.57 -1.9,-3.27 -5.17,-4.82 -10.33,-4.82 -0.52,0 -1.38,0 -2.58,0.17l0 -3.61c0.17,0 0.52,0 0.86,0 6.54,0.51 11.54,0.86 14.81,0.86 1.55,0 3.62,0 6.03,-0.17 2.41,-0.17 4.99,-0.52 7.58,-0.69 0.86,2.24 2.07,4.48 3.62,6.72 1.55,2.41 3.79,5.34 6.72,8.78l63.72 76.64 0 -30.14c0,-19.11 -0.17,-32.38 -0.35,-40.13 -0.34,-7.75 -1.03,-12.4 -2.24,-14.12 -1.03,-1.55 -2.41,-2.75 -4.14,-3.44 -1.72,-0.52 -4.13,-0.86 -7.06,-0.86l-1.72 0.17 0 -3.61c4.99,0.34 8.78,0.51 11.54,0.69 2.58,0.17 4.82,0.17 6.55,0.17 1.89,0 4.48,0 7.92,-0.17 3.27,-0.17 6.89,-0.52 11.02,-0.69l0 3.61zm0.86 116.93m76.12 -52.53l-17.57 -53.39 -19.81 53.39c2.07,0.17 4.82,0.52 8.44,0.69 3.61,0.17 6.89,0.17 9.64,0.17 2.75,0 6.03,0 9.82,-0.17 3.79,-0.17 6.89,-0.52 9.47,-0.69zm45.29 52.53c-0.86,0 -2.41,-0.17 -4.48,-0.34 -7.75,-0.34 -13.43,-0.52 -17.05,-0.52 -4.48,0 -10.68,0.17 -18.6,0.52 -2.41,0.17 -4.31,0.34 -5.51,0.34l0 -3.62c0.51,0.17 1.2,0.17 1.72,0.17 3.79,0 6.55,-0.69 8.44,-1.89 1.89,-1.38 2.75,-3.27 2.75,-5.86 0,-2.24 -0.69,-5.68 -2.07,-10.33 -1.2,-4.65 -4.13,-12.74 -8.27,-24.11 -3.1,-0.17 -6.37,-0.34 -9.82,-0.34 -3.61,-0.17 -7.4,-0.17 -11.71,-0.17 -4.31,0 -8.09,0 -11.54,0.17 -3.44,0 -6.55,0.17 -9.13,0.34 -0.51,1.55 -1.37,3.79 -2.58,6.55 -5.68,15.15 -8.61,24.28 -8.61,27.9 0,2.58 1.03,4.48 2.75,5.86 1.9,1.2 4.82,1.89 8.44,1.89 0.52,0 1.21,0 1.72,-0.17l0 3.62c-3.44,-0.34 -6.72,-0.52 -9.99,-0.69 -3.27,-0.17 -6.2,-0.17 -8.95,-0.17 -2.58,0 -5.68,0 -8.95,0.17 -3.27,0.17 -6.55,0.34 -9.99,0.69l0 -3.62c0.52,0.17 1.2,0.17 1.72,0.17 2.58,0 4.99,-0.86 7.23,-2.58 2.24,-1.55 4.13,-3.96 5.68,-6.89 2.07,-4.13 6.2,-13.77 12.23,-29.1 6.03,-15.16 16.36,-41.68 30.83,-79.39l12.06 0c8.09,24.11 15.5,46.15 22.39,65.96 6.72,19.81 11.71,33.75 14.64,41.67 1.38,3.79 3.1,6.37 5.17,7.92 1.89,1.55 4.48,2.41 7.75,2.41 0.51,0 1.2,0 1.72,-0.17l0 3.62z"/>
   <path class="fil0" d="M998.79 1622.77m104.19 -95.58l-3.44 0.86c-2.24,-7.75 -4.82,-12.74 -7.75,-14.81 -2.93,-2.24 -8.09,-3.27 -15.5,-3.27l-16.88 0c-0.17,8.61 -0.34,15.16 -0.34,19.81l0 62c0,11.88 0.86,19.46 2.58,22.73 1.72,3.1 5.51,4.82 11.19,4.82 0.69,0 1.38,0 1.9,0 0.34,-0.17 1.03,-0.17 1.55,-0.17l0 3.62c-6.54,-0.34 -11.71,-0.52 -15.5,-0.69 -3.62,-0.17 -6.72,-0.17 -9.47,-0.17 -2.58,0 -5.85,0 -9.47,0.17 -3.61,0.17 -8.78,0.34 -15.5,0.69l0 -3.62c0.52,0 1.21,0 1.72,0.17 0.35,0 1.03,0 1.72,0 5.68,0 9.47,-1.72 11.19,-4.82 1.72,-3.27 2.58,-10.85 2.58,-22.73l0 -62c0,-4.65 -0.17,-11.19 -0.34,-19.81l-16.02 0c-7.4,0 -12.91,1.21 -16.36,3.62 -3.44,2.58 -6.37,7.23 -8.61,14.47l-3.44 -0.86c1.2,-4.65 2.07,-8.78 2.58,-12.74 0.69,-3.79 0.86,-8.27 0.86,-13.09 2.93,1.2 6.37,1.89 10.33,2.24 3.96,0.17 10.33,0.35 18.94,0.35l37.89 0c8.95,0 15.67,-0.17 20.15,-0.52 4.48,-0.34 8.61,-1.03 12.23,-2.07 -0.35,1.72 -0.52,4.31 -0.52,7.75 0,2.58 0.17,5.34 0.34,8.27 0.34,2.76 0.86,6.03 1.38,9.82zm6.89 95.58m48.22 0c-0.34,0 -1.03,0 -1.9,-0.17 -9.99,-0.34 -17.39,-0.69 -22.22,-0.69 -4.65,0 -12.05,0.34 -22.22,0.69 -0.86,0.17 -1.55,0.17 -1.89,0.17l0 -3.62c0.34,0 0.69,0 1.03,0.17 0.52,0 1.21,0 2.41,0 5.34,0 8.78,-1.72 10.5,-4.99 1.55,-3.27 2.41,-10.85 2.41,-22.56l0 -62c0,-10.5 -0.69,-17.05 -2.24,-19.98 -1.55,-2.76 -5.17,-4.13 -10.68,-4.13 -0.69,0 -1.2,0 -1.55,0 -0.34,0 -0.69,0 -1.03,0.17l0 -3.61c0.34,0 1.03,0 1.72,0 10.33,0.51 17.39,0.86 21.52,0.86 4.14,0 11.19,-0.17 21.18,-0.69 0.86,-0.17 1.55,-0.17 2.07,-0.17l0 3.61c-0.34,-0.17 -0.69,-0.17 -1.03,-0.17 -0.34,0 -0.86,0 -1.55,0 -5.51,0 -9.13,1.37 -10.68,4.13 -1.38,2.93 -2.24,9.47 -2.24,19.98l0 62c0,11.71 0.86,19.28 2.41,22.56 1.72,3.27 5.16,4.99 10.5,4.99 1.2,0 1.89,0 2.41,0 0.34,-0.17 0.69,-0.17 1.03,-0.17l0 3.62zm14.64 0m101.61 -56.83c0,-17.91 -3.96,-32.38 -11.89,-43.22 -7.92,-10.68 -18.42,-16.19 -31.17,-16.19 -11.54,0 -21.01,4.82 -28.42,14.47 -7.4,9.64 -11.19,22.22 -11.19,38.06 0,17.91 3.96,32.21 11.89,42.88 7.92,10.68 18.42,16.01 31.17,16.01 11.54,0 21.01,-4.82 28.59,-14.29 7.41,-9.47 11.02,-22.05 11.02,-37.72zm18.94 -3.44c0,17.22 -5.85,31.86 -17.57,43.91 -11.71,12.06 -25.83,18.08 -42.7,18.08 -17.74,0 -32.21,-5.85 -43.4,-17.57 -11.36,-11.71 -16.88,-26.52 -16.88,-44.43 0,-17.05 5.85,-31.68 17.74,-43.74 11.88,-12.23 26,-18.25 42.54,-18.25 17.56,0 32.03,5.85 43.22,17.56 11.37,11.71 17.05,26.52 17.05,44.43zm15.5 60.28m124.85 -116.93c-0.52,-0.17 -1.2,-0.17 -1.89,-0.17 -2.07,0 -3.79,0.34 -5.51,1.2 -1.72,0.69 -2.93,1.72 -3.79,3.1 -1.37,2.07 -2.24,7.41 -2.75,15.67 -0.34,8.44 -0.69,21.35 -0.69,38.57l0 34.45c0,4.65 0.17,9.47 0.52,14.29 0.34,4.65 0.69,8.27 1.2,10.68l-6.02 0c-0.35,-0.69 -1.03,-1.72 -2.07,-3.1 -1.03,-1.38 -2.24,-3.1 -3.96,-4.99l-77.5 -92.65 0 37.89c0,19.63 0.17,33.07 0.69,40.3 0.34,7.41 1.38,12.06 2.75,13.95 1.2,1.55 2.58,2.58 4.31,3.27 1.72,0.69 3.96,1.03 6.89,1.03 1.2,0 2.24,0 3.44,-0.17l0 3.62c-1.03,0 -2.58,-0.17 -4.82,-0.34 -7.4,-0.34 -12.74,-0.52 -15.84,-0.52 -2.58,0 -7.4,0.17 -14.64,0.52 -2.24,0.17 -3.96,0.34 -5.17,0.34l0 -3.62c0.34,0 0.69,0 1.03,0.17 0.52,0 1.03,0 1.72,0 2.07,0 3.79,-0.34 5.51,-1.2 1.55,-0.69 2.93,-1.72 3.79,-3.1 1.37,-2.07 2.24,-7.23 2.75,-15.67 0.52,-8.44 0.69,-21.35 0.69,-38.58l0 -32.72c0,-8.44 -0.86,-14.29 -2.58,-17.57 -1.9,-3.27 -5.17,-4.82 -10.33,-4.82 -0.52,0 -1.38,0 -2.58,0.17l0 -3.61c0.17,0 0.52,0 0.86,0 6.54,0.51 11.54,0.86 14.81,0.86 1.55,0 3.62,0 6.03,-0.17 2.41,-0.17 4.99,-0.52 7.58,-0.69 0.86,2.24 2.07,4.48 3.62,6.72 1.55,2.41 3.79,5.34 6.72,8.78l63.72 76.64 0 -30.14c0,-19.11 -0.17,-32.38 -0.35,-40.13 -0.34,-7.75 -1.03,-12.4 -2.24,-14.12 -1.03,-1.55 -2.41,-2.75 -4.14,-3.44 -1.72,-0.52 -4.13,-0.86 -7.06,-0.86l-1.72 0.17 0 -3.61c4.99,0.34 8.78,0.51 11.54,0.69 2.58,0.17 4.82,0.17 6.55,0.17 1.89,0 4.48,0 7.92,-0.17 3.27,-0.17 6.89,-0.52 11.02,-0.69l0 3.61z"/>
   <path class="fil0" d="M1501.57 1622.77m86.11 -96.1l-3.44 0.52c-2.24,-7.92 -5.17,-12.74 -8.44,-14.47 -3.44,-1.9 -10.33,-2.76 -20.84,-2.76 -3.79,0 -7.58,0 -11.54,0.17 -3.96,0 -7.41,0.17 -10.51,0.34 0,5 -0.17,10.68 -0.17,17.22 -0.17,6.55 -0.17,16.71 -0.17,30.48 1.38,0.17 2.76,0.35 3.96,0.35 1.38,0.17 2.93,0.17 4.65,0.17l13.78 0c7.75,0 13.26,-0.86 16.19,-2.41 3.1,-1.72 4.99,-4.82 5.34,-9.3l3.44 0.34c-0.34,2.07 -0.69,4.48 -0.86,6.89 -0.17,2.58 -0.34,4.99 -0.34,7.4 0,2.58 0.17,5.51 0.34,8.44 0.17,3.1 0.52,5.85 0.86,8.26l-3.44 0.52c-0.34,-5.34 -2.24,-9.13 -5.17,-11.02 -3.1,-1.9 -8.44,-2.76 -16.36,-2.76l-13.78 0c-1.72,0 -3.27,0 -4.65,0.17 -1.2,0 -2.58,0.17 -3.96,0.34 0,17.74 0.17,29.97 0.69,36.51 0.34,6.72 1.2,11.02 2.75,12.92 1.2,1.55 2.58,2.58 4.31,3.27 1.72,0.69 3.96,1.03 6.89,1.03 1.2,0 2.24,0 3.44,-0.17l0 3.62c-1.03,0 -2.76,-0.17 -4.82,-0.34 -8.95,-0.34 -15.5,-0.52 -20.15,-0.52 -4.99,0 -12.05,0.17 -21.01,0.69 -1.38,0 -2.41,0.17 -3.1,0.17l0 -3.62c0.34,0 0.69,0 1.2,0.17 0.52,0 1.38,0 2.24,0 4.99,0 8.26,-1.72 9.82,-4.99 1.55,-3.44 2.24,-11.02 2.24,-22.56l0 -62c0,-10.33 -0.69,-16.88 -2.07,-19.81 -1.55,-2.93 -4.82,-4.3 -9.99,-4.3 -0.69,0 -1.2,0 -1.55,0 -0.34,0 -0.69,0 -1.03,0.17l0 -3.61 2.75 0.17c19.81,1.03 34.27,1.55 42.88,1.55 4.48,0 9.99,-0.17 16.71,-0.52 6.54,-0.34 13.77,-0.69 21.18,-1.2 0,3.44 0.17,7.06 0.34,10.85 0.34,3.96 0.86,8.44 1.38,13.6zm12.06 96.1m101.61 -56.83c0,-17.91 -3.96,-32.38 -11.89,-43.22 -7.92,-10.68 -18.42,-16.19 -31.17,-16.19 -11.54,0 -21.01,4.82 -28.42,14.47 -7.4,9.64 -11.19,22.22 -11.19,38.06 0,17.91 3.96,32.21 11.89,42.88 7.92,10.68 18.42,16.01 31.17,16.01 11.54,0 21.01,-4.82 28.59,-14.29 7.41,-9.47 11.02,-22.05 11.02,-37.72zm18.94 -3.44c0,17.22 -5.85,31.86 -17.57,43.91 -11.71,12.06 -25.83,18.08 -42.7,18.08 -17.74,0 -32.21,-5.85 -43.4,-17.57 -11.36,-11.71 -16.88,-26.52 -16.88,-44.43 0,-17.05 5.85,-31.68 17.74,-43.74 11.88,-12.23 26,-18.25 42.54,-18.25 17.56,0 32.03,5.85 43.22,17.56 11.37,11.71 17.05,26.52 17.05,44.43zm15.5 60.28m73.19 -86.11c0,-8.44 -2.93,-15.33 -8.61,-20.49 -5.68,-5.34 -13.09,-7.92 -22.39,-7.92 -1.72,0 -3.44,0 -5.34,0.17 -1.89,0.17 -3.79,0.34 -5.51,0.69 0,6.55 -0.17,13.78 -0.17,21.53 -0.17,7.58 -0.17,18.77 -0.17,33.24 0.69,0 1.72,0 2.93,0.17 4.48,0.34 8.09,0.51 10.85,0.51 3.79,0 6.55,0 8.44,0 1.72,-0.17 3.27,-0.17 4.48,-0.34 5.16,-2.93 8.95,-6.72 11.54,-11.36 2.58,-4.65 3.96,-10.16 3.96,-16.19zm42.19 85.76l-2.58 0.34c-2.24,0.34 -4.13,0.52 -6.02,0.69 -1.9,0.17 -3.62,0.17 -5.17,0.17 -5.68,0 -10.51,-0.86 -14.12,-2.76 -3.79,-1.72 -7.06,-4.82 -9.99,-9.3 -1.72,-2.58 -4.13,-6.2 -7.23,-11.02 -1.03,-1.72 -1.72,-2.75 -2.24,-3.61l-7.75 -12.06c-2.58,-4.13 -4.82,-7.41 -6.55,-9.99 -1.72,-2.58 -2.93,-4.13 -3.44,-4.65 -1.9,0.17 -4.13,0.52 -6.72,0.69 -2.41,0.17 -5,0.17 -7.41,0.17l-5.17 0 0 20.67c0,11.71 0.86,19.28 2.58,22.73 1.55,3.27 4.99,5 10.33,5 0.69,0 1.2,0 1.72,0 0.34,-0.17 0.69,-0.17 0.86,-0.17l0 3.62c-0.34,0 -1.03,0 -2.07,0 -9.82,-0.52 -17.05,-0.86 -21.18,-0.86 -4.13,0 -11.19,0.34 -21.18,0.86 -1.03,0 -1.72,0 -2.07,0l0 -3.79c0.34,0 0.69,0 1.2,0.17 0.52,0 1.38,0 2.24,0 4.99,0 8.26,-1.72 9.82,-5.34 1.38,-3.62 2.24,-10.68 2.24,-21.35l0 -62.86c0,-10.33 -0.69,-16.88 -2.07,-19.81 -1.55,-2.93 -4.82,-4.3 -9.99,-4.3 -0.69,0 -1.2,0 -1.55,0 -0.34,0 -0.69,0 -1.03,0.17l0 -3.61 1.03 0c9.3,0.51 16.19,0.86 20.49,0.86 2.93,0 6.89,-0.17 12.06,-0.52 5.17,-0.17 9.3,-0.34 12.06,-0.34 12.92,0 23.59,2.93 31.69,8.78 8.09,6.03 12.23,13.6 12.23,23.08 0,6.55 -1.9,12.4 -5.85,17.74 -3.79,5.34 -9.65,9.99 -17.4,14.12l20.67 31c6.37,9.47 11.02,15.5 14.12,18.25 3.1,2.75 6.72,4.13 10.85,4.13l2.58 0 0 3.1zm51.67 0.34m74.91 -86.11c0,-8.61 -2.93,-15.33 -8.78,-20.67 -5.85,-5.17 -13.6,-7.75 -23.08,-7.75 -1.9,0 -3.96,0 -6.03,0.17 -1.9,0.17 -3.79,0.34 -5.68,0.69 -0.17,6.72 -0.17,13.95 -0.17,21.53 -0.17,7.75 -0.17,19.46 -0.17,35.3 2.24,0.17 4.31,0.52 6.03,0.69 1.9,0 3.62,0.17 5.17,0.17 9.64,0 17.57,-2.93 23.59,-8.44 6.2,-5.68 9.12,-12.92 9.12,-21.7zm17.22 -0.86c0,10.85 -4.48,19.8 -13.43,26.86 -8.78,6.89 -20.15,10.5 -33.92,10.5 -2.76,0 -6.72,-0.34 -11.54,-0.86 -1.03,0 -1.72,-0.17 -2.24,-0.17 0,14.98 0.17,25.49 0.69,31.34 0.34,5.68 1.37,9.65 2.75,11.54 1.2,1.55 2.58,2.58 4.31,3.27 1.72,0.69 3.96,1.03 6.89,1.03 1.2,0 2.24,0 3.44,-0.17l0 3.62c-1.03,0 -2.76,-0.17 -4.82,-0.34 -8.95,-0.34 -15.5,-0.52 -20.15,-0.52 -4.99,0 -12.05,0.17 -21.01,0.69 -1.38,0 -2.41,0.17 -3.1,0.17l0 -3.62c0.34,0 0.69,0 1.2,0.17 0.52,0 1.38,0 2.24,0 4.99,0 8.26,-1.72 9.82,-4.99 1.55,-3.44 2.24,-11.02 2.24,-22.56l0 -62c0,-10.33 -0.69,-16.88 -2.07,-19.81 -1.55,-2.93 -4.82,-4.3 -9.99,-4.3 -0.69,0 -1.2,0 -1.55,0 -0.34,0 -0.69,0 -1.03,0.17l0 -3.61c0.86,0 2.07,0.17 3.96,0.17 8.09,0.52 14.64,0.69 19.28,0.69 2.24,0 6.03,-0.17 11.37,-0.52 5.51,-0.17 9.82,-0.34 12.74,-0.34 13.43,0 24.11,2.93 32.03,8.95 7.92,6.02 11.88,14.29 11.88,24.63zm7.75 86.97m73.19 -86.11c0,-8.44 -2.93,-15.33 -8.61,-20.49 -5.68,-5.34 -13.09,-7.92 -22.39,-7.92 -1.72,0 -3.44,0 -5.34,0.17 -1.89,0.17 -3.79,0.34 -5.51,0.69 0,6.55 -0.17,13.78 -0.17,21.53 -0.17,7.58 -0.17,18.77 -0.17,33.24 0.69,0 1.72,0 2.93,0.17 4.48,0.34 8.09,0.51 10.85,0.51 3.79,0 6.55,0 8.44,0 1.72,-0.17 3.27,-0.17 4.48,-0.34 5.16,-2.93 8.95,-6.72 11.54,-11.36 2.58,-4.65 3.96,-10.16 3.96,-16.19zm42.19 85.76l-2.58 0.34c-2.24,0.34 -4.13,0.52 -6.02,0.69 -1.9,0.17 -3.62,0.17 -5.17,0.17 -5.68,0 -10.51,-0.86 -14.12,-2.76 -3.79,-1.72 -7.06,-4.82 -9.99,-9.3 -1.72,-2.58 -4.13,-6.2 -7.23,-11.02 -1.03,-1.72 -1.72,-2.75 -2.24,-3.61l-7.75 -12.06c-2.58,-4.13 -4.82,-7.41 -6.55,-9.99 -1.72,-2.58 -2.93,-4.13 -3.44,-4.65 -1.9,0.17 -4.13,0.52 -6.72,0.69 -2.41,0.17 -5,0.17 -7.41,0.17l-5.17 0 0 20.67c0,11.71 0.86,19.28 2.58,22.73 1.55,3.27 4.99,5 10.33,5 0.69,0 1.2,0 1.72,0 0.34,-0.17 0.69,-0.17 0.86,-0.17l0 3.62c-0.34,0 -1.03,0 -2.07,0 -9.82,-0.52 -17.05,-0.86 -21.18,-0.86 -4.13,0 -11.19,0.34 -21.18,0.86 -1.03,0 -1.72,0 -2.07,0l0 -3.79c0.34,0 0.69,0 1.2,0.17 0.52,0 1.38,0 2.24,0 4.99,0 8.26,-1.72 9.82,-5.34 1.38,-3.62 2.24,-10.68 2.24,-21.35l0 -62.86c0,-10.33 -0.69,-16.88 -2.07,-19.81 -1.55,-2.93 -4.82,-4.3 -9.99,-4.3 -0.69,0 -1.2,0 -1.55,0 -0.34,0 -0.69,0 -1.03,0.17l0 -3.61 1.03 0c9.3,0.51 16.19,0.86 20.49,0.86 2.93,0 6.89,-0.17 12.06,-0.52 5.17,-0.17 9.3,-0.34 12.06,-0.34 12.92,0 23.59,2.93 31.69,8.78 8.09,6.03 12.23,13.6 12.23,23.08 0,6.55 -1.9,12.4 -5.85,17.74 -3.79,5.34 -9.65,9.99 -17.4,14.12l20.67 31c6.37,9.47 11.02,15.5 14.12,18.25 3.1,2.75 6.72,4.13 10.85,4.13l2.58 0 0 3.1zm-2.58 0.34m48.22 0c-0.34,0 -1.03,0 -1.9,-0.17 -9.99,-0.34 -17.39,-0.69 -22.22,-0.69 -4.65,0 -12.05,0.34 -22.22,0.69 -0.86,0.17 -1.55,0.17 -1.89,0.17l0 -3.62c0.34,0 0.69,0 1.03,0.17 0.52,0 1.21,0 2.41,0 5.34,0 8.78,-1.72 10.5,-4.99 1.55,-3.27 2.41,-10.85 2.41,-22.56l0 -62c0,-10.5 -0.69,-17.05 -2.24,-19.98 -1.55,-2.76 -5.17,-4.13 -10.68,-4.13 -0.69,0 -1.2,0 -1.55,0 -0.34,0 -0.69,0 -1.03,0.17l0 -3.61c0.34,0 1.03,0 1.72,0 10.33,0.51 17.39,0.86 21.52,0.86 4.14,0 11.19,-0.17 21.18,-0.69 0.86,-0.17 1.55,-0.17 2.07,-0.17l0 3.61c-0.34,-0.17 -0.69,-0.17 -1.03,-0.17 -0.34,0 -0.86,0 -1.55,0 -5.51,0 -9.13,1.37 -10.68,4.13 -1.38,2.93 -2.24,9.47 -2.24,19.98l0 62c0,11.71 0.86,19.28 2.41,22.56 1.72,3.27 5.16,4.99 10.5,4.99 1.2,0 1.89,0 2.41,0 0.34,-0.17 0.69,-0.17 1.03,-0.17l0 3.62zm0 0m118.83 -116.93c-0.52,-0.17 -1.21,-0.17 -1.72,-0.17 -2.58,0 -5,0.86 -7.23,2.41 -2.24,1.72 -4.14,3.96 -5.68,7.06 -2.41,4.82 -10.5,25.32 -24.28,61.48 -7.58,19.81 -13.43,35.48 -17.91,47.01l-9.47 0c-6.37,-19.29 -12.92,-38.23 -19.46,-57 -6.72,-18.77 -12.75,-35.65 -18.43,-50.63 -1.38,-3.79 -3.1,-6.37 -4.99,-7.92 -2.07,-1.72 -4.65,-2.41 -7.92,-2.41 -0.52,0 -1.2,0 -1.72,0.17l0 -3.61c1.03,0 2.41,0.17 4.48,0.17 7.75,0.52 13.43,0.69 17.05,0.69 5.51,0 12.91,-0.35 22.39,-0.86l0.86 0 0 3.61c-0.52,-0.17 -1.2,-0.17 -1.72,-0.17 -3.61,0 -6.37,0.51 -8.26,1.72 -1.9,1.21 -2.93,2.93 -2.93,5.17 0,2.93 1.38,8.09 3.96,15.67 0.52,1.55 1.03,2.58 1.2,3.27l24.97 71.47c2.75,-6.89 7.23,-18.42 13.26,-34.61l3.1 -8.44 3.44 -9.12c8.09,-21.35 12.06,-33.75 12.06,-37.37 0,-2.58 -0.86,-4.65 -2.75,-5.85 -1.9,-1.38 -4.65,-1.89 -8.44,-1.89 -0.51,0 -1.2,0 -1.72,0.17l0 -3.61c3.1,0.17 6.55,0.51 10.16,0.69 3.61,0.17 6.89,0.17 9.64,0.17 2.41,0 5.17,0 7.92,-0.17 2.93,-0.17 6.2,-0.34 10.16,-0.69l0 3.61zm-1.72 116.93m48.22 0c-0.34,0 -1.03,0 -1.9,-0.17 -9.99,-0.34 -17.39,-0.69 -22.22,-0.69 -4.65,0 -12.05,0.34 -22.22,0.69 -0.86,0.17 -1.55,0.17 -1.89,0.17l0 -3.62c0.34,0 0.69,0 1.03,0.17 0.52,0 1.21,0 2.41,0 5.34,0 8.78,-1.72 10.5,-4.99 1.55,-3.27 2.41,-10.85 2.41,-22.56l0 -62c0,-10.5 -0.69,-17.05 -2.24,-19.98 -1.55,-2.76 -5.17,-4.13 -10.68,-4.13 -0.69,0 -1.2,0 -1.55,0 -0.34,0 -0.69,0 -1.03,0.17l0 -3.61c0.34,0 1.03,0 1.72,0 10.33,0.51 17.39,0.86 21.52,0.86 4.14,0 11.19,-0.17 21.18,-0.69 0.86,-0.17 1.55,-0.17 2.07,-0.17l0 3.61c-0.34,-0.17 -0.69,-0.17 -1.03,-0.17 -0.34,0 -0.86,0 -1.55,0 -5.51,0 -9.13,1.37 -10.68,4.13 -1.38,2.93 -2.24,9.47 -2.24,19.98l0 62c0,11.71 0.86,19.28 2.41,22.56 1.72,3.27 5.16,4.99 10.5,4.99 1.2,0 1.89,0 2.41,0 0.34,-0.17 0.69,-0.17 1.03,-0.17l0 3.62zm12.92 0m90.41 -25.49c-1.9,5.85 -3.27,10.85 -4.31,14.64 -1.03,3.96 -1.9,7.58 -2.58,10.85 -2.24,0 -5.51,-0.17 -9.82,-0.34 -12.4,-0.34 -22.04,-0.52 -28.93,-0.52 -9.82,0 -24.11,0.34 -43.05,0.69l-1.72 0.17 0 -3.62c0.34,0 0.69,0 1.2,0.17 0.52,0 1.38,0 2.24,0 4.99,0 8.26,-1.72 9.82,-4.99 1.55,-3.44 2.24,-11.02 2.24,-22.56l0 -62c0,-10.33 -0.69,-16.88 -2.07,-19.81 -1.55,-2.93 -4.82,-4.3 -9.99,-4.3 -0.69,0 -1.2,0 -1.55,0 -0.34,0 -0.69,0 -1.03,0.17l0 -3.61c0.86,0 2.24,0.17 4.13,0.17 7.92,0.52 14.12,0.69 18.25,0.69 4.65,0 12.06,-0.17 22.22,-0.69 0.86,-0.17 1.38,-0.17 1.9,-0.17l0 3.61c-0.52,-0.17 -1.2,-0.17 -1.72,-0.17 -6.2,0 -10.16,1.55 -11.71,4.65 -1.72,3.27 -2.58,9.64 -2.58,19.46 0,21.7 0.17,38.75 0.35,50.98 0.17,12.23 0.34,23.42 0.69,33.41 3.96,0.52 7.58,0.86 11.02,1.03 3.44,0.17 6.89,0.34 9.99,0.34 9.3,0 16.19,-1.03 20.66,-3.27 4.65,-2.07 8.95,-7.58 12.92,-16.19l3.44 1.2zm2.58 25.49m93.86 -24.97c-1.55,4.82 -2.93,9.3 -4.13,13.43 -1.03,3.96 -2.07,7.92 -2.76,11.54 -2.07,0 -5.17,-0.17 -9.3,-0.34 -12.92,-0.34 -23.25,-0.52 -31.17,-0.52 -11.02,0 -26,0.34 -44.95,0.69l-1.55 0.17 0 -3.62c0.34,0 0.69,0 1.2,0.17 0.52,0 1.38,0 2.24,0 4.99,0 8.26,-1.72 9.82,-5.34 1.38,-3.62 2.24,-10.68 2.24,-21.35l0 -62.86c0,-10.33 -0.69,-16.88 -2.07,-19.81 -1.55,-2.93 -4.82,-4.3 -9.99,-4.3 -0.69,0 -1.2,0 -1.55,0 -0.34,0 -0.69,0 -1.03,0.17l0 -3.61 2.75 0.17c19.81,1.03 34.27,1.55 42.88,1.55 4.48,0 9.99,-0.17 16.71,-0.52 6.54,-0.34 13.77,-0.69 21.18,-1.2 0,3.44 0.17,7.06 0.34,10.85 0.34,3.96 0.86,8.44 1.38,13.6l-3.44 0.52c-2.24,-7.92 -5.17,-12.74 -8.44,-14.47 -3.44,-1.9 -10.33,-2.76 -20.84,-2.76 -3.79,0 -7.58,0 -11.54,0.17 -3.96,0 -7.41,0.17 -10.51,0.34 0,5 -0.17,10.68 -0.17,17.22 -0.17,6.55 -0.17,16.53 -0.17,29.97 1.38,0.17 2.76,0.34 4.13,0.34 1.38,0.17 2.93,0.17 4.48,0.17l15.5 0c7.92,0 13.43,-0.86 16.36,-2.41 3.1,-1.55 4.65,-4.65 5.17,-9.13l3.44 0.35c-0.34,2.07 -0.69,4.31 -0.86,6.72 -0.17,2.41 -0.34,4.99 -0.34,7.92 0,2.76 0.17,5.51 0.34,8.09 0.17,2.58 0.52,5.34 0.86,8.27l-3.44 0.34c-0.52,-5.51 -2.07,-9.12 -5.17,-11.02 -2.93,-1.9 -8.44,-2.76 -16.36,-2.76l-15.5 0c-1.72,0 -3.27,0 -4.65,0.17 -1.2,0 -2.58,0.17 -3.96,0.34 0,7.58 0.17,15.84 0.34,25.14 0,9.3 0.35,17.22 0.52,23.94 3.96,0.34 7.92,0.69 12.06,1.03 3.96,0.17 7.75,0.34 11.19,0.34 10.68,0 18.42,-1.2 23.08,-3.44 4.82,-2.41 8.78,-7.58 12.23,-15.5l3.44 1.21zm14.64 24.97m116.24 -51.66c-4.48,0 -7.4,1.2 -8.95,3.62 -1.37,2.41 -2.24,6.89 -2.24,13.6l0 13.77c0,3.1 0.17,6.03 0.17,8.79 0.17,2.58 0.34,5.17 0.69,7.58 -10.16,2.41 -18.08,3.96 -23.94,4.82 -5.68,0.86 -11.19,1.2 -16.54,1.2 -19.63,0 -35.47,-5.51 -47.53,-16.53 -11.88,-11.02 -17.91,-25.49 -17.91,-43.74 0,-19.11 6.2,-34.44 18.6,-46.15 12.23,-11.71 28.59,-17.56 48.56,-17.56 6.55,0 13.09,0.51 19.46,1.72 6.37,1.2 12.57,2.93 18.43,5.16 0,3.96 0.17,7.75 0.69,11.54 0.34,3.62 1.03,7.92 1.89,12.57l-4.3 0.86c-2.58,-9.47 -6.89,-16.19 -12.75,-19.98 -5.85,-3.96 -14.81,-5.85 -26.86,-5.85 -13.43,0 -24.28,4.82 -32.38,14.64 -8.26,9.82 -12.4,23.08 -12.4,39.61 0,17.22 4.65,31 13.78,41.33 8.95,10.33 21.18,15.5 36.16,15.5 3.96,0 7.58,-0.34 10.85,-0.86 3.44,-0.52 6.55,-1.38 9.47,-2.58 0.17,-2.93 0.17,-6.37 0.17,-9.82 0.17,-3.61 0.17,-8.95 0.17,-16.01 0,-6.72 -1.03,-11.37 -3.1,-13.6 -2.07,-2.41 -6.2,-3.62 -12.4,-3.62 -0.52,0 -1.38,0.17 -2.58,0.34l0 -3.79 0.86 0c9.47,0.52 16.88,0.86 22.39,0.86 4.31,0 11.19,-0.34 20.49,-0.86l1.03 0 0 3.44zm16.36 51.66m93.86 -24.97c-1.55,4.82 -2.93,9.3 -4.13,13.43 -1.03,3.96 -2.07,7.92 -2.76,11.54 -2.07,0 -5.17,-0.17 -9.3,-0.34 -12.92,-0.34 -23.25,-0.52 -31.17,-0.52 -11.02,0 -26,0.34 -44.95,0.69l-1.55 0.17 0 -3.62c0.34,0 0.69,0 1.2,0.17 0.52,0 1.38,0 2.24,0 4.99,0 8.26,-1.72 9.82,-5.34 1.38,-3.62 2.24,-10.68 2.24,-21.35l0 -62.86c0,-10.33 -0.69,-16.88 -2.07,-19.81 -1.55,-2.93 -4.82,-4.3 -9.99,-4.3 -0.69,0 -1.2,0 -1.55,0 -0.34,0 -0.69,0 -1.03,0.17l0 -3.61 2.75 0.17c19.81,1.03 34.27,1.55 42.88,1.55 4.48,0 9.99,-0.17 16.71,-0.52 6.54,-0.34 13.77,-0.69 21.18,-1.2 0,3.44 0.17,7.06 0.34,10.85 0.34,3.96 0.86,8.44 1.38,13.6l-3.44 0.52c-2.24,-7.92 -5.17,-12.74 -8.44,-14.47 -3.44,-1.9 -10.33,-2.76 -20.84,-2.76 -3.79,0 -7.58,0 -11.54,0.17 -3.96,0 -7.41,0.17 -10.51,0.34 0,5 -0.17,10.68 -0.17,17.22 -0.17,6.55 -0.17,16.53 -0.17,29.97 1.38,0.17 2.76,0.34 4.13,0.34 1.38,0.17 2.93,0.17 4.48,0.17l15.5 0c7.92,0 13.43,-0.86 16.36,-2.41 3.1,-1.55 4.65,-4.65 5.17,-9.13l3.44 0.35c-0.34,2.07 -0.69,4.31 -0.86,6.72 -0.17,2.41 -0.34,4.99 -0.34,7.92 0,2.76 0.17,5.51 0.34,8.09 0.17,2.58 0.52,5.34 0.86,8.27l-3.44 0.34c-0.52,-5.51 -2.07,-9.12 -5.17,-11.02 -2.93,-1.9 -8.44,-2.76 -16.36,-2.76l-15.5 0c-1.72,0 -3.27,0 -4.65,0.17 -1.2,0 -2.58,0.17 -3.96,0.34 0,7.58 0.17,15.84 0.34,25.14 0,9.3 0.35,17.22 0.52,23.94 3.96,0.34 7.92,0.69 12.06,1.03 3.96,0.17 7.75,0.34 11.19,0.34 10.68,0 18.42,-1.2 23.08,-3.44 4.82,-2.41 8.78,-7.58 12.23,-15.5l3.44 1.21zm12.92 24.97m101.61 -58.55c0,-16.71 -5.17,-30.14 -15.16,-40.3 -10.16,-10.16 -23.42,-15.16 -39.95,-15.16 -2.24,0 -4.82,0.17 -7.92,0.34 -2.93,0.35 -5.34,0.52 -7.23,0.86 0,1.38 0,3.44 -0.17,6.2 -0.34,14.81 -0.52,26 -0.52,33.41 0,6.2 0.17,14.98 0.34,26.35 0.17,5.34 0.34,9.47 0.34,12.4l0.52 24.45c3.96,1.38 7.75,2.41 11.37,2.93 3.61,0.69 7.58,1.03 11.88,1.03 14.81,0 26.35,-4.65 34.44,-13.95 7.92,-9.3 12.06,-22.22 12.06,-38.58zm18.94 -1.72c0,17.91 -5.85,32.72 -17.74,44.09 -12.06,11.36 -27.9,17.05 -47.7,17.05 -4.14,0 -9.82,-0.34 -17.05,-0.86 -7.06,-0.52 -12.4,-0.86 -15.67,-0.86 -3.1,0 -6.54,0 -10.33,0.17 -3.62,0.17 -7.58,0.34 -12.06,0.69l0 -3.62c0.34,0 0.69,0 1.2,0.17 0.52,0 1.38,0 2.24,0 4.99,0 8.26,-1.72 9.82,-5.34 1.38,-3.62 2.24,-10.68 2.24,-21.35l0 -62.86c0,-10.33 -0.69,-16.88 -2.07,-19.81 -1.55,-2.93 -4.82,-4.3 -9.99,-4.3 -0.69,0 -1.2,0 -1.55,0 -0.34,0 -0.69,0 -1.03,0.17l0 -3.61c3.27,0.17 6.72,0.51 10.68,0.69 3.79,0.17 7.58,0.17 10.85,0.17 2.93,0 7.41,-0.17 13.78,-0.52 6.37,-0.17 11.02,-0.34 13.78,-0.34 21.35,0 38.57,5.34 51.32,16.36 12.92,10.85 19.29,25.49 19.29,43.91zm68.89 60.28m90.41 -25.49c-1.9,5.85 -3.27,10.85 -4.31,14.64 -1.03,3.96 -1.9,7.58 -2.58,10.85 -2.24,0 -5.51,-0.17 -9.82,-0.34 -12.4,-0.34 -22.04,-0.52 -28.93,-0.52 -9.82,0 -24.11,0.34 -43.05,0.69l-1.72 0.17 0 -3.62c0.34,0 0.69,0 1.2,0.17 0.52,0 1.38,0 2.24,0 4.99,0 8.26,-1.72 9.82,-4.99 1.55,-3.44 2.24,-11.02 2.24,-22.56l0 -62c0,-10.33 -0.69,-16.88 -2.07,-19.81 -1.55,-2.93 -4.82,-4.3 -9.99,-4.3 -0.69,0 -1.2,0 -1.55,0 -0.34,0 -0.69,0 -1.03,0.17l0 -3.61c0.86,0 2.24,0.17 4.13,0.17 7.92,0.52 14.12,0.69 18.25,0.69 4.65,0 12.06,-0.17 22.22,-0.69 0.86,-0.17 1.38,-0.17 1.9,-0.17l0 3.61c-0.52,-0.17 -1.2,-0.17 -1.72,-0.17 -6.2,0 -10.16,1.55 -11.71,4.65 -1.72,3.27 -2.58,9.64 -2.58,19.46 0,21.7 0.17,38.75 0.35,50.98 0.17,12.23 0.34,23.42 0.69,33.41 3.96,0.52 7.58,0.86 11.02,1.03 3.44,0.17 6.89,0.34 9.99,0.34 9.3,0 16.19,-1.03 20.66,-3.27 4.65,-2.07 8.95,-7.58 12.92,-16.19l3.44 1.2zm1.72 25.49m48.22 0c-0.34,0 -1.03,0 -1.9,-0.17 -9.99,-0.34 -17.39,-0.69 -22.22,-0.69 -4.65,0 -12.05,0.34 -22.22,0.69 -0.86,0.17 -1.55,0.17 -1.89,0.17l0 -3.62c0.34,0 0.69,0 1.03,0.17 0.52,0 1.21,0 2.41,0 5.34,0 8.78,-1.72 10.5,-4.99 1.55,-3.27 2.41,-10.85 2.41,-22.56l0 -62c0,-10.5 -0.69,-17.05 -2.24,-19.98 -1.55,-2.76 -5.17,-4.13 -10.68,-4.13 -0.69,0 -1.2,0 -1.55,0 -0.34,0 -0.69,0 -1.03,0.17l0 -3.61c0.34,0 1.03,0 1.72,0 10.33,0.51 17.39,0.86 21.52,0.86 4.14,0 11.19,-0.17 21.18,-0.69 0.86,-0.17 1.55,-0.17 2.07,-0.17l0 3.61c-0.34,-0.17 -0.69,-0.17 -1.03,-0.17 -0.34,0 -0.86,0 -1.55,0 -5.51,0 -9.13,1.37 -10.68,4.13 -1.38,2.93 -2.24,9.47 -2.24,19.98l0 62c0,11.71 0.86,19.28 2.41,22.56 1.72,3.27 5.16,4.99 10.5,4.99 1.2,0 1.89,0 2.41,0 0.34,-0.17 0.69,-0.17 1.03,-0.17l0 3.62zm0 0m118.83 -116.93c-0.52,-0.17 -1.21,-0.17 -1.72,-0.17 -2.58,0 -5,0.86 -7.23,2.41 -2.24,1.72 -4.14,3.96 -5.68,7.06 -2.41,4.82 -10.5,25.32 -24.28,61.48 -7.58,19.81 -13.43,35.48 -17.91,47.01l-9.47 0c-6.37,-19.29 -12.92,-38.23 -19.46,-57 -6.72,-18.77 -12.75,-35.65 -18.43,-50.63 -1.38,-3.79 -3.1,-6.37 -4.99,-7.92 -2.07,-1.72 -4.65,-2.41 -7.92,-2.41 -0.52,0 -1.2,0 -1.72,0.17l0 -3.61c1.03,0 2.41,0.17 4.48,0.17 7.75,0.52 13.43,0.69 17.05,0.69 5.51,0 12.91,-0.35 22.39,-0.86l0.86 0 0 3.61c-0.52,-0.17 -1.2,-0.17 -1.72,-0.17 -3.61,0 -6.37,0.51 -8.26,1.72 -1.9,1.21 -2.93,2.93 -2.93,5.17 0,2.93 1.38,8.09 3.96,15.67 0.52,1.55 1.03,2.58 1.2,3.27l24.97 71.47c2.75,-6.89 7.23,-18.42 13.26,-34.61l3.1 -8.44 3.44 -9.12c8.09,-21.35 12.06,-33.75 12.06,-37.37 0,-2.58 -0.86,-4.65 -2.75,-5.85 -1.9,-1.38 -4.65,-1.89 -8.44,-1.89 -0.51,0 -1.2,0 -1.72,0.17l0 -3.61c3.1,0.17 6.55,0.51 10.16,0.69 3.61,0.17 6.89,0.17 9.64,0.17 2.41,0 5.17,0 7.92,-0.17 2.93,-0.17 6.2,-0.34 10.16,-0.69l0 3.61zm-1.72 116.93m48.22 0c-0.34,0 -1.03,0 -1.9,-0.17 -9.99,-0.34 -17.39,-0.69 -22.22,-0.69 -4.65,0 -12.05,0.34 -22.22,0.69 -0.86,0.17 -1.55,0.17 -1.89,0.17l0 -3.62c0.34,0 0.69,0 1.03,0.17 0.52,0 1.21,0 2.41,0 5.34,0 8.78,-1.72 10.5,-4.99 1.55,-3.27 2.41,-10.85 2.41,-22.56l0 -62c0,-10.5 -0.69,-17.05 -2.24,-19.98 -1.55,-2.76 -5.17,-4.13 -10.68,-4.13 -0.69,0 -1.2,0 -1.55,0 -0.34,0 -0.69,0 -1.03,0.17l0 -3.61c0.34,0 1.03,0 1.72,0 10.33,0.51 17.39,0.86 21.52,0.86 4.14,0 11.19,-0.17 21.18,-0.69 0.86,-0.17 1.55,-0.17 2.07,-0.17l0 3.61c-0.34,-0.17 -0.69,-0.17 -1.03,-0.17 -0.34,0 -0.86,0 -1.55,0 -5.51,0 -9.13,1.37 -10.68,4.13 -1.38,2.93 -2.24,9.47 -2.24,19.98l0 62c0,11.71 0.86,19.28 2.41,22.56 1.72,3.27 5.16,4.99 10.5,4.99 1.2,0 1.89,0 2.41,0 0.34,-0.17 0.69,-0.17 1.03,-0.17l0 3.62zm12.92 0m124.85 -116.93c-0.52,-0.17 -1.2,-0.17 -1.89,-0.17 -2.07,0 -3.79,0.34 -5.51,1.2 -1.72,0.69 -2.93,1.72 -3.79,3.1 -1.37,2.07 -2.24,7.41 -2.75,15.67 -0.34,8.44 -0.69,21.35 -0.69,38.57l0 34.45c0,4.65 0.17,9.47 0.52,14.29 0.34,4.65 0.69,8.27 1.2,10.68l-6.02 0c-0.35,-0.69 -1.03,-1.72 -2.07,-3.1 -1.03,-1.38 -2.24,-3.1 -3.96,-4.99l-77.5 -92.65 0 37.89c0,19.63 0.17,33.07 0.69,40.3 0.34,7.41 1.38,12.06 2.75,13.95 1.2,1.55 2.58,2.58 4.31,3.27 1.72,0.69 3.96,1.03 6.89,1.03 1.2,0 2.24,0 3.44,-0.17l0 3.62c-1.03,0 -2.58,-0.17 -4.82,-0.34 -7.4,-0.34 -12.74,-0.52 -15.84,-0.52 -2.58,0 -7.4,0.17 -14.64,0.52 -2.24,0.17 -3.96,0.34 -5.17,0.34l0 -3.62c0.34,0 0.69,0 1.03,0.17 0.52,0 1.03,0 1.72,0 2.07,0 3.79,-0.34 5.51,-1.2 1.55,-0.69 2.93,-1.72 3.79,-3.1 1.37,-2.07 2.24,-7.23 2.75,-15.67 0.52,-8.44 0.69,-21.35 0.69,-38.58l0 -32.72c0,-8.44 -0.86,-14.29 -2.58,-17.57 -1.9,-3.27 -5.17,-4.82 -10.33,-4.82 -0.52,0 -1.38,0 -2.58,0.17l0 -3.61c0.17,0 0.52,0 0.86,0 6.54,0.51 11.54,0.86 14.81,0.86 1.55,0 3.62,0 6.03,-0.17 2.41,-0.17 4.99,-0.52 7.58,-0.69 0.86,2.24 2.07,4.48 3.62,6.72 1.55,2.41 3.79,5.34 6.72,8.78l63.72 76.64 0 -30.14c0,-19.11 -0.17,-32.38 -0.35,-40.13 -0.34,-7.75 -1.03,-12.4 -2.24,-14.12 -1.03,-1.55 -2.41,-2.75 -4.14,-3.44 -1.72,-0.52 -4.13,-0.86 -7.06,-0.86l-1.72 0.17 0 -3.61c4.99,0.34 8.78,0.51 11.54,0.69 2.58,0.17 4.82,0.17 6.55,0.17 1.89,0 4.48,0 7.92,-0.17 3.27,-0.17 6.89,-0.52 11.02,-0.69l0 3.61zm16.36 116.93m116.24 -51.66c-4.48,0 -7.4,1.2 -8.95,3.62 -1.37,2.41 -2.24,6.89 -2.24,13.6l0 13.77c0,3.1 0.17,6.03 0.17,8.79 0.17,2.58 0.34,5.17 0.69,7.58 -10.16,2.41 -18.08,3.96 -23.94,4.82 -5.68,0.86 -11.19,1.2 -16.54,1.2 -19.63,0 -35.47,-5.51 -47.53,-16.53 -11.88,-11.02 -17.91,-25.49 -17.91,-43.74 0,-19.11 6.2,-34.44 18.6,-46.15 12.23,-11.71 28.59,-17.56 48.56,-17.56 6.55,0 13.09,0.51 19.46,1.72 6.37,1.2 12.57,2.93 18.43,5.16 0,3.96 0.17,7.75 0.69,11.54 0.34,3.62 1.03,7.92 1.89,12.57l-4.3 0.86c-2.58,-9.47 -6.89,-16.19 -12.75,-19.98 -5.85,-3.96 -14.81,-5.85 -26.86,-5.85 -13.43,0 -24.28,4.82 -32.38,14.64 -8.26,9.82 -12.4,23.08 -12.4,39.61 0,17.22 4.65,31 13.78,41.33 8.95,10.33 21.18,15.5 36.16,15.5 3.96,0 7.58,-0.34 10.85,-0.86 3.44,-0.52 6.55,-1.38 9.47,-2.58 0.17,-2.93 0.17,-6.37 0.17,-9.82 0.17,-3.61 0.17,-8.95 0.17,-16.01 0,-6.72 -1.03,-11.37 -3.1,-13.6 -2.07,-2.41 -6.2,-3.62 -12.4,-3.62 -0.52,0 -1.38,0.17 -2.58,0.34l0 -3.79 0.86 0c9.47,0.52 16.88,0.86 22.39,0.86 4.31,0 11.19,-0.34 20.49,-0.86l1.03 0 0 3.44z"/>
   <path class="fil0" d="M325.25 1350.79m352.79 0c-1.21,0 -2.82,0 -5.24,-0.4 -19.35,-1.21 -34.67,-1.61 -45.15,-1.61 -8.87,0 -23.79,0.4 -44.35,1.61 -3.63,0 -6.05,0.4 -8.06,0.4l0 -8.47c1.21,0 2.82,0 4.43,0 1.62,0.4 2.82,0.4 3.63,0.4 9.68,0 16.13,-2.02 20.16,-6.05 4.03,-3.63 6.05,-10.48 6.05,-20.16 0,-20.96 -0.81,-49.99 -2.42,-87.49 -1.21,-37.49 -3.22,-75.8 -5.64,-114.1l-2.01 6.05 -82.65 177.4c-4.44,9.68 -8.07,17.74 -10.48,25 -2.42,7.26 -4.03,14.92 -5.64,23.38l-10.08 0c-0.81,-4.43 -2.42,-8.87 -4.44,-14.11 -1.61,-5.64 -6.45,-16.13 -13.71,-32.26l-78.62 -175.39 -6.05 -12.1 -2.01 32.26c-2.01,27.01 -3.22,54.83 -4.44,83.86 -0.81,28.63 -1.61,56.04 -1.61,81.44 0,12.5 2.42,20.97 6.45,25.4 4.44,4.44 12.1,6.86 23.79,6.86 1.21,0 3.63,0 6.05,-0.4l0 8.47c-1.21,0 -3.63,-0.4 -6.45,-0.4 -18.55,-1.21 -31.85,-1.61 -39.92,-1.61 -7.66,0 -19.35,0.4 -35.48,1.21 -4.03,0.4 -6.85,0.81 -8.87,0.81l0 -8.47c2.82,0.4 4.84,0.4 6.05,0.4 6.45,0 11.69,-0.81 15.32,-2.82 3.63,-1.61 6.86,-4.84 8.87,-9.27 2.42,-4.84 4.84,-26.61 7.26,-65.72 0.4,-4.84 0.81,-8.47 0.81,-10.89l4.03 -60.48c0.4,-4.84 1.61,-20.16 3.23,-45.16 2.01,-25.4 2.82,-40.32 2.82,-45.56 0,-9.27 -2.01,-15.72 -6.45,-20.16 -4.03,-4.03 -10.48,-6.05 -19.75,-6.05 -1.21,0 -2.82,0 -4.03,0.4l0 -8.47c1.21,0 2.82,0 5.24,0.4 16.13,1.21 27.41,1.61 33.06,1.61 4.03,0 9.27,0 15.73,-0.4 6.45,-0.4 12.9,-1.21 19.35,-1.61 -0.4,1.61 -0.4,2.82 -0.4,3.63 -0.4,0.81 -0.4,1.61 -0.4,2.42 0,7.26 5.24,22.58 16.13,45.56 1.61,4.03 3.23,6.86 4.03,8.87l70.56 153.21 62.5 -133.05c14.51,-31.04 23.38,-49.99 26.21,-57.25 2.82,-7.26 4.03,-12.91 4.03,-17.34 0,-0.81 0,-1.62 0,-2.42 -0.4,-0.81 -0.4,-2.01 -0.81,-3.63 2.82,0.4 6.45,0.4 11.69,0.81 10.08,0.81 17.74,1.21 23.38,1.21 4.43,0 10.48,0 17.74,-0.81 7.66,-0.4 13.71,-0.81 18.55,-1.21l0 8.47c-1.21,-0.4 -2.82,-0.4 -4.03,-0.4 -10.89,0 -18.55,2.01 -22.58,6.05 -4.43,4.03 -6.45,10.89 -6.45,20.56 0,4.03 0.4,12.9 0.81,27.41 0.81,14.52 1.21,28.63 2.02,42.74l4.03 72.57c1.62,27.02 2.82,45.96 3.63,57.66 0.81,11.29 1.61,19.35 2.42,22.98 1.21,6.05 3.63,10.08 6.86,12.5 3.22,2.42 8.47,3.63 15.32,3.63l6.05 -0.4 0 8.47zm4.03 0m178.21 -122.97l-41.12 -124.99 -46.37 124.99c4.84,0.4 11.29,1.21 19.75,1.61 8.47,0.4 16.13,0.4 22.58,0.4 6.45,0 14.11,0 22.98,-0.4 8.87,-0.4 16.13,-1.21 22.18,-1.61zm106.04 122.97c-2.01,0 -5.64,-0.4 -10.48,-0.81 -18.14,-0.81 -31.45,-1.21 -39.92,-1.21 -10.48,0 -25,0.4 -43.54,1.21 -5.64,0.4 -10.08,0.81 -12.9,0.81l0 -8.47c1.21,0.4 2.82,0.4 4.03,0.4 8.87,0 15.32,-1.62 19.76,-4.44 4.44,-3.23 6.45,-7.66 6.45,-13.71 0,-5.24 -1.61,-13.31 -4.84,-24.19 -2.82,-10.89 -9.68,-29.84 -19.35,-56.44 -7.26,-0.4 -14.92,-0.81 -22.98,-0.81 -8.47,-0.41 -17.34,-0.41 -27.42,-0.41 -10.08,0 -18.95,0 -27.02,0.41 -8.06,0 -15.32,0.4 -21.37,0.81 -1.21,3.63 -3.23,8.87 -6.05,15.32 -13.31,35.48 -20.16,56.85 -20.16,65.32 0,6.05 2.42,10.48 6.45,13.71 4.44,2.82 11.29,4.44 19.76,4.44 1.21,0 2.82,0 4.03,-0.4l0 8.47c-8.06,-0.81 -15.72,-1.21 -23.38,-1.61 -7.66,-0.4 -14.51,-0.4 -20.96,-0.4 -6.05,0 -13.3,0 -20.97,0.4 -7.66,0.4 -15.32,0.81 -23.38,1.61l0 -8.47c1.21,0.4 2.82,0.4 4.03,0.4 6.05,0 11.69,-2.02 16.93,-6.05 5.24,-3.63 9.67,-9.27 13.3,-16.13 4.84,-9.68 14.52,-32.26 28.63,-68.14 14.11,-35.48 38.3,-97.57 72.17,-185.87l28.22 0c18.95,56.45 36.29,108.06 52.41,154.42 15.73,46.37 27.42,79.02 34.27,97.57 3.23,8.87 7.26,14.92 12.1,18.55 4.44,3.63 10.48,5.64 18.14,5.64 1.21,0 2.82,0 4.03,-0.4l0 8.47zm-30.24 0m178.21 -122.97l-41.12 -124.99 -46.37 124.99c4.84,0.4 11.29,1.21 19.75,1.61 8.47,0.4 16.13,0.4 22.58,0.4 6.45,0 14.11,0 22.98,-0.4 8.87,-0.4 16.13,-1.21 22.18,-1.61zm106.04 122.97c-2.01,0 -5.64,-0.4 -10.48,-0.81 -18.14,-0.81 -31.45,-1.21 -39.92,-1.21 -10.48,0 -25,0.4 -43.54,1.21 -5.64,0.4 -10.08,0.81 -12.9,0.81l0 -8.47c1.21,0.4 2.82,0.4 4.03,0.4 8.87,0 15.32,-1.62 19.76,-4.44 4.44,-3.23 6.45,-7.66 6.45,-13.71 0,-5.24 -1.61,-13.31 -4.84,-24.19 -2.82,-10.89 -9.68,-29.84 -19.35,-56.44 -7.26,-0.4 -14.92,-0.81 -22.98,-0.81 -8.47,-0.41 -17.34,-0.41 -27.42,-0.41 -10.08,0 -18.95,0 -27.02,0.41 -8.06,0 -15.32,0.4 -21.37,0.81 -1.21,3.63 -3.23,8.87 -6.05,15.32 -13.31,35.48 -20.16,56.85 -20.16,65.32 0,6.05 2.42,10.48 6.45,13.71 4.44,2.82 11.29,4.44 19.76,4.44 1.21,0 2.82,0 4.03,-0.4l0 8.47c-8.06,-0.81 -15.72,-1.21 -23.38,-1.61 -7.66,-0.4 -14.51,-0.4 -20.96,-0.4 -6.05,0 -13.3,0 -20.97,0.4 -7.66,0.4 -15.32,0.81 -23.38,1.61l0 -8.47c1.21,0.4 2.82,0.4 4.03,0.4 6.05,0 11.69,-2.02 16.93,-6.05 5.24,-3.63 9.67,-9.27 13.3,-16.13 4.84,-9.68 14.52,-32.26 28.63,-68.14 14.11,-35.48 38.3,-97.57 72.17,-185.87l28.22 0c18.95,56.45 36.29,108.06 52.41,154.42 15.73,46.37 27.42,79.02 34.27,97.57 3.23,8.87 7.26,14.92 12.1,18.55 4.44,3.63 10.48,5.64 18.14,5.64 1.21,0 2.82,0 4.03,-0.4l0 8.47z"/>
   <path class="fil0" d="M1226.18 1350.79m292.31 -273.76c-1.21,-0.4 -2.82,-0.4 -4.44,-0.4 -4.84,0 -8.87,0.81 -12.9,2.82 -4.03,1.62 -6.85,4.03 -8.87,7.26 -3.22,4.84 -5.24,17.34 -6.45,36.69 -0.81,19.75 -1.61,50 -1.61,90.31l0 80.64c0,10.89 0.4,22.18 1.21,33.47 0.81,10.89 1.62,19.35 2.82,25l-14.11 0c-0.81,-1.61 -2.42,-4.03 -4.84,-7.26 -2.42,-3.22 -5.24,-7.26 -9.27,-11.69l-181.43 -216.91 0 88.7c0,45.96 0.4,77.41 1.61,94.35 0.81,17.34 3.23,28.22 6.45,32.66 2.82,3.63 6.05,6.05 10.08,7.66 4.03,1.61 9.27,2.42 16.13,2.42 2.82,0 5.24,0 8.06,-0.4l0 8.47c-2.42,0 -6.05,-0.4 -11.29,-0.81 -17.34,-0.81 -29.84,-1.21 -37.09,-1.21 -6.05,0 -17.34,0.4 -34.27,1.21 -5.24,0.4 -9.27,0.81 -12.1,0.81l0 -8.47c0.81,0 1.61,0 2.42,0.4 1.21,0 2.42,0 4.03,0 4.84,0 8.87,-0.81 12.9,-2.82 3.63,-1.61 6.85,-4.03 8.87,-7.26 3.22,-4.84 5.24,-16.93 6.45,-36.69 1.21,-19.76 1.61,-50 1.61,-90.32l0 -76.61c0,-19.75 -2.01,-33.47 -6.05,-41.12 -4.44,-7.66 -12.1,-11.29 -24.19,-11.29 -1.21,0 -3.23,0 -6.05,0.4l0 -8.47c0.4,0 1.21,0 2.01,0 15.32,1.21 27.02,2.01 34.67,2.01 3.63,0 8.47,0 14.11,-0.4 5.64,-0.4 11.69,-1.21 17.74,-1.61 2.01,5.24 4.83,10.48 8.47,15.72 3.63,5.64 8.87,12.5 15.73,20.56l149.18 179.42 0 -70.56c0,-44.75 -0.4,-75.8 -0.81,-93.94 -0.81,-18.14 -2.42,-29.03 -5.24,-33.06 -2.42,-3.63 -5.64,-6.45 -9.67,-8.07 -4.03,-1.21 -9.68,-2.01 -16.53,-2.01l-4.03 0.4 0 -8.47c11.69,0.81 20.56,1.21 27.02,1.61 6.05,0.4 11.29,0.4 15.32,0.4 4.44,0 10.48,0 18.55,-0.4 7.66,-0.4 16.12,-1.21 25.8,-1.61l0 8.47zm2.01 273.76m258.04 -274.17l-6.05 0c-7.66,0 -14.51,2.42 -20.16,7.66 -5.24,5.24 -14.11,17.34 -26.21,36.69l-64.51 102.81 0 54.43c0,27.82 2.02,45.56 6.05,53.22 4.03,7.26 12.91,11.29 26.21,11.29 1.61,0 3.23,0 4.03,0 1.21,-0.4 2.82,-0.4 4.03,-0.4l0 8.47c-15.72,-0.81 -27.82,-1.21 -36.29,-1.61 -8.47,-0.4 -15.73,-0.4 -22.18,-0.4 -6.05,0 -13.3,0 -22.17,0.4 -8.47,0.4 -20.56,0.81 -36.29,1.61l0 -8.47c1.21,0 2.82,0 3.63,0.4 1.21,0 2.82,0 4.44,0 13.3,0 22.17,-4.03 26.21,-11.29 4.03,-7.66 6.05,-25.4 6.05,-53.22l0 -52.41 -62.5 -108.86 -2.82 -5.24c-13.3,-23.38 -24.59,-35.08 -33.47,-35.08 -1.61,0 -2.82,0 -3.63,0 -0.81,0 -1.62,0 -2.42,0.4l0 -8.47c2.42,0 6.45,0.4 12.1,0.81 16.13,0.81 28.22,1.21 36.29,1.21 7.26,0 15.32,0 23.79,-0.4 8.47,-0.4 18.14,-0.81 28.63,-1.61l0 8.47c-2.42,-0.4 -4.84,-0.4 -6.05,-0.4 -7.26,0 -12.9,0.81 -16.53,3.23 -3.63,2.01 -5.64,4.83 -5.64,8.87 0,3.63 0.81,7.26 2.82,11.69 1.61,4.44 4.84,10.89 9.27,18.55l49.19 86.69 3.23 -5.24c23.38,-37.49 39.92,-65.32 50.4,-83.46 4.03,-6.85 6.45,-12.1 8.07,-16.13 1.21,-4.03 2.01,-8.06 2.01,-12.1 0,-4.03 -1.61,-6.85 -4.44,-8.87 -3.22,-2.42 -7.66,-3.23 -13.71,-3.23 -1.21,0 -3.23,0 -6.05,0.4l0 -8.47c1.61,0 4.44,0.4 8.47,0.4 16.53,1.21 29.03,1.61 37.9,1.61 6.45,0 16.93,-0.4 31.04,-1.61 3.23,0 5.64,-0.4 7.26,-0.4l0 8.06z"/>
   <path class="fil0" d="M1726.59 1350.79m178.21 -122.97l-41.12 -124.99 -46.37 124.99c4.84,0.4 11.29,1.21 19.75,1.61 8.47,0.4 16.13,0.4 22.58,0.4 6.45,0 14.11,0 22.98,-0.4 8.87,-0.4 16.13,-1.21 22.18,-1.61zm106.04 122.97c-2.01,0 -5.64,-0.4 -10.48,-0.81 -18.14,-0.81 -31.45,-1.21 -39.92,-1.21 -10.48,0 -25,0.4 -43.54,1.21 -5.64,0.4 -10.08,0.81 -12.9,0.81l0 -8.47c1.21,0.4 2.82,0.4 4.03,0.4 8.87,0 15.32,-1.62 19.76,-4.44 4.44,-3.23 6.45,-7.66 6.45,-13.71 0,-5.24 -1.61,-13.31 -4.84,-24.19 -2.82,-10.89 -9.68,-29.84 -19.35,-56.44 -7.26,-0.4 -14.92,-0.81 -22.98,-0.81 -8.47,-0.41 -17.34,-0.41 -27.42,-0.41 -10.08,0 -18.95,0 -27.02,0.41 -8.06,0 -15.32,0.4 -21.37,0.81 -1.21,3.63 -3.23,8.87 -6.05,15.32 -13.31,35.48 -20.16,56.85 -20.16,65.32 0,6.05 2.42,10.48 6.45,13.71 4.44,2.82 11.29,4.44 19.76,4.44 1.21,0 2.82,0 4.03,-0.4l0 8.47c-8.06,-0.81 -15.72,-1.21 -23.38,-1.61 -7.66,-0.4 -14.51,-0.4 -20.96,-0.4 -6.05,0 -13.3,0 -20.97,0.4 -7.66,0.4 -15.32,0.81 -23.38,1.61l0 -8.47c1.21,0.4 2.82,0.4 4.03,0.4 6.05,0 11.69,-2.02 16.93,-6.05 5.24,-3.63 9.67,-9.27 13.3,-16.13 4.84,-9.68 14.52,-32.26 28.63,-68.14 14.11,-35.48 38.3,-97.57 72.17,-185.87l28.22 0c18.95,56.45 36.29,108.06 52.41,154.42 15.73,46.37 27.42,79.02 34.27,97.57 3.23,8.87 7.26,14.92 12.1,18.55 4.44,3.63 10.48,5.64 18.14,5.64 1.21,0 2.82,0 4.03,-0.4l0 8.47z"/>
   <path class="fil0" d="M2137.77 1350.79m211.67 -59.67c-4.44,13.71 -7.66,25.4 -10.08,34.27 -2.42,9.27 -4.43,17.74 -6.05,25.4 -5.24,0 -12.9,-0.4 -22.98,-0.81 -29.03,-0.81 -51.6,-1.21 -67.73,-1.21 -22.98,0 -56.45,0.81 -100.8,1.61l-4.03 0.4 0 -8.47c0.81,0 1.61,0 2.82,0.4 1.21,0 3.23,0 5.24,0 11.69,0 19.35,-4.03 22.98,-11.69 3.63,-8.07 5.24,-25.81 5.24,-52.82l0 -145.15c0,-24.19 -1.61,-39.51 -4.84,-46.37 -3.63,-6.85 -11.29,-10.08 -23.38,-10.08 -1.61,0 -2.82,0 -3.63,0 -0.81,0 -1.62,0 -2.42,0.4l0 -8.47c2.01,0 5.24,0.4 9.68,0.4 18.55,1.21 33.06,1.61 42.74,1.61 10.89,0 28.22,-0.4 52.01,-1.61 2.01,-0.4 3.23,-0.4 4.44,-0.4l0 8.47c-1.21,-0.4 -2.82,-0.4 -4.03,-0.4 -14.51,0 -23.79,3.63 -27.42,10.89 -4.03,7.66 -6.05,22.58 -6.05,45.56 0,50.8 0.4,90.71 0.81,119.34 0.41,28.63 0.81,54.84 1.62,78.22 9.27,1.21 17.74,2.01 25.8,2.42 8.07,0.4 16.13,0.81 23.38,0.81 21.77,0 37.9,-2.42 48.39,-7.66 10.88,-4.84 20.96,-17.74 30.24,-37.9l8.06 2.82zm10.08 59.67m237.88 -133.05c0,-41.93 -9.27,-75.8 -27.82,-101.2 -18.55,-25 -43.14,-37.9 -72.98,-37.9 -27.02,0 -49.19,11.29 -66.52,33.87 -17.34,22.58 -26.21,52.01 -26.21,89.1 0,41.93 9.27,75.4 27.82,100.4 18.55,25 43.14,37.49 72.97,37.49 27.02,0 49.19,-11.29 66.93,-33.47 17.34,-22.17 25.8,-51.61 25.8,-88.3zm44.35 -8.06c0,40.32 -13.71,74.59 -41.12,102.81 -27.42,28.22 -60.48,42.34 -99.99,42.34 -41.53,0 -75.4,-13.71 -101.61,-41.12 -26.61,-27.42 -39.51,-62.09 -39.51,-104.02 0,-39.92 13.71,-74.19 41.53,-102.41 27.82,-28.63 60.88,-42.74 99.59,-42.74 41.12,0 74.99,13.71 101.2,41.12 26.61,27.42 39.92,62.09 39.92,104.02zm20.16 141.11m243.93 -223.77l-8.07 2.01c-5.24,-18.14 -11.29,-29.84 -18.14,-34.67 -6.85,-5.24 -18.95,-7.66 -36.29,-7.66l-39.51 0c-0.4,20.16 -0.81,35.48 -0.81,46.37l0 145.15c0,27.82 2.02,45.56 6.05,53.22 4.03,7.26 12.9,11.29 26.21,11.29 1.61,0 3.22,0 4.44,0 0.81,-0.4 2.42,-0.4 3.63,-0.4l0 8.47c-15.32,-0.81 -27.42,-1.21 -36.29,-1.61 -8.47,-0.4 -15.73,-0.4 -22.18,-0.4 -6.05,0 -13.71,0 -22.18,0.4 -8.47,0.4 -20.56,0.81 -36.29,1.61l0 -8.47c1.21,0 2.82,0 4.03,0.4 0.81,0 2.42,0 4.03,0 13.31,0 22.18,-4.03 26.21,-11.29 4.03,-7.66 6.05,-25.4 6.05,-53.22l0 -145.15c0,-10.89 -0.4,-26.21 -0.81,-46.37l-37.5 0c-17.34,0 -30.24,2.82 -38.3,8.47 -8.07,6.05 -14.92,16.93 -20.16,33.87l-8.06 -2.01c2.82,-10.89 4.84,-20.56 6.05,-29.84 1.61,-8.87 2.01,-19.35 2.01,-30.64 6.86,2.82 14.92,4.44 24.19,5.24 9.27,0.4 24.19,0.81 44.35,0.81l88.7 0c20.97,0 36.69,-0.4 47.17,-1.21 10.48,-0.81 20.16,-2.42 28.63,-4.84 -0.81,4.03 -1.21,10.08 -1.21,18.14 0,6.05 0.4,12.5 0.81,19.36 0.81,6.45 2.02,14.11 3.23,22.98zm22.17 223.77m282.23 -273.76c-1.21,-0.4 -2.42,-0.4 -4.03,-0.4 -6.05,0 -11.29,0.81 -15.32,2.82 -3.63,2.02 -6.86,5.24 -8.87,9.27 -1.61,3.63 -2.82,10.89 -3.63,22.18 -0.81,11.69 -1.21,29.84 -1.21,54.43l0 76.61c0,37.1 -8.87,65.32 -26.61,85.07 -18.14,19.75 -43.55,29.84 -77.41,29.84 -36.69,0 -65.32,-10.48 -85.07,-31.04 -19.76,-20.97 -29.84,-50 -29.84,-87.89 0,-10.89 0.4,-27.82 0.81,-50.4 0.4,-22.18 0.4,-38.71 0.4,-48.38 0,-26.61 -1.61,-43.55 -5.24,-51.21 -3.63,-7.66 -11.29,-11.29 -22.18,-11.29 -1.21,0 -2.82,0 -4.03,0.4l0 -8.47c4.44,0.4 12.5,0.4 24.6,1.21 12.5,0.4 20.96,0.81 25.8,0.81 6.85,0 18.95,-0.4 36.29,-1.21 8.07,-0.4 14.11,-0.4 18.14,-0.81l0 8.47c-1.21,-0.4 -2.82,-0.4 -4.03,-0.4 -12.5,0 -20.56,3.23 -24.19,9.27 -4.03,6.45 -6.05,19.35 -6.05,39.11l0 116.92c0,29.84 7.26,53.22 21.37,69.75 14.11,16.53 33.06,25 57.25,25 28.63,0 49.59,-8.47 62.9,-24.6 13.3,-16.53 19.75,-42.74 19.75,-78.22 0,-43.95 -0.4,-77.01 -1.21,-99.59 -1.21,-22.18 -2.82,-36.29 -4.84,-41.53 -2.82,-6.45 -5.64,-10.89 -9.67,-12.9 -3.63,-2.42 -9.27,-3.23 -16.53,-3.23 -1.62,0 -2.82,0 -3.63,0 -0.81,0 -1.61,0 -2.42,0.4l0 -8.47c4.84,0 12.1,0.4 22.98,1.21 10.48,0.4 18.95,0.81 25.4,0.81 6.45,0 13.3,0 20.56,-0.4 7.26,-0.4 13.71,-1.21 19.75,-1.61l0 8.47zm38.3 273.76m187.48 -82.65c0,24.59 -10.08,45.56 -30.64,61.69 -20.56,16.53 -46.77,25 -78.22,25 -10.48,0 -21.37,-1.21 -33.06,-3.23 -11.69,-2.42 -24.6,-6.05 -39.51,-10.89l0 -5.64c0,-10.08 -0.81,-20.96 -1.61,-33.46 -1.21,-12.91 -2.82,-21.77 -4.44,-27.42l10.89 -2.82c4.03,23.79 12.1,41.12 24.19,52.01 12.1,10.89 29.43,16.13 51.61,16.13 19.35,0 35.08,-5.64 47.58,-16.53 12.5,-11.29 18.95,-24.59 18.95,-40.72 0,-13.3 -4.84,-24.59 -14.11,-33.87 -9.68,-9.27 -25,-17.34 -46.37,-24.59l-12.1 -4.03c-26.21,-8.87 -44.35,-18.95 -54.84,-30.65 -10.48,-12.1 -15.72,-27.41 -15.72,-45.96 0,-22.17 9.27,-40.72 27.82,-56.04 18.95,-14.92 41.93,-22.58 68.95,-22.58 9.68,0 20.16,0.81 31.85,2.82 11.29,1.62 22.17,4.03 32.66,7.26 0,8.06 0.4,16.12 1.21,23.79 0.81,7.66 2.42,16.93 4.84,28.63l-9.27 2.82c-4.84,-17.74 -12.5,-31.04 -22.98,-39.11 -10.48,-8.06 -25.4,-12.1 -44.35,-12.1 -17.74,0 -32.25,4.44 -42.74,13.71 -10.48,9.27 -15.73,21.37 -15.73,36.69 0,12.1 4.44,22.58 13.3,31.04 8.87,8.47 23.79,16.13 45.16,23.38l12.1 4.03c27.82,9.27 47.17,20.16 58.06,32.66 10.89,12.5 16.53,28.22 16.53,47.98z"/>
   <path class="fil1" d="M2540.56 251.17l0 -37.05c-83.31,0 -170.84,29.71 -226.52,57.59 -74.65,37.4 -143.98,93.16 -196.3,157.8 -33.45,41.35 -60.03,81.73 -81.27,132.86 -8.14,19.6 -13.17,27.29 -20.46,49.53 -6.04,18.4 -11.38,35.93 -15.29,54.73 -4.7,22.55 -17.68,106.34 -16.69,128.45 1.41,32.01 19.12,19.17 45.96,16.12 38.2,-4.32 77.97,-14.37 113.74,-26.28 221.48,-73.73 396.84,-300.04 396.84,-533.75zm-1350.85 -0.5l0 -37.05c83.29,0 170.83,29.71 226.5,57.59 74.65,37.4 143.99,93.16 196.31,157.8 33.46,41.35 60.05,81.73 81.27,132.84 8.14,19.61 13.17,27.3 20.46,49.54 6.03,18.4 11.38,35.93 15.3,54.73 4.68,22.55 17.67,106.33 16.7,128.47 -1.42,32 -19.13,19.16 -45.96,16.12 -38.2,-4.33 -77.98,-14.38 -113.75,-26.3 -221.49,-73.72 -396.82,-300.04 -396.82,-533.75zm259.68 0.5c32.9,7.66 139.99,98.37 169.44,135.27 9.16,11.46 13.94,15.82 22.91,26.49 10.98,13.06 10.16,23.45 25.89,27.65 0,-174.79 41.18,-257.61 41.18,-275.88 0,-5.81 -37.55,-43.74 -44.27,-50.44 -28.5,-28.48 -131.29,-90.91 -169.84,-114.25 -25.11,107.79 -45.3,129.05 -45.3,251.17zm449.76 -222.69l-24.53 -27.77c-62.44,55.12 -108.42,135.33 -131.7,193.08 -31.21,77.44 -46.31,165.13 -42.72,248.23 2.28,53.13 9.07,101 26.99,153.37 6.86,20.08 8.18,29.18 17.43,50.68 7.65,17.78 15.23,34.46 24.75,51.13 11.41,20.02 57.12,91.43 72.5,107.37 22.24,23.05 27.02,1.71 45.12,-18.34 25.77,-28.53 48.94,-62.38 67.88,-94.99 117.25,-201.85 98.92,-487.55 -55.73,-662.76zm386.16 222.69c-32.88,7.66 -139.98,98.37 -169.44,135.27 -9.14,11.46 -13.94,15.82 -22.91,26.49 -10.97,13.06 -10.16,23.45 -25.89,27.65 0,-174.79 -41.16,-257.61 -41.16,-275.88 0,-5.81 37.55,-43.74 44.26,-50.44 28.5,-28.48 131.31,-90.91 169.86,-114.25 25.1,107.79 45.29,129.05 45.29,251.17z"/>
   <path class="fil2" d="M2285.27 938.81c-103.86,0 -206.55,-18.81 -297.02,-48.87 -30.73,-10.2 -72.12,-32.34 -85.93,-33.49 20.37,30.42 120.11,69.26 164.17,82.89 219.69,67.96 464.45,11.93 681.68,-27.62l101.77 -17.63c213.28,-35.34 463.79,-64.99 676.25,2.01 13.43,4.24 14.63,5.95 27.33,9.74 75.61,22.54 166.74,79.97 177.02,82.37 -3.92,-14.65 -31.29,-30.45 -43.56,-38.78 -122.84,-83.36 -280.93,-142.39 -438.19,-142.39 -184.17,0 -159.61,1.51 -321.83,24.05 -191.6,26.63 -449.43,107.72 -641.69,107.72l0 0z"/>
   <path class="fil3" d="M1445.28 938.8c103.86,0 206.55,-18.81 297.02,-48.86 30.73,-10.2 72.12,-32.34 85.93,-33.49 -20.37,30.42 -120.11,69.26 -164.17,82.89 -219.69,67.96 -464.45,11.93 -681.68,-27.62l-101.77 -17.63c-213.28,-35.34 -463.79,-64.99 -676.25,1.99 -13.43,4.25 -14.64,5.96 -27.33,9.74 -75.61,22.55 -166.74,79.99 -177.02,82.38 3.92,-14.65 31.29,-30.45 43.56,-38.79 122.84,-83.35 280.93,-142.38 438.19,-142.38 184.16,0 159.61,1.51 321.83,24.05 191.6,26.63 449.42,107.7 641.69,107.7l0 0z"/>
   <path class="fil4" d="M1609.98 827.4l0 -12.34c-30.76,-2.56 -65.93,-19.16 -91.11,-28.3 -72.48,-26.3 -157.98,-77.86 -214.63,-131.26 -6.45,-6.08 -10.09,-8.38 -15.4,-13.41 -7.53,-7.15 -6.59,-7.25 -13.6,-15.23 -28.2,-32.08 -26.21,-34.04 -125.96,-4.86 -86.11,25.19 -140.8,64.11 -161.06,69.52 2.24,26.91 65.83,55.63 86.46,65.9 103.23,51.34 236.97,82.34 362.36,82.34 83.4,0 151.17,-12.36 172.94,-12.36z"/>
   <path class="fil5" d="M2120.55 815.28l0 12.36c21.77,0 89.55,12.35 172.95,12.35 125.37,0 259.11,-31 362.34,-82.34 20.65,-10.27 84.24,-38.99 86.47,-65.88 -20.25,-5.41 -74.96,-44.33 -161.06,-69.52 -99.74,-29.18 -97.74,-27.23 -125.95,4.85 -7.01,8 -6.08,8.09 -13.6,15.23 -5.32,5.03 -8.94,7.33 -15.41,13.42 -56.65,53.39 -142.15,104.94 -214.62,131.24 -25.19,9.14 -60.35,25.75 -91.12,28.3l0 0z"/>
  </g>
 </g>
</svg>
