<?xml version="1.0" encoding="UTF-8"?>
<!DOCTYPE svg PUBLIC "-//W3C//DTD SVG 1.1//EN" "http://www.w3.org/Graphics/SVG/1.1/DTD/svg11.dtd">
<!-- Creator: CorelDRAW 2020 (64-Bit) -->
<svg xmlns="http://www.w3.org/2000/svg" xml:space="preserve" width="3.7929in" height="1.41228in" version="1.1" style="shape-rendering:geometricPrecision; text-rendering:geometricPrecision; image-rendering:optimizeQuality; fill-rule:evenodd; clip-rule:evenodd"
viewBox="0 0 3792.9 1412.27"
 xmlns:xlink="http://www.w3.org/1999/xlink"
 xmlns:xodm="http://www.corel.com/coreldraw/odm/2003">
 <defs>
  <style type="text/css">
   <![CDATA[
    .fil0 {fill:#EC9432}
    .fil1 {fill:#F09E49}
    .fil2 {fill:#201F1F;fill-rule:nonzero}
   ]]>
  </style>
 </defs>
 <g id="Layer_x0020_1">
  <metadata id="CorelCorpID_0Corel-Layer"/>
  <g id="_1800514869680">
   <path class="fil0" d="M394.41 851.89c-2.61,-2.48 -6.66,-10.19 -7.84,-7.43 -0.13,0.31 -143.86,-88.51 -221.35,-270.81 -21.49,-50.56 -28.8,-94.8 -48.36,-139.66 107.74,27.61 6.2,22.46 215.07,52.67 221,31.96 126.64,35.78 208.56,59.84 -84.76,-139.27 -256.43,-96.41 -365.86,-127.85 -53.71,-15.43 -83.08,-36.73 -130.8,-48.96 9.8,129.63 120.25,331.15 208.45,413.57 54.68,51.09 80.74,67.13 142.13,68.63z"/>
   <path class="fil0" d="M-0 1318.03c77.22,0 91.89,12.72 147.11,16.15 75.15,4.67 317.7,-28.31 378.76,-128.67 -61.23,15.7 -66.44,38.38 -139.52,55.43 -212.22,49.53 -199.22,10.94 -284.1,8.87 52.77,-79.25 27.96,24.06 136.21,-203.75 15.68,-33 42.58,-82.54 64.26,-106.09 42.55,-46.22 58.15,-29.88 106.29,-75.93 -57.45,1.41 -101.76,24.91 -140.58,54.28 -59.41,44.94 -112.92,184.82 -165.74,267.68 -38.21,59.93 -73.33,67.93 -102.7,112.03z"/>
   <path class="fil1" d="M569.7 433.99l29.22 144.66c0,-208.05 36,-324.38 160.68,-482.21 25.51,120.52 40.71,139.27 93.77,234.37 45.1,80.84 83.74,174.41 37.7,279.98 46.17,-20.5 15.31,36.17 36.96,-55.77 53.05,-225.36 -135.11,-307.72 -153.81,-555.02 -63.13,50.89 -204.5,309.79 -204.5,433.99z"/>
   <path class="fil0" d="M993.31 514.35c158.31,-40.57 165.67,-80.36 409.01,-80.36 -65.67,107.92 -33.4,-11.52 -145.98,241.19 -20.41,45.82 -31.85,84 -69.93,115.94 -49.26,41.33 -87.76,28.33 -120.07,76.84 241.42,-5.91 261.81,-299.14 354.05,-398.04 34.71,-37.2 41.37,-26.75 54.98,-68.1 -103.59,0 -195.88,-5.13 -279.31,14.14 -75.7,17.48 -165.33,42.2 -202.75,98.37z"/>
   <path class="fil2" d="M686.39 1165.07m0 0l0 -313.7 107.51 0c19.11,0 33.44,0.87 43.4,3.07 13.94,2.63 25.88,7.44 35.44,14.46 9.16,7.45 16.72,17.53 22.7,30.23 5.57,13.14 8.76,27.6 8.76,42.94 0,26.72 -7.96,49.51 -23.1,67.91 -15.53,18.41 -43.4,27.61 -83.62,27.61l-73.26 0 0 127.5 -37.83 0zm37.83 -164.74l73.66 0c24.29,0 41.81,-4.82 51.77,-14.89 10.35,-10.08 15.53,-24.1 15.53,-42.06 0,-13.15 -3.19,-24.54 -9.16,-33.74 -5.97,-9.2 -13.94,-15.34 -23.89,-18.41 -5.97,-1.75 -17.92,-2.63 -35.04,-2.63l-72.87 0 0 111.72z"/>
   <path class="fil2" d="M920.71 1165.07m0 0l73.26 -209.13 27.07 0 77.78 209.13 -28.67 0 -22.3 -63.38 -79.37 0 -20.97 63.38 -26.81 0zm54.95 -85.87l64.5 0 -19.91 -57.83c-6.11,-17.52 -10.62,-32.13 -13.54,-43.52 -2.39,13.44 -5.84,26.87 -10.08,40.02l-20.97 61.34zm143.61 85.87m0 0l0 -209.13 84.15 0c16.98,0 29.73,2.04 38.75,5.55 8.76,3.8 15.66,10.52 20.97,19.86 5.31,9.64 7.96,20.15 7.96,31.55 0,14.89 -4.51,27.46 -13,37.68 -8.76,10.22 -22.3,16.65 -40.62,19.28 6.64,3.5 11.68,7.01 15.13,10.52 7.43,7.3 14.33,16.65 20.97,27.75l33.19 56.95 -31.86 0 -24.95 -43.52c-7.43,-12.56 -13.54,-22.2 -18.32,-28.92 -4.78,-6.42 -9.02,-11.1 -12.74,-13.73 -3.72,-2.92 -7.43,-4.67 -11.41,-5.84 -2.92,-0.59 -7.43,-0.88 -14.07,-0.88l-29.2 0 0 92.88 -24.95 0zm24.95 -116.83l54.15 0c11.41,0 20.44,-1.17 27.07,-3.8 6.37,-2.63 11.42,-7.01 14.6,-12.56 3.45,-5.84 5.04,-11.98 5.04,-18.98 0,-9.64 -3.19,-17.82 -9.82,-24.24 -6.37,-6.43 -16.72,-9.64 -30.79,-9.64l-60.26 0 0 69.22zm170.42 116.83m0 0l0 -209.13 25.22 0 0 209.13 -25.22 0zm56.54 0m0.26 -59.29l22.56 -3.5c0.8,16.06 3.45,26.87 8.23,32.71 4.78,6.13 11.68,9.06 20.18,9.06 6.37,0 11.68,-1.75 16.19,-4.96 4.78,-3.22 7.7,-7.3 9.56,-12.85 1.59,-5.56 2.65,-14.31 2.65,-26.29l0 -144 24.95 0 0 142.54c0,17.53 -1.86,30.96 -5.57,40.6 -3.98,9.64 -10.09,16.94 -18.32,21.91 -8.49,5.26 -18.05,7.59 -29.46,7.59 -16.72,0 -29.46,-5.26 -38.22,-15.78 -8.76,-10.51 -13.01,-26.29 -12.74,-47.02zm124.5 59.29m0 0l73.26 -209.13 27.07 0 77.78 209.13 -28.67 0 -22.3 -63.38 -79.37 0 -20.97 63.38 -26.81 0zm54.95 -85.87l64.5 0 -19.91 -57.83c-6.11,-17.52 -10.62,-32.13 -13.54,-43.52 -2.39,13.44 -5.84,26.87 -10.09,40.02l-20.97 61.34z"/>
   <path class="fil2" d="M1660.07 1165.07m62.38 0l0 -184.3 -62.38 0 0 -24.83 150.51 0 0 24.83 -62.91 0 0 184.3 -25.22 0zm114.67 0m0 0l0 -209.13 25.22 0 0 85.87 98.74 0 0 -85.87 25.22 0 0 209.13 -25.22 0 0 -98.43 -98.74 0 0 98.43 -25.22 0zm169.88 0m0 0l73.26 -209.13 27.08 0 77.78 209.13 -28.67 0 -22.3 -63.38 -79.37 0 -20.97 63.38 -26.81 0zm54.95 -85.87l64.5 0 -19.91 -57.83c-6.11,-17.52 -10.62,-32.13 -13.54,-43.52 -2.39,13.44 -5.84,26.87 -10.09,40.02l-20.97 61.34z"/>
   <path class="fil2" d="M2324.71 1165.07m0 0l0 -313.7 56.94 0 67.3 222.13c6.37,20.59 10.75,35.93 13.54,46.44 3.59,-11.39 8.36,-28.04 15.53,-50.39l68.09 -218.19 50.57 0 0 313.7 -36.24 0 0 -262.44 -82.82 262.44 -33.84 0 -82.43 -266.83 0 266.83 -36.63 0z"/>
   <path class="fil2" d="M2647.76 1165.07m0 0l0 -209.13 137.5 0 0 24.83 -112.28 0 0 63.96 105.11 0 0 24.54 -105.11 0 0 70.98 116.53 0 0 24.82 -141.75 0zm155.55 0m0 0l73.26 -209.13 27.07 0 77.78 209.13 -28.67 0 -22.3 -63.38 -79.37 0 -20.97 63.38 -26.81 0zm54.94 -85.87l64.5 0 -19.91 -57.83c-6.1,-17.52 -10.62,-32.13 -13.54,-43.52 -2.39,13.44 -5.84,26.87 -10.09,40.02l-20.97 61.34zm143.08 85.87m0 0l0 -209.13 65.56 0c14.6,0 26.02,1.17 33.71,2.92 10.88,2.92 20.17,7.89 27.87,15.19 10.09,9.05 17.52,21.03 22.56,35.63 5.05,14.61 7.44,30.96 7.44,49.66 0,15.77 -1.59,30.08 -5.05,42.35 -3.45,12.27 -7.7,22.2 -13.01,30.38 -5.31,7.89 -10.88,14.31 -17.25,18.98 -6.37,4.67 -13.8,8.18 -22.56,10.52 -9.02,2.33 -19.11,3.5 -30.53,3.5l-68.75 0zm25.22 -24.82l40.61 0c12.48,0 22.3,-1.17 29.46,-3.8 7.17,-2.63 12.74,-6.13 16.99,-10.81 6.11,-6.43 10.62,-15.48 14.07,-26.29 3.18,-11.1 4.78,-24.54 4.78,-40.31 0,-21.91 -3.19,-38.85 -9.56,-50.53 -6.63,-11.69 -14.6,-19.57 -23.89,-23.66 -6.91,-2.92 -17.52,-4.09 -32.65,-4.09l-39.81 0 0 159.48zm158.74 24.82m0 -101.93c0,-34.76 8.5,-61.93 25.48,-81.5 16.99,-19.57 38.76,-29.5 65.57,-29.5 17.52,0 33.44,4.67 47.52,14.02 14.07,9.06 24.69,21.91 32.12,38.56 7.43,16.36 11.15,35.05 11.15,56.08 0,21.32 -3.98,40.31 -11.68,56.96 -7.7,16.65 -18.85,29.2 -32.92,37.97 -14.33,8.47 -29.73,12.85 -46.18,12.85 -18.05,0 -33.98,-4.68 -48.04,-14.31 -14.07,-9.35 -24.69,-22.49 -32.12,-38.85 -7.17,-16.35 -10.88,-33.88 -10.88,-52.28zm26.01 0.58c0,25.12 6.11,44.98 18.58,59.59 12.21,14.31 27.61,21.61 46.18,21.61 18.85,0 34.51,-7.3 46.72,-21.91 12.21,-14.6 18.32,-35.34 18.32,-62.51 0,-16.94 -2.39,-31.83 -7.7,-44.39 -5.31,-12.85 -13.01,-22.49 -23.09,-29.5 -10.09,-7.01 -21.24,-10.51 -33.71,-10.51 -17.79,0 -33.18,6.72 -45.92,20.15 -13.01,13.43 -19.38,35.93 -19.38,67.47zm170.95 101.35m50.44 0l-50.44 -209.13 25.75 0 28.94 136.99c3.19,14.6 5.84,28.62 8.23,42.93 4.78,-22.49 7.7,-35.34 8.49,-38.85l36.1 -141.07 30.26 0 27.34 105.73c6.9,26.29 11.68,51.11 14.87,74.19 2.39,-13.14 5.57,-28.33 9.29,-45.56l29.73 -134.36 25.48 0 -52.29 209.13 -24.16 0 -40.08 -159.18c-3.19,-13.44 -5.31,-21.61 -5.84,-24.54 -2.12,9.35 -3.98,17.53 -5.57,24.54l-40.35 159.18 -25.75 0zm208.91 0m0 -67.18l23.63 -2.34c1.33,10.52 3.72,18.99 7.96,25.7 3.98,6.72 10.35,12.27 19.11,16.36 8.5,4.09 18.31,6.13 29.2,6.13 9.56,0 18.05,-1.46 25.22,-4.67 7.43,-3.22 13.01,-7.3 16.46,-12.85 3.72,-5.56 5.57,-11.39 5.57,-17.82 0,-6.72 -1.86,-12.27 -5.31,-17.23 -3.45,-4.96 -9.29,-9.06 -16.99,-12.27 -5.31,-2.33 -16.46,-5.84 -33.98,-10.22 -17.52,-4.67 -29.73,-9.06 -36.63,-13.15 -9.03,-5.26 -15.93,-11.68 -20.44,-19.57 -4.24,-7.59 -6.63,-16.36 -6.63,-26 0,-10.52 2.92,-20.45 8.23,-29.5 5.57,-9.34 13.54,-16.06 23.89,-21.03 10.35,-4.67 22.03,-7.01 34.77,-7.01 14.07,0 26.55,2.34 37.43,7.6 10.62,4.96 18.85,12.26 24.69,21.91 5.84,9.64 9.03,20.74 9.29,33l-23.89 2.05c-1.33,-13.44 -5.84,-23.37 -13.27,-30.09 -7.43,-6.72 -18.58,-10.22 -33.18,-10.22 -15.13,0 -26.28,3.22 -33.18,9.35 -6.9,6.13 -10.35,13.44 -10.35,22.2 0,7.59 2.39,13.73 7.17,18.4 5.04,4.97 17.52,9.93 37.96,14.9 20.44,5.26 34.5,9.64 42.2,13.44 10.89,5.55 19.11,12.56 24.42,21.32 5.31,8.47 7.96,18.4 7.96,29.79 0,11.1 -2.92,21.61 -8.76,31.26 -5.84,9.93 -14.07,17.52 -24.95,23.07 -10.89,5.55 -23.09,8.18 -36.63,8.18 -17.25,0 -31.59,-2.63 -43.27,-8.18 -11.41,-5.55 -20.7,-14.02 -27.34,-24.83 -6.63,-11.1 -10.09,-23.66 -10.35,-37.68z"/>
   <path class="fil2" d="M695.15 1382.6m36.32 0l0 -88.76 -36.32 0 0 -11.96 87.65 0 0 11.96 -36.63 0 0 88.76 -14.69 0zm64.62 0m0 0l0 -100.72 13.61 0 0 36.15c6.33,-6.75 14.37,-9.98 23.96,-9.98 6.03,0 11.13,0.98 15.46,3.09 4.48,2.25 7.57,5.06 9.43,8.86 1.86,3.8 2.78,9.14 2.78,16.31l0 46.28 -13.6 0 0 -46.28c0,-6.19 -1.39,-10.69 -4.33,-13.5 -2.94,-2.81 -7.11,-4.22 -12.52,-4.22 -4.02,0 -7.73,0.98 -11.29,2.96 -3.56,1.83 -6.19,4.36 -7.57,7.74 -1.55,3.24 -2.31,7.74 -2.31,13.36l0 39.95 -13.61 0zm81.46 0m59.36 -23.49l14.07 1.55c-2.32,7.45 -6.34,13.22 -12.37,17.44 -6.03,4.08 -13.6,6.19 -22.88,6.19 -11.75,0 -21.02,-3.37 -27.98,-9.85 -6.8,-6.61 -10.2,-15.9 -10.2,-27.71 0,-12.24 3.4,-21.81 10.36,-28.56 6.95,-6.75 15.92,-10.13 27.05,-10.13 10.67,0 19.48,3.24 26.28,9.85 6.8,6.75 10.2,16.04 10.2,28.13 0,0.7 0,1.83 -0.15,3.23l-59.67 0c0.46,8.02 2.94,14.21 7.42,18.43 4.48,4.22 10.05,6.33 16.7,6.33 4.94,0 9.28,-1.13 12.83,-3.52 3.56,-2.39 6.33,-6.19 8.35,-11.39zm-44.67 -19.98l44.83 0c-0.62,-6.19 -2.32,-10.69 -5.1,-13.78 -4.33,-4.78 -10.05,-7.18 -16.85,-7.18 -6.34,0 -11.44,1.83 -15.77,5.63 -4.17,3.8 -6.65,9 -7.11,15.33zm118.72 43.47m12.52 0l-12.52 0 0 -100.72 13.45 0 0 35.87c5.87,-6.47 13.14,-9.7 21.95,-9.7 4.95,0 9.74,0.84 14.07,2.67 4.48,1.83 8.04,4.36 10.82,7.59 2.94,3.24 5.1,7.31 6.8,11.81 1.55,4.64 2.32,9.57 2.32,14.91 0,12.52 -3.4,22.08 -10.2,28.98 -6.8,6.75 -14.84,10.27 -24.42,10.27 -9.43,0 -16.85,-3.65 -22.26,-10.83l0 9.15zm-0.15 -37c0,8.72 1.39,15.06 3.87,18.85 4.33,6.47 10.2,9.56 17.46,9.56 5.87,0 10.98,-2.25 15.31,-7.04 4.33,-4.64 6.49,-11.67 6.49,-20.96 0,-9.57 -2.01,-16.6 -6.19,-21.1 -4.17,-4.5 -9.12,-6.75 -15,-6.75 -6.03,0 -11.13,2.39 -15.46,7.04 -4.33,4.64 -6.49,11.54 -6.49,20.39zm73.27 37m0 0l0 -100.72 13.6 0 0 100.72 -13.6 0zm29.52 0m0 -36.43c0,-13.51 4.17,-23.63 12.37,-30.11 6.96,-5.34 15.3,-8.02 25.2,-8.02 11.13,0 20.09,3.24 27.05,9.85 6.96,6.47 10.51,15.61 10.51,27.15 0,9.43 -1.54,16.88 -4.64,22.22 -3.09,5.35 -7.57,9.57 -13.45,12.52 -6.03,2.95 -12.37,4.5 -19.48,4.5 -11.13,0 -20.25,-3.37 -27.2,-9.85 -6.8,-6.61 -10.36,-16.04 -10.36,-28.27zm14.07 0c0,9.28 2.17,16.31 6.65,20.96 4.48,4.64 10.2,6.89 16.85,6.89 6.8,0 12.37,-2.25 16.85,-6.89 4.48,-4.78 6.8,-11.81 6.8,-21.38 0,-9 -2.31,-15.89 -6.8,-20.54 -4.48,-4.64 -10.05,-7.04 -16.85,-7.04 -6.65,0 -12.37,2.39 -16.85,7.04 -4.48,4.64 -6.65,11.54 -6.65,20.96zm71.57 36.43m0 -21.81l13.45 -1.97c0.77,4.93 2.78,8.72 6.34,11.39 3.4,2.54 8.19,3.8 14.37,3.8 6.18,0 10.82,-1.13 13.91,-3.37 2.94,-2.39 4.49,-5.07 4.49,-8.16 0,-2.81 -1.24,-5.06 -4.02,-6.61 -1.85,-1.13 -6.5,-2.53 -13.91,-4.22 -9.89,-2.25 -16.85,-4.22 -20.71,-5.91 -3.71,-1.69 -6.65,-3.94 -8.66,-6.89 -2.01,-2.96 -3.09,-6.33 -3.09,-9.85 0,-3.24 0.93,-6.19 2.47,-9 1.7,-2.81 3.86,-5.07 6.8,-6.89 2.01,-1.41 4.95,-2.67 8.5,-3.66 3.71,-0.98 7.57,-1.41 11.75,-1.41 6.34,0 11.9,0.7 16.7,2.39 4.63,1.69 8.19,3.94 10.51,6.75 2.17,2.81 3.71,6.61 4.64,11.26l-13.3 1.69c-0.62,-3.8 -2.32,-6.75 -5.26,-8.86 -2.94,-2.11 -6.96,-3.09 -12.22,-3.09 -6.33,0 -10.67,0.99 -13.44,2.81 -2.63,1.83 -4.02,4.08 -4.02,6.61 0,1.55 0.62,2.96 1.7,4.36 1.08,1.26 2.94,2.39 5.26,3.24 1.39,0.42 5.41,1.55 12.06,3.09 9.58,2.39 16.23,4.36 20.09,5.76 3.71,1.55 6.8,3.66 8.96,6.47 2.17,2.95 3.24,6.47 3.24,10.69 0,4.08 -1.39,8.02 -4.02,11.54 -2.63,3.65 -6.49,6.47 -11.44,8.44 -4.95,2.11 -10.67,3.09 -16.85,3.09 -10.51,0 -18.4,-1.97 -23.96,-5.91 -5.41,-3.94 -8.81,-9.85 -10.36,-17.59zm77.29 21.81m0 -21.81l13.45 -1.97c0.78,4.93 2.78,8.72 6.34,11.39 3.4,2.54 8.19,3.8 14.38,3.8 6.18,0 10.82,-1.13 13.91,-3.37 2.94,-2.39 4.48,-5.07 4.48,-8.16 0,-2.81 -1.24,-5.06 -4.02,-6.61 -1.85,-1.13 -6.49,-2.53 -13.91,-4.22 -9.89,-2.25 -16.85,-4.22 -20.71,-5.91 -3.71,-1.69 -6.65,-3.94 -8.66,-6.89 -2.01,-2.96 -3.09,-6.33 -3.09,-9.85 0,-3.24 0.93,-6.19 2.47,-9 1.7,-2.81 3.87,-5.07 6.8,-6.89 2.01,-1.41 4.94,-2.67 8.5,-3.66 3.7,-0.98 7.57,-1.41 11.74,-1.41 6.34,0 11.91,0.7 16.7,2.39 4.63,1.69 8.19,3.94 10.51,6.75 2.17,2.81 3.71,6.61 4.64,11.26l-13.3 1.69c-0.62,-3.8 -2.32,-6.75 -5.26,-8.86 -2.94,-2.11 -6.96,-3.09 -12.21,-3.09 -6.33,0 -10.67,0.99 -13.45,2.81 -2.63,1.83 -4.02,4.08 -4.02,6.61 0,1.55 0.62,2.96 1.7,4.36 1.09,1.26 2.94,2.39 5.26,3.24 1.39,0.42 5.41,1.55 12.06,3.09 9.58,2.39 16.23,4.36 20.09,5.76 3.71,1.55 6.8,3.66 8.96,6.47 2.17,2.95 3.25,6.47 3.25,10.69 0,4.08 -1.39,8.02 -4.02,11.54 -2.63,3.65 -6.49,6.47 -11.44,8.44 -4.95,2.11 -10.67,3.09 -16.85,3.09 -10.51,0 -18.4,-1.97 -23.96,-5.91 -5.41,-3.94 -8.81,-9.85 -10.36,-17.59zm77.6 21.81m0 -36.43c0,-13.51 4.17,-23.63 12.37,-30.11 6.95,-5.34 15.3,-8.02 25.19,-8.02 11.13,0 20.09,3.24 27.05,9.85 6.96,6.47 10.52,15.61 10.52,27.15 0,9.43 -1.55,16.88 -4.64,22.22 -3.09,5.35 -7.57,9.57 -13.44,12.52 -6.03,2.95 -12.37,4.5 -19.48,4.5 -11.13,0 -20.25,-3.37 -27.2,-9.85 -6.8,-6.61 -10.35,-16.04 -10.35,-28.27zm14.06 0c0,9.28 2.17,16.31 6.65,20.96 4.48,4.64 10.2,6.89 16.85,6.89 6.8,0 12.37,-2.25 16.85,-6.89 4.48,-4.78 6.8,-11.81 6.8,-21.38 0,-9 -2.32,-15.89 -6.8,-20.54 -4.48,-4.64 -10.05,-7.04 -16.85,-7.04 -6.65,0 -12.36,2.39 -16.85,7.04 -4.48,4.64 -6.65,11.54 -6.65,20.96zm76.98 36.43m0 0l0 -73.01 12.21 0 0 10.27c2.47,-3.52 5.87,-6.47 10.05,-8.58 4.18,-2.25 8.81,-3.24 14.22,-3.24 5.87,0 10.82,1.13 14.53,3.37 3.87,2.11 6.5,5.35 8.04,9.29 6.34,-8.44 14.69,-12.66 24.73,-12.66 8.04,0 14.07,1.97 18.4,5.91 4.33,4.07 6.49,10.27 6.49,18.57l0 50.08 -13.61 0 0 -46c0,-4.93 -0.46,-8.44 -1.23,-10.69 -0.93,-2.11 -2.48,-3.94 -4.8,-5.2 -2.32,-1.41 -5.1,-1.97 -8.19,-1.97 -5.72,0 -10.35,1.69 -14.06,5.07 -3.71,3.37 -5.57,8.86 -5.57,16.46l0 42.34 -13.6 0 0 -47.41c0,-5.49 -1.08,-9.57 -3.25,-12.38 -2.32,-2.67 -5.87,-4.08 -10.98,-4.08 -3.71,0 -7.26,0.84 -10.51,2.67 -3.24,1.83 -5.56,4.5 -7.11,8.02 -1.39,3.66 -2.16,8.72 -2.16,15.33l0 37.84 -13.61 0zm164.32 0m37.1 -11.11l2.01 10.97c-3.86,0.7 -7.26,1.13 -10.35,1.13 -4.95,0 -8.66,-0.7 -11.44,-2.11 -2.78,-1.55 -4.64,-3.37 -5.72,-5.62 -1.08,-2.39 -1.7,-7.18 -1.7,-14.63l0 -41.92 -9.9 0 0 -9.7 9.9 0 0 -18 13.6 -7.46 0 25.46 13.61 0 0 9.7 -13.61 0 0 42.62c0,3.52 0.16,5.77 0.62,6.75 0.46,0.98 1.24,1.83 2.31,2.39 1.08,0.7 2.63,0.98 4.64,0.98 1.54,0 3.56,-0.14 6.03,-0.56zm13.29 11.11m0 0l0 -100.72 13.61 0 0 36.15c6.33,-6.75 14.37,-9.98 23.96,-9.98 6.03,0 11.13,0.98 15.46,3.09 4.49,2.25 7.58,5.06 9.43,8.86 1.85,3.8 2.78,9.14 2.78,16.31l0 46.28 -13.6 0 0 -46.28c0,-6.19 -1.39,-10.69 -4.33,-13.5 -2.94,-2.81 -7.11,-4.22 -12.52,-4.22 -4.02,0 -7.73,0.98 -11.29,2.96 -3.56,1.83 -6.19,4.36 -7.57,7.74 -1.55,3.24 -2.32,7.74 -2.32,13.36l0 39.95 -13.61 0zm81.31 0m56.89 -9c-4.95,3.94 -9.74,6.61 -14.53,8.3 -4.63,1.55 -9.59,2.39 -14.99,2.39 -8.66,0 -15.46,-1.97 -20.25,-5.91 -4.64,-3.94 -7.11,-9 -7.11,-15.06 0,-3.52 0.93,-6.75 2.78,-9.7 1.7,-2.95 4.02,-5.34 6.95,-7.17 2.94,-1.83 6.18,-3.09 9.74,-4.08 2.63,-0.56 6.65,-1.27 12.06,-1.83 10.97,-1.13 19.17,-2.53 24.27,-4.22 0,-1.69 0.15,-2.81 0.15,-3.23 0,-5.07 -1.39,-8.58 -3.86,-10.69 -3.56,-2.81 -8.66,-4.22 -15.46,-4.22 -6.49,0 -11.13,1.13 -14.22,3.09 -3.09,2.11 -5.26,5.63 -6.8,10.83l-13.29 -1.69c1.24,-5.2 3.24,-9.28 6.03,-12.52 2.78,-3.09 6.8,-5.63 12.06,-7.31 5.1,-1.69 11.29,-2.53 18.09,-2.53 6.8,0 12.37,0.7 16.7,2.11 4.33,1.54 7.42,3.37 9.43,5.63 2.01,2.11 3.4,4.93 4.33,8.3 0.31,2.11 0.62,5.91 0.62,11.39l0 16.6c0,11.39 0.31,18.71 0.93,21.8 0.46,2.96 1.7,5.91 3.4,8.72l-14.22 0c-1.39,-2.54 -2.32,-5.63 -2.78,-9zm-1.08 -27.57c-4.94,1.83 -12.37,3.37 -22.11,4.64 -5.72,0.7 -9.58,1.55 -11.9,2.39 -2.32,0.98 -4.17,2.39 -5.41,4.07 -1.24,1.83 -1.85,3.66 -1.85,5.91 0,3.24 1.39,6.05 4.17,8.16 2.63,2.25 6.65,3.38 11.9,3.38 5.26,0 9.89,-1.13 14.07,-3.09 4.02,-2.11 7.11,-4.93 8.96,-8.58 1.39,-2.81 2.17,-6.89 2.17,-12.38l0 -4.5zm27.36 36.57m37.1 -11.11l2.01 10.97c-3.86,0.7 -7.26,1.13 -10.35,1.13 -4.95,0 -8.66,-0.7 -11.44,-2.11 -2.78,-1.55 -4.64,-3.37 -5.72,-5.62 -1.09,-2.39 -1.7,-7.18 -1.7,-14.63l0 -41.92 -9.89 0 0 -9.7 9.89 0 0 -18 13.6 -7.46 0 25.46 13.6 0 0 9.7 -13.6 0 0 42.62c0,3.52 0.15,5.77 0.62,6.75 0.46,0.98 1.24,1.83 2.31,2.39 1.08,0.7 2.63,0.98 4.64,0.98 1.54,0 3.56,-0.14 6.03,-0.56zm56.27 11.11m0 0l0 -73.01 12.21 0 0 10.27c2.47,-3.52 5.87,-6.47 10.05,-8.58 4.18,-2.25 8.81,-3.24 14.22,-3.24 5.87,0 10.82,1.13 14.53,3.37 3.87,2.11 6.5,5.35 8.04,9.29 6.33,-8.44 14.68,-12.66 24.73,-12.66 8.04,0 14.07,1.97 18.4,5.91 4.33,4.07 6.49,10.27 6.49,18.57l0 50.08 -13.6 0 0 -46c0,-4.93 -0.46,-8.44 -1.24,-10.69 -0.93,-2.11 -2.48,-3.94 -4.8,-5.2 -2.31,-1.41 -5.1,-1.97 -8.19,-1.97 -5.72,0 -10.35,1.69 -14.06,5.07 -3.71,3.37 -5.57,8.86 -5.57,16.46l0 42.34 -13.61 0 0 -47.41c0,-5.49 -1.08,-9.57 -3.24,-12.38 -2.32,-2.67 -5.87,-4.08 -10.98,-4.08 -3.7,0 -7.26,0.84 -10.51,2.67 -3.25,1.83 -5.57,4.5 -7.11,8.02 -1.39,3.66 -2.16,8.72 -2.16,15.33l0 37.84 -13.6 0zm124.12 0m56.89 -9c-4.95,3.94 -9.74,6.61 -14.53,8.3 -4.64,1.55 -9.58,2.39 -14.99,2.39 -8.66,0 -15.46,-1.97 -20.25,-5.91 -4.64,-3.94 -7.11,-9 -7.11,-15.06 0,-3.52 0.93,-6.75 2.79,-9.7 1.7,-2.95 4.02,-5.34 6.95,-7.17 2.94,-1.83 6.19,-3.09 9.74,-4.08 2.63,-0.56 6.65,-1.27 12.06,-1.83 10.98,-1.13 19.17,-2.53 24.27,-4.22 0,-1.69 0.15,-2.81 0.15,-3.23 0,-5.07 -1.39,-8.58 -3.86,-10.69 -3.56,-2.81 -8.66,-4.22 -15.46,-4.22 -6.49,0 -11.13,1.13 -14.22,3.09 -3.09,2.11 -5.26,5.63 -6.8,10.83l-13.3 -1.69c1.24,-5.2 3.24,-9.28 6.03,-12.52 2.78,-3.09 6.8,-5.63 12.06,-7.31 5.1,-1.69 11.28,-2.53 18.09,-2.53 6.8,0 12.37,0.7 16.69,2.11 4.33,1.54 7.42,3.37 9.43,5.63 2.01,2.11 3.4,4.93 4.33,8.3 0.31,2.11 0.62,5.91 0.62,11.39l0 16.6c0,11.39 0.31,18.71 0.93,21.8 0.46,2.96 1.7,5.91 3.4,8.72l-14.22 0c-1.39,-2.54 -2.32,-5.63 -2.78,-9zm-1.08 -27.57c-4.94,1.83 -12.37,3.37 -22.11,4.64 -5.72,0.7 -9.58,1.55 -11.9,2.39 -2.32,0.98 -4.18,2.39 -5.41,4.07 -1.24,1.83 -1.86,3.66 -1.86,5.91 0,3.24 1.39,6.05 4.17,8.16 2.63,2.25 6.65,3.38 11.91,3.38 5.26,0 9.89,-1.13 14.07,-3.09 4.02,-2.11 7.11,-4.93 8.97,-8.58 1.39,-2.81 2.16,-6.89 2.16,-12.38l0 -4.5zm34.78 36.57m0 0l0 -100.72 13.61 0 0 57.39 32.15 -29.68 17.63 0 -30.61 27.15 33.7 45.86 -16.7 0 -26.59 -37.28 -9.58 8.3 0 28.98 -13.61 0zm72.81 0m59.36 -23.49l14.07 1.55c-2.32,7.45 -6.34,13.22 -12.37,17.44 -6.03,4.08 -13.6,6.19 -22.88,6.19 -11.75,0 -21.02,-3.37 -27.98,-9.85 -6.8,-6.61 -10.2,-15.9 -10.2,-27.71 0,-12.24 3.4,-21.81 10.36,-28.56 6.96,-6.75 15.92,-10.13 27.05,-10.13 10.67,0 19.48,3.24 26.28,9.85 6.8,6.75 10.2,16.04 10.2,28.13 0,0.7 0,1.83 -0.15,3.23l-59.67 0c0.46,8.02 2.93,14.21 7.42,18.43 4.48,4.22 10.05,6.33 16.69,6.33 4.95,0 9.28,-1.13 12.83,-3.52 3.56,-2.39 6.34,-6.19 8.35,-11.39zm-44.67 -19.98l44.83 0c-0.62,-6.19 -2.32,-10.69 -5.1,-13.78 -4.33,-4.78 -10.05,-7.18 -16.85,-7.18 -6.34,0 -11.44,1.83 -15.77,5.63 -4.17,3.8 -6.65,9 -7.11,15.33zm70.33 43.47m0 -21.81l13.45 -1.97c0.77,4.93 2.78,8.72 6.34,11.39 3.4,2.54 8.19,3.8 14.38,3.8 6.18,0 10.82,-1.13 13.91,-3.37 2.94,-2.39 4.48,-5.07 4.48,-8.16 0,-2.81 -1.24,-5.06 -4.02,-6.61 -1.85,-1.13 -6.5,-2.53 -13.91,-4.22 -9.89,-2.25 -16.85,-4.22 -20.71,-5.91 -3.71,-1.69 -6.65,-3.94 -8.66,-6.89 -2.01,-2.96 -3.09,-6.33 -3.09,-9.85 0,-3.24 0.93,-6.19 2.47,-9 1.7,-2.81 3.86,-5.07 6.8,-6.89 2.01,-1.41 4.94,-2.67 8.5,-3.66 3.71,-0.98 7.57,-1.41 11.75,-1.41 6.34,0 11.9,0.7 16.69,2.39 4.64,1.69 8.19,3.94 10.51,6.75 2.17,2.81 3.71,6.61 4.64,11.26l-13.29 1.69c-0.62,-3.8 -2.32,-6.75 -5.26,-8.86 -2.94,-2.11 -6.96,-3.09 -12.21,-3.09 -6.34,0 -10.67,0.99 -13.45,2.81 -2.63,1.83 -4.02,4.08 -4.02,6.61 0,1.55 0.62,2.96 1.7,4.36 1.08,1.26 2.94,2.39 5.26,3.24 1.39,0.42 5.41,1.55 12.06,3.09 9.58,2.39 16.23,4.36 20.09,5.76 3.71,1.55 6.8,3.66 8.96,6.47 2.17,2.95 3.25,6.47 3.25,10.69 0,4.08 -1.39,8.02 -4.02,11.54 -2.63,3.65 -6.49,6.47 -11.44,8.44 -4.95,2.11 -10.67,3.09 -16.85,3.09 -10.51,0 -18.4,-1.97 -23.96,-5.91 -5.41,-3.94 -8.81,-9.85 -10.35,-17.59zm117.94 21.81m7.11 28.13l-1.55 -11.67c2.94,0.7 5.57,1.13 7.89,1.13 2.94,0 5.41,-0.42 7.11,-1.41 1.85,-0.84 3.4,-2.11 4.48,-3.8 0.93,-1.27 2.32,-4.36 4.17,-9.15 0.31,-0.7 0.62,-1.69 1.24,-3.09l-30.46 -73.15 14.69 0 16.69 42.34c2.17,5.35 4.02,10.98 5.72,16.88 1.7,-5.77 3.56,-11.25 5.72,-16.6l17 -42.62 13.6 0 -30.45 74.27c-3.25,8.02 -5.87,13.5 -7.57,16.6 -2.47,4.08 -5.26,7.04 -8.35,8.86 -3.09,1.97 -6.8,2.95 -11.13,2.95 -2.63,0 -5.57,-0.56 -8.81,-1.55zm72.81 -28.13m0 -36.43c0,-13.51 4.17,-23.63 12.37,-30.11 6.95,-5.34 15.3,-8.02 25.2,-8.02 11.13,0 20.09,3.24 27.05,9.85 6.96,6.47 10.51,15.61 10.51,27.15 0,9.43 -1.55,16.88 -4.64,22.22 -3.09,5.35 -7.57,9.57 -13.45,12.52 -6.03,2.95 -12.37,4.5 -19.48,4.5 -11.13,0 -20.25,-3.37 -27.21,-9.85 -6.8,-6.61 -10.35,-16.04 -10.35,-28.27zm14.07 0c0,9.28 2.17,16.31 6.65,20.96 4.48,4.64 10.2,6.89 16.85,6.89 6.8,0 12.37,-2.25 16.85,-6.89 4.48,-4.78 6.8,-11.81 6.8,-21.38 0,-9 -2.32,-15.89 -6.8,-20.54 -4.48,-4.64 -10.05,-7.04 -16.85,-7.04 -6.65,0 -12.37,2.39 -16.85,7.04 -4.48,4.64 -6.65,11.54 -6.65,20.96zm76.67 36.43m52.87 0l0 -10.69c-6.34,8.16 -14.69,12.38 -25.5,12.38 -4.64,0 -9.12,-0.84 -13.14,-2.53 -4.17,-1.69 -7.27,-3.66 -9.12,-6.19 -2.01,-2.53 -3.4,-5.63 -4.33,-9.14 -0.46,-2.54 -0.77,-6.33 -0.77,-11.54l0 -45.3 13.61 0 0 40.51c0,6.47 0.31,10.83 0.77,13.08 0.93,3.24 2.78,5.77 5.41,7.59 2.78,1.83 6.18,2.81 10.35,2.81 4.02,0 7.89,-0.98 11.44,-2.81 3.56,-1.97 6.19,-4.5 7.57,-7.74 1.54,-3.37 2.32,-8.16 2.32,-14.35l0 -39.11 13.45 0 0 73.01 -12.06 0zm67.55 0m12.06 0l0 -63.3 -12.06 0 0 -9.7 12.06 0 0 -7.74c0,-4.92 0.46,-8.58 1.39,-10.83 1.39,-3.23 3.71,-5.91 6.96,-7.87 3.25,-1.97 7.89,-2.95 13.92,-2.95 3.7,0 8.04,0.42 12.67,1.26l-2.17 10.69c-2.78,-0.42 -5.41,-0.7 -7.89,-0.7 -4.17,0 -7.11,0.84 -8.81,2.53 -1.7,1.55 -2.63,4.5 -2.63,9l0 6.61 15.61 0 0 9.7 -15.61 0 0 63.3 -13.45 0zm35.24 0m59.36 -23.49l14.07 1.55c-2.31,7.45 -6.33,13.22 -12.36,17.44 -6.03,4.08 -13.61,6.19 -22.88,6.19 -11.75,0 -21.02,-3.37 -27.98,-9.85 -6.8,-6.61 -10.2,-15.9 -10.2,-27.71 0,-12.24 3.4,-21.81 10.36,-28.56 6.96,-6.75 15.92,-10.13 27.05,-10.13 10.67,0 19.48,3.24 26.28,9.85 6.8,6.75 10.2,16.04 10.2,28.13 0,0.7 0,1.83 -0.15,3.23l-59.67 0c0.46,8.02 2.93,14.21 7.42,18.43 4.48,4.22 10.05,6.33 16.69,6.33 4.94,0 9.28,-1.13 12.83,-3.52 3.56,-2.39 6.34,-6.19 8.35,-11.39zm-44.67 -19.98l44.83 0c-0.62,-6.19 -2.32,-10.69 -5.1,-13.78 -4.33,-4.78 -10.05,-7.18 -16.85,-7.18 -6.34,0 -11.44,1.83 -15.77,5.63 -4.17,3.8 -6.65,9 -7.11,15.33zm71.26 43.47m59.36 -23.49l14.07 1.55c-2.32,7.45 -6.34,13.22 -12.37,17.44 -6.03,4.08 -13.61,6.19 -22.88,6.19 -11.75,0 -21.02,-3.37 -27.98,-9.85 -6.8,-6.61 -10.2,-15.9 -10.2,-27.71 0,-12.24 3.4,-21.81 10.35,-28.56 6.96,-6.75 15.92,-10.13 27.05,-10.13 10.67,0 19.48,3.24 26.28,9.85 6.8,6.75 10.2,16.04 10.2,28.13 0,0.7 0,1.83 -0.15,3.23l-59.67 0c0.46,8.02 2.94,14.21 7.42,18.43 4.48,4.22 10.05,6.33 16.7,6.33 4.94,0 9.27,-1.13 12.83,-3.52 3.55,-2.39 6.34,-6.19 8.35,-11.39zm-44.67 -19.98l44.83 0c-0.62,-6.19 -2.32,-10.69 -5.1,-13.78 -4.33,-4.78 -10.05,-7.18 -16.85,-7.18 -6.34,0 -11.44,1.83 -15.77,5.63 -4.17,3.8 -6.65,9 -7.11,15.33zm75.43 43.47m0 0l0 -100.72 13.61 0 0 100.72 -13.61 0zm77.6 0m12.52 0l-12.52 0 0 -100.72 13.45 0 0 35.87c5.87,-6.47 13.14,-9.7 21.95,-9.7 4.95,0 9.74,0.84 14.07,2.67 4.48,1.83 8.04,4.36 10.82,7.59 2.94,3.24 5.1,7.31 6.8,11.81 1.55,4.64 2.32,9.57 2.32,14.91 0,12.52 -3.4,22.08 -10.2,28.98 -6.8,6.75 -14.84,10.27 -24.42,10.27 -9.43,0 -16.85,-3.65 -22.26,-10.83l0 9.15zm-0.15 -37c0,8.72 1.39,15.06 3.87,18.85 4.33,6.47 10.2,9.56 17.46,9.56 5.88,0 10.98,-2.25 15.31,-7.04 4.33,-4.64 6.49,-11.67 6.49,-20.96 0,-9.57 -2.01,-16.6 -6.19,-21.1 -4.17,-4.5 -9.12,-6.75 -15,-6.75 -6.03,0 -11.13,2.39 -15.45,7.04 -4.33,4.64 -6.5,11.54 -6.5,20.39zm73.27 37m0 0l0 -100.72 13.6 0 0 100.72 -13.6 0zm30.14 0m59.36 -23.49l14.07 1.55c-2.31,7.45 -6.33,13.22 -12.37,17.44 -6.03,4.08 -13.6,6.19 -22.88,6.19 -11.74,0 -21.02,-3.37 -27.98,-9.85 -6.8,-6.61 -10.2,-15.9 -10.2,-27.71 0,-12.24 3.4,-21.81 10.36,-28.56 6.96,-6.75 15.92,-10.13 27.05,-10.13 10.67,0 19.48,3.24 26.28,9.85 6.8,6.75 10.2,16.04 10.2,28.13 0,0.7 0,1.83 -0.15,3.23l-59.67 0c0.46,8.02 2.93,14.21 7.42,18.43 4.48,4.22 10.05,6.33 16.69,6.33 4.95,0 9.28,-1.13 12.83,-3.52 3.56,-2.39 6.34,-6.19 8.35,-11.39zm-44.67 -19.98l44.83 0c-0.62,-6.19 -2.32,-10.69 -5.1,-13.78 -4.33,-4.78 -10.05,-7.18 -16.85,-7.18 -6.33,0 -11.44,1.83 -15.77,5.63 -4.17,3.8 -6.65,9 -7.11,15.33zm70.33 43.47m0 -21.81l13.45 -1.97c0.77,4.93 2.78,8.72 6.34,11.39 3.4,2.54 8.19,3.8 14.38,3.8 6.18,0 10.82,-1.13 13.91,-3.37 2.94,-2.39 4.48,-5.07 4.48,-8.16 0,-2.81 -1.24,-5.06 -4.02,-6.61 -1.85,-1.13 -6.5,-2.53 -13.91,-4.22 -9.89,-2.25 -16.85,-4.22 -20.71,-5.91 -3.71,-1.69 -6.65,-3.94 -8.66,-6.89 -2.01,-2.96 -3.09,-6.33 -3.09,-9.85 0,-3.24 0.93,-6.19 2.47,-9 1.7,-2.81 3.86,-5.07 6.8,-6.89 2.01,-1.41 4.94,-2.67 8.5,-3.66 3.71,-0.98 7.57,-1.41 11.75,-1.41 6.34,0 11.91,0.7 16.7,2.39 4.63,1.69 8.19,3.94 10.51,6.75 2.17,2.81 3.71,6.61 4.64,11.26l-13.3 1.69c-0.62,-3.8 -2.32,-6.75 -5.26,-8.86 -2.94,-2.11 -6.96,-3.09 -12.21,-3.09 -6.34,0 -10.67,0.99 -13.45,2.81 -2.63,1.83 -4.02,4.08 -4.02,6.61 0,1.55 0.62,2.96 1.7,4.36 1.08,1.26 2.94,2.39 5.26,3.24 1.39,0.42 5.41,1.55 12.06,3.09 9.58,2.39 16.23,4.36 20.09,5.76 3.71,1.55 6.8,3.66 8.96,6.47 2.17,2.95 3.24,6.47 3.24,10.69 0,4.08 -1.39,8.02 -4.02,11.54 -2.63,3.65 -6.49,6.47 -11.43,8.44 -4.95,2.11 -10.67,3.09 -16.85,3.09 -10.51,0 -18.4,-1.97 -23.96,-5.91 -5.41,-3.94 -8.81,-9.85 -10.36,-17.59zm77.29 21.81m0 -21.81l13.44 -1.97c0.78,4.93 2.79,8.72 6.34,11.39 3.4,2.54 8.19,3.8 14.38,3.8 6.18,0 10.82,-1.13 13.91,-3.37 2.94,-2.39 4.48,-5.07 4.48,-8.16 0,-2.81 -1.24,-5.06 -4.02,-6.61 -1.85,-1.13 -6.49,-2.53 -13.91,-4.22 -9.89,-2.25 -16.85,-4.22 -20.71,-5.91 -3.71,-1.69 -6.65,-3.94 -8.66,-6.89 -2.01,-2.96 -3.09,-6.33 -3.09,-9.85 0,-3.24 0.93,-6.19 2.48,-9 1.7,-2.81 3.86,-5.07 6.8,-6.89 2.01,-1.41 4.95,-2.67 8.5,-3.66 3.7,-0.98 7.57,-1.41 11.75,-1.41 6.33,0 11.9,0.7 16.69,2.39 4.64,1.69 8.19,3.94 10.51,6.75 2.17,2.81 3.71,6.61 4.64,11.26l-13.3 1.69c-0.62,-3.8 -2.32,-6.75 -5.26,-8.86 -2.94,-2.11 -6.96,-3.09 -12.21,-3.09 -6.33,0 -10.67,0.99 -13.45,2.81 -2.63,1.83 -4.02,4.08 -4.02,6.61 0,1.55 0.62,2.96 1.7,4.36 1.09,1.26 2.94,2.39 5.26,3.24 1.39,0.42 5.41,1.55 12.06,3.09 9.59,2.39 16.23,4.36 20.1,5.76 3.7,1.55 6.8,3.66 8.96,6.47 2.17,2.95 3.25,6.47 3.25,10.69 0,4.08 -1.39,8.02 -4.02,11.54 -2.63,3.65 -6.49,6.47 -11.44,8.44 -4.95,2.11 -10.67,3.09 -16.85,3.09 -10.51,0 -18.4,-1.97 -23.96,-5.91 -5.41,-3.94 -8.81,-9.85 -10.35,-17.59zm78.22 21.81m59.36 -23.49l14.07 1.55c-2.32,7.45 -6.34,13.22 -12.37,17.44 -6.03,4.08 -13.6,6.19 -22.88,6.19 -11.75,0 -21.02,-3.37 -27.98,-9.85 -6.8,-6.61 -10.2,-15.9 -10.2,-27.71 0,-12.24 3.4,-21.81 10.35,-28.56 6.96,-6.75 15.93,-10.13 27.06,-10.13 10.67,0 19.48,3.24 26.28,9.85 6.8,6.75 10.2,16.04 10.2,28.13 0,0.7 0,1.83 -0.15,3.23l-59.67 0c0.46,8.02 2.93,14.21 7.42,18.43 4.48,4.22 10.05,6.33 16.7,6.33 4.94,0 9.28,-1.13 12.83,-3.52 3.56,-2.39 6.33,-6.19 8.35,-11.39zm-44.67 -19.98l44.83 0c-0.62,-6.19 -2.32,-10.69 -5.1,-13.78 -4.33,-4.78 -10.05,-7.18 -16.85,-7.18 -6.34,0 -11.44,1.83 -15.77,5.63 -4.17,3.8 -6.65,9 -7.11,15.33zm70.8 43.47m56.88 0l0 -9.29c-4.94,7.32 -12.52,10.97 -22.41,10.97 -6.34,0 -12.21,-1.69 -17.62,-4.92 -5.26,-3.09 -9.43,-7.6 -12.37,-13.36 -2.94,-5.77 -4.48,-12.38 -4.48,-19.83 0,-7.31 1.39,-13.93 4.02,-19.84 2.63,-5.91 6.65,-10.41 12.06,-13.64 5.26,-3.09 11.28,-4.64 17.93,-4.64 4.79,0 9.12,0.84 12.83,2.67 3.71,1.97 6.8,4.36 9.28,7.31l0 -36.15 13.45 0 0 100.72 -12.68 0zm-42.82 -36.43c0,9.42 2.16,16.31 6.49,20.96 4.33,4.64 9.43,6.89 15.3,6.89 5.87,0 10.98,-2.11 15.15,-6.61 4.02,-4.36 6.19,-11.11 6.19,-20.26 0,-9.85 -2.17,-17.3 -6.34,-21.94 -4.17,-4.64 -9.43,-7.04 -15.61,-7.04 -6.03,0 -11.13,2.25 -15.15,6.75 -4.02,4.5 -6.03,11.54 -6.03,21.24zm80.69 36.43m0 0l0 -14.07 15.46 0 0 14.07 -15.46 0zm42.97 0m0 0l0 -14.07 15.46 0 0 14.07 -15.46 0zm42.97 0m0 0l0 -14.07 15.46 0 0 14.07 -15.46 0zm42.98 0m0 0l0 -14.07 15.46 0 0 14.07 -15.46 0zm42.97 0m0 0l0 -14.07 15.46 0 0 14.07 -15.46 0zm42.98 0m0 0l0 -14.07 15.46 0 0 14.07 -15.46 0z"/>
  </g>
 </g>
</svg>
