<?xml version="1.0" encoding="UTF-8"?>
<!DOCTYPE svg PUBLIC "-//W3C//DTD SVG 1.1//EN" "http://www.w3.org/Graphics/SVG/1.1/DTD/svg11.dtd">
<!-- Creator: CorelDRAW 2020 (64-Bit) -->
<svg xmlns="http://www.w3.org/2000/svg" xml:space="preserve" width="3.34464in" height="1.88828in" version="1.1" style="shape-rendering:geometricPrecision; text-rendering:geometricPrecision; image-rendering:optimizeQuality; fill-rule:evenodd; clip-rule:evenodd"
viewBox="0 0 3344.65 1888.29"
 xmlns:xlink="http://www.w3.org/1999/xlink"
 xmlns:xodm="http://www.corel.com/coreldraw/odm/2003">
 <defs>
  <style type="text/css">
   <![CDATA[
    .fil1 {fill:#FEB900}
    .fil0 {fill:#FEFEFE;fill-rule:nonzero}
    .fil2 {fill:#FEB900;fill-rule:nonzero}
   ]]>
  </style>
 </defs>
 <g id="Layer_x0020_1">
  <metadata id="CorelCorpID_0Corel-Layer"/>
  <g id="_1750343323424">
   <polygon class="fil0" points="312.65,1580.08 3071.91,1580.08 3071.91,1593.42 312.65,1593.42 "/>
   <polygon class="fil0" points="312.65,1874.95 3071.91,1874.95 3071.91,1888.29 312.65,1888.29 "/>
   <path class="fil1" d="M1282.27 373.45c0,215.89 -34.59,355.22 78.35,506.42 49.06,65.65 113.76,114.22 192.6,140.12 8.87,2.92 16.57,4.45 25.23,7.03 73.21,21.73 225.46,25.37 260.36,-40.57 -26.04,-2.17 -59.45,-11.99 -79.35,-21.48 -49.02,-23.38 -76.46,-62.32 -90.76,-114.91 -16.07,-59.07 -11.14,-148.31 -11.41,-214.52 -0.06,-12.91 1.99,-16.46 2.14,-28.11 0.76,-60.04 -4.38,-125.15 -28.28,-179.58 -12.59,-28.7 -9.81,-26.86 -28.24,-62.5 -7.11,-13.77 -15.26,-24.12 -23.82,-36.67 -8.09,-11.89 -17.19,-23.14 -27.14,-33.35 -14.3,-14.69 -24.96,-28.22 -44.96,-43.75 -83.78,-65.02 -165.37,-103.98 -285.2,-103.98 9.61,14.36 19.25,26.26 27.6,42.97 24.25,48.48 32.89,124.63 32.89,182.87zm266.17 -203.66c15.59,4.16 51.1,34.79 62.22,48.69 18.55,23.18 16.23,14.48 35.92,50.77 17.73,32.67 39.78,115.76 43.01,154.61l3.57 -8.52c9.74,-43.41 11.47,-94.35 36.06,-145.42 15.9,-32.99 35.09,-60.05 63.78,-81.4 10.38,-7.73 19.25,-13.76 29.67,-20.74 -1.29,-15.57 -13.96,-41.93 -20.83,-55.79 -16.22,-32.72 -39.74,-62.56 -68.14,-85.1 -6.97,-5.54 -36.37,-29.77 -46.22,-26.59 -13.74,4.45 -52.89,35.93 -65.94,49.02 -26.02,26.1 -72.33,86.79 -73.09,120.48zm165.35 479.91c0,71.77 1.09,176.01 37.43,228.73 30.75,44.61 83.9,73.74 140.01,73.74 37.35,0 77.97,-12.2 100.96,-26.08 29.11,-17.57 45.95,-34.05 64.8,-62.23 18.05,-26.97 29.05,-52.61 39.06,-87.97 52.19,-184 -50.02,-405.96 38.49,-584.6 8.15,-16.46 17.36,-29.44 26.89,-43.68 -10.25,0 -9.19,-2.01 -18.14,-2.01 -35.65,0 -74.09,4.14 -104.37,10.57 -86.22,18.28 -163.27,62.94 -218.52,132.33 -9.24,11.6 -16.26,20.72 -24.76,33.71 -8.25,12.59 -13.72,23.96 -20.69,37.79 -36.44,72.32 -61.15,202.14 -61.15,289.7z"/>
   <path class="fil0" d="M-0 1450.16m0 -278.07l87.79 0 82.49 220.08 80.03 -220.08 83.71 0 0 16.74 -6.94 0c-8.58,0 -14.3,0.82 -17.56,2.04 -2.86,1.63 -4.9,4.08 -6.94,7.75 -1.64,3.67 -2.45,9.81 -2.45,18.38l0 183.33c0,11.44 0.81,19.2 2.04,22.47 1.64,3.67 3.68,6.12 6.94,7.75 3.27,2.04 8.99,2.86 17.97,2.86l6.94 0 0 16.74 -105.35 0 0 -16.74 7.76 0c6.54,0 11.43,-0.41 14.7,-1.64 3.27,-1.22 5.72,-2.85 7.76,-5.3 2.04,-2.45 3.27,-4.9 3.68,-7.76 0.41,-5.3 0.81,-9.8 0.81,-12.66l0 -204.57 -90.24 248.67 -20.01 0 -91.87 -245.41 0 197.23c0,9.8 0.81,16.74 2.45,20.41 2.04,3.27 4.49,6.13 8.17,8.17 3.67,2.04 10.2,2.86 19.59,2.86l6.54 0 0 16.74 -98 0 0 -16.74 5.72 0c9.39,0 15.93,-1.22 20.01,-2.86 4.09,-2.04 6.94,-4.9 8.98,-8.57 1.63,-3.67 2.45,-11.02 2.45,-21.65l0 -182.11c0,-10.21 -0.82,-16.74 -2.05,-20.01 -1.63,-3.27 -4.08,-5.31 -7.35,-6.94 -3.27,-1.63 -9.39,-2.45 -17.96,-2.45l-9.8 0 0 -16.74zm356.88 278.07m121.69 -278.07l33.48 0 86.15 232.34c4.09,11.84 8.17,19.6 12.66,23.28 4.49,3.67 10.21,5.72 17.56,5.72l4.49 0 0 16.74 -99.23 0 0 -16.74c3.27,-0.41 6.54,-0.41 9.39,-0.41 6.54,0 10.61,-0.81 12.66,-2.04 4.09,-2.45 5.72,-5.72 5.72,-9.39 0,-2.86 -1.63,-9.8 -5.31,-20.42l-18.79 -53.9 -100.45 0 -21.65 60.02c-2.45,6.13 -3.27,10.61 -3.27,13.07 0,2.45 0.41,4.9 2.04,6.94 1.22,2.04 3.27,3.27 5.72,4.49 2.45,0.82 6.12,1.22 11.44,1.22 3.67,0 6.53,0.41 8.98,0.41l0 16.74 -83.3 0 0 -16.74c7.76,0 13.07,-0.82 16.75,-2.45 3.26,-1.22 6.12,-3.68 8.57,-7.35 2.86,-3.26 6.13,-10.2 10.21,-21.23l86.15 -230.3zm-34.7 155.57l85.75 0 -42.46 -119.64 -43.28 119.64zm190.69 122.5m121.69 -278.07l33.48 0 86.15 232.34c4.09,11.84 8.17,19.6 12.66,23.28 4.49,3.67 10.21,5.72 17.56,5.72l4.49 0 0 16.74 -99.23 0 0 -16.74c3.27,-0.41 6.54,-0.41 9.39,-0.41 6.54,0 10.61,-0.81 12.66,-2.04 4.09,-2.45 5.72,-5.72 5.72,-9.39 0,-2.86 -1.63,-9.8 -5.31,-20.42l-18.79 -53.9 -100.44 0 -21.65 60.02c-2.45,6.13 -3.27,10.61 -3.27,13.07 0,2.45 0.41,4.9 2.04,6.94 1.22,2.04 3.27,3.27 5.72,4.49 2.45,0.82 6.12,1.22 11.44,1.22 3.67,0 6.53,0.41 8.98,0.41l0 16.74 -83.3 0 0 -16.74c7.76,0 13.07,-0.82 16.75,-2.45 3.26,-1.22 6.12,-3.68 8.57,-7.35 2.85,-3.26 6.13,-10.2 10.21,-21.23l86.15 -230.3zm-34.7 155.57l85.75 0 -42.46 -119.64 -43.28 119.64zm207.84 122.5m0 -278.07l84.94 0 126.99 208.66 0 -158.85c0,-9.39 -0.82,-16.33 -2.86,-20.41 -1.64,-4.09 -4.49,-7.35 -8.17,-9.39 -3.68,-2.04 -9.39,-3.27 -16.33,-3.27l-7.35 0 0 -16.74 92.69 0 0 16.74 -4.9 0c-8.17,0 -13.89,0.82 -16.74,2.04 -4.08,1.63 -6.94,5.3 -8.98,10.2 -2.04,4.9 -3.26,11.84 -3.26,20.83l0 228.26 -24.09 0 -152.72 -250.72 0 198.86c0,11.02 0.41,17.56 1.23,20.01 0.81,2.85 2.45,5.72 4.9,8.17 2.45,2.85 5.3,4.49 8.57,5.3 3.27,0.82 9.8,1.64 20.01,1.64l0 16.74 -93.91 0 0 -16.74 4.9 0c9.8,0 16.33,-0.82 19.6,-2.86 3.27,-1.63 6.12,-4.9 7.76,-9.39 2.04,-4.49 2.85,-12.24 2.85,-22.86l0 -176.4c0,-11.02 -0.41,-17.96 -0.82,-20.41 -1.22,-4.49 -3.27,-7.76 -6.94,-9.8 -3.26,-2.04 -10.2,-2.85 -20.01,-2.85l-7.35 0 0 -16.74zm285.83 278.07m0 -278.07l104.13 0 0 16.74 -11.84 0c-7.35,0 -11.84,0.82 -13.88,2.04 -2.05,1.22 -3.27,3.67 -3.27,6.53 0,2.86 1.64,6.54 4.09,11.03 0.41,0.81 1.22,2.45 2.45,4.48l54.3 100.04 60.02 -103.72c2.46,-4.5 3.68,-7.35 4.49,-8.57 0.41,-1.22 0.41,-2.45 0.41,-3.67 0,-2.04 -0.41,-3.67 -1.22,-4.9 -1.22,-1.22 -2.86,-2.04 -4.91,-2.86 -1.22,-0.41 -4.9,-0.41 -11.02,-0.41l-10.61 0 0 -16.74 85.75 0 0 16.74c-7.35,0 -13.07,0.41 -16.74,1.22 -3.67,1.22 -6.54,2.85 -8.98,4.9 -2.45,2.45 -5.72,6.94 -9.8,14.29l-75.54 125.35 0 70.24c0,10.21 0.82,16.74 2.45,20.01 1.64,2.86 4.49,4.91 7.76,6.54 3.67,1.22 12.25,2.04 25.32,2.04l0 16.74 -108.62 0 0 -16.74 8.57 0c8.58,0 14.7,-0.82 17.56,-2.45 3.27,-1.64 5.31,-4.09 7.35,-7.76 1.22,-2.45 1.64,-8.57 1.64,-18.38l0 -62.88 -73.5 -130.67c-5.72,-10.62 -10.62,-16.74 -14.7,-18.78 -3.68,-2.45 -11.03,-3.27 -21.65,-3.67l0 -16.74zm260.51 278.07m121.69 -278.07l33.48 0 86.15 232.34c4.09,11.84 8.17,19.6 12.66,23.28 4.49,3.67 10.21,5.72 17.56,5.72l4.5 0 0 16.74 -99.23 0 0 -16.74c3.27,-0.41 6.54,-0.41 9.39,-0.41 6.54,0 10.61,-0.81 12.66,-2.04 4.09,-2.45 5.72,-5.72 5.72,-9.39 0,-2.86 -1.63,-9.8 -5.3,-20.42l-18.79 -53.9 -100.44 0 -21.65 60.02c-2.45,6.13 -3.27,10.61 -3.27,13.07 0,2.45 0.41,4.9 2.04,6.94 1.22,2.04 3.27,3.27 5.72,4.49 2.45,0.82 6.12,1.22 11.43,1.22 3.68,0 6.53,0.41 8.98,0.41l0 16.74 -83.3 0 0 -16.74c7.76,0 13.07,-0.82 16.75,-2.45 3.26,-1.22 6.12,-3.68 8.57,-7.35 2.85,-3.26 6.12,-10.2 10.21,-21.23l86.15 -230.3zm-34.7 155.57l85.75 0 -42.46 -119.64 -43.28 119.64zm317.68 122.5m28.59 -287.46l13.88 0 2.04 9.39 169.87 0 1.64 -9.39 14.69 0 29.4 81.66 -17.96 6.54c-8.57,-21.65 -18.78,-37.16 -30.63,-46.15 -11.84,-8.57 -26.95,-13.06 -45.33,-13.06 -7.75,0 -12.66,0.41 -13.88,0.82 -1.63,0.82 -2.45,1.63 -3.27,3.27 -0.41,1.22 -0.81,6.12 -0.81,13.89l0 192.73c0,8.98 0.41,15.51 1.63,18.78 0.82,2.87 2.45,5.31 4.09,7.36 2.04,1.63 4.49,2.85 7.75,3.67 3.27,0.81 10.62,1.22 21.65,1.22l0 16.74 -106.57 0 0 -16.74c11.84,0 19.19,-0.41 21.64,-1.22 4.9,-1.22 8.17,-3.67 10.21,-7.76 2.04,-3.68 2.85,-10.62 2.85,-20.41l0 -197.23c0,-5.72 -0.41,-9.8 -0.81,-11.02 -0.82,-1.22 -1.64,-2.45 -3.27,-2.86 -1.63,-0.81 -5.31,-1.22 -10.21,-1.22 -14.7,0 -26.13,1.64 -35.11,5.72 -8.57,3.67 -16.74,9.81 -24.5,18.78 -7.75,8.98 -14.29,20.42 -19.59,34.71l-17.97 -6.54 28.59 -81.66zm243.36 287.46m0 -278.07l107.39 0 0 16.74 -7.35 0c-8.58,0 -14.7,0.82 -18.38,2.45 -3.27,1.63 -5.31,3.67 -6.94,6.94 -1.22,3.27 -2.04,9.39 -2.04,19.19l0 124.95c0,22.46 2.86,38.79 8.17,49.81 5.31,10.63 14.29,19.6 26.95,26.95 12.66,7.36 26.54,11.03 41.65,11.03 15.11,0 29.4,-4.09 43.28,-11.84 13.47,-7.76 23.28,-17.15 28.58,-27.77 5.31,-10.61 8.17,-27.77 8.17,-51.04l0 -120.06c0,-8.98 -0.81,-15.11 -2.45,-19.19 -2.04,-4.09 -4.5,-6.94 -8.17,-8.58 -3.27,-2.04 -8.98,-2.85 -16.33,-2.85l-7.76 0 0 -16.74 92.69 0 0 16.74 -6.54 0c-10.21,0 -17.56,2.04 -21.64,6.12 -3.67,3.67 -5.72,11.44 -5.72,22.46l0 128.22c0,23.28 -4.49,42.87 -13.07,58.39 -8.98,15.51 -21.65,27.76 -38.38,37.15 -16.74,8.99 -36.34,13.48 -58.39,13.48 -21.23,0 -40.43,-4.49 -57.99,-13.89 -17.15,-9.39 -30.21,-20.83 -38.38,-34.71 -8.17,-13.89 -12.25,-31.44 -12.25,-52.26l0 -136.39c0,-8.98 -0.81,-15.11 -2.45,-18.37 -1.63,-3.68 -3.67,-6.13 -6.94,-7.76 -2.85,-1.63 -8.17,-2.45 -15.92,-2.45l-9.81 0 0 -16.74zm321.77 278.07m0 -278.07l107.39 0 0 16.74 -9.8 0c-7.76,0 -13.47,0.82 -16.33,2.04 -3.26,1.63 -5.71,3.67 -7.35,6.53 -1.22,2.86 -2.04,7.76 -2.04,15.11l0 193.55c0,8.98 0.41,14.3 1.22,15.93 0.41,2.45 2.46,4.08 4.91,5.31 2.04,0.82 7.35,1.23 16.33,1.23l15.1 0c17.15,0 32.26,-2.46 44.92,-7.36 12.66,-4.9 23.28,-12.24 32.67,-21.64 8.98,-9.39 17.96,-23.68 26.54,-42.47l17.56 6.13 -31.03 86.97 -200.08 0 0 -16.74 8.98 0c8.17,0 13.89,-0.82 17.15,-2.45 2.86,-1.22 4.91,-3.68 6.54,-7.35 1.63,-3.26 2.45,-9.39 2.45,-17.56l0 -188.65c0,-9.8 -0.82,-16.33 -2.04,-19.59 -1.63,-3.27 -3.68,-5.31 -6.53,-6.94 -2.86,-1.22 -8.58,-2.04 -17.56,-2.04l-8.98 0 0 -16.74zm242.55 278.07m0 -278.07l106.17 0 0 16.74 -8.17 0c-7.76,0 -13.07,1.22 -16.75,3.27 -3.26,2.04 -5.72,4.9 -7.35,8.98 -1.63,4.09 -2.45,11.44 -2.45,22.87l0 179.26c0,8.98 0.82,15.51 2.45,19.19 2.04,4.09 4.49,6.54 7.35,8.58 3.27,1.63 8.58,2.45 16.75,2.45l8.17 0 0 16.74 -106.17 0 0 -16.74 8.99 0c7.75,0 13.06,-0.82 16.33,-2.86 3.26,-1.63 5.71,-4.08 7.35,-7.75 1.22,-3.27 2.04,-9.81 2.04,-19.6l0 -182.93c0,-10.61 -0.82,-17.56 -2.04,-20.83 -1.64,-3.67 -4.09,-6.54 -7.35,-8.17 -3.27,-1.63 -8.58,-2.45 -16.33,-2.45l-8.99 0 0 -16.74zm140.88 278.07m0 -278.07l109.83 0c33.48,0 56.35,2.04 69.01,6.53 15.93,4.9 28.99,13.48 39.2,25.72 10.21,12.26 15.52,28.18 15.52,46.96 0,15.93 -4.08,30.22 -11.84,41.65 -9.39,14.29 -20.83,24.5 -34.3,30.22 -13.48,6.12 -34.71,8.98 -63.7,8.98l-51.04 0 0 70.65c0,10.61 0.81,17.56 1.63,20.01 1.64,4.08 4.09,6.94 6.54,8.17 2.86,1.63 8.57,2.45 17.15,2.45l9.39 0 0 16.74 -107.39 0 0 -16.74 6.53 0c8.98,0 15.52,-0.82 18.78,-2.45 3.27,-1.22 5.72,-3.68 6.94,-6.94 1.64,-3.27 2.45,-9.39 2.45,-18.38l0 -190.28c0,-8.98 -0.81,-14.7 -2.04,-17.97 -1.22,-2.85 -3.68,-4.9 -6.94,-6.53 -3.27,-1.22 -9.81,-2.04 -19.2,-2.04l-6.53 0 0 -16.74zm72.68 21.64l0 116.78 42.87 0c21.65,0 37.16,-2.04 45.73,-5.72 8.58,-4.09 15.93,-10.61 21.65,-20.01 5.72,-9.8 8.57,-20.83 8.57,-33.48 0,-14.29 -3.27,-25.73 -9.8,-35.12 -6.94,-9.39 -15.93,-15.92 -27.36,-19.19 -7.75,-2.04 -23.68,-3.27 -46.54,-3.27l-35.12 0zm185.79 256.43m182.93 -278.07l14.3 0 21.23 85.75 -18.38 5.72c-11.84,-24.09 -27.35,-42.88 -46.55,-56.76 -15.92,-11.44 -33.89,-17.15 -53.08,-17.15 -11.84,0 -22.46,2.04 -31.85,6.12 -8.99,4.49 -15.93,9.8 -20.83,16.33 -4.49,6.53 -6.94,13.47 -6.94,20.41 0,6.12 1.63,12.25 5.31,17.96 3.67,5.72 9.39,11.03 16.74,15.52 6.94,4.49 19.19,8.98 35.93,13.89l51.86 15.1c6.53,1.64 15.92,5.31 27.77,10.62 12.24,5.3 21.64,11.02 28.58,16.74 6.94,6.12 12.25,13.47 15.93,22.05 3.67,8.57 5.71,17.56 5.71,27.76 0,22.05 -9.8,41.25 -28.98,57.58 -19.2,16.74 -44.51,24.91 -75.13,24.91 -15.52,0 -29.81,-2.45 -42.47,-6.94 -12.24,-4.5 -25.72,-12.66 -40.42,-24.5l-8.99 26.95 -14.29 0 -18.38 -100.04 18.38 -3.68c6.94,18.38 15.93,33.89 26.95,46.96 11.43,12.65 23.68,22.46 37.57,28.99 13.48,6.54 27.35,9.8 41.65,9.8 19.19,0 35.93,-5.72 50.22,-17.15 11.85,-9.8 17.97,-21.23 17.97,-34.3 0,-12.26 -4.5,-22.05 -13.07,-29.81 -8.58,-7.35 -24.5,-14.69 -46.96,-21.23l-49.82 -14.29c-28.18,-8.17 -47.78,-18.38 -59.21,-31.04 -11.43,-12.65 -17.15,-26.95 -17.15,-43.28 0,-12.65 3.67,-24.49 11.02,-35.52 7.76,-10.61 19.2,-19.6 34.31,-26.95 15.52,-7.35 32.26,-11.02 50.63,-11.02 15.52,0 30.22,2.45 44.51,8.17 9.8,3.67 19.19,8.98 27.36,15.92l8.57 -19.59z"/>
   <path class="fil2" d="M456.48 1654.84c2.19,-0.29 4.79,-0.59 7.79,-0.88 3,-0.29 6.14,-0.55 9.43,-0.76 3.29,-0.22 6.58,-0.41 9.87,-0.55 3.29,-0.15 6.47,-0.22 9.54,-0.22 8.04,0 15.67,0.81 22.91,2.41 7.24,1.61 13.59,4.39 19.07,8.33 5.48,3.94 9.83,9.17 13.04,15.67 3.22,6.5 4.83,14.65 4.83,24.45 0,10.23 -1.72,18.74 -5.15,25.54 -3.43,6.8 -7.96,12.24 -13.59,16.33 -5.63,4.09 -12.02,6.98 -19.19,8.66 -7.16,1.68 -14.47,2.52 -21.93,2.52 -2.78,0 -5.23,-0.04 -7.35,-0.11 -2.12,-0.07 -4.42,-0.26 -6.91,-0.55l0 57c-3.51,0.44 -7.24,0.66 -11.19,0.66 -1.75,0 -3.62,-0.04 -5.59,-0.11 -1.97,-0.07 -3.84,-0.26 -5.59,-0.55l0 -157.86zm22.37 81.34c2.33,0.29 4.39,0.51 6.14,0.66 1.76,0.15 4.31,0.22 7.67,0.22 4.53,0 9.02,-0.48 13.48,-1.43 4.46,-0.95 8.44,-2.67 11.95,-5.15 3.51,-2.48 6.32,-5.88 8.44,-10.19 2.11,-4.31 3.18,-9.91 3.18,-16.78 0,-5.99 -0.92,-11.04 -2.74,-15.13 -1.83,-4.09 -4.35,-7.38 -7.56,-9.87 -3.21,-2.49 -7.09,-4.24 -11.62,-5.26 -4.53,-1.02 -9.43,-1.54 -14.69,-1.54 -5.41,0 -10.16,0.22 -14.25,0.66l0 63.8zm113.42 -81.34c3.21,-0.29 6.13,-0.59 8.77,-0.88 2.63,-0.29 5.23,-0.55 7.78,-0.76 2.56,-0.22 5.22,-0.41 8,-0.55 2.78,-0.15 5.84,-0.22 9.2,-0.22 7.46,0 14.83,0.74 22.15,2.19 7.31,1.46 13.81,4.02 19.52,7.68 5.7,3.65 10.34,8.59 13.92,14.8 3.58,6.22 5.37,14.07 5.37,23.57 0,5.7 -0.95,10.89 -2.85,15.57 -1.9,4.68 -4.31,8.84 -7.23,12.5 -2.93,3.65 -6.25,6.83 -9.98,9.54 -3.73,2.7 -7.35,4.94 -10.85,6.69l-2.63 1.31 45.82 66.43c-3.94,0.44 -8.41,0.66 -13.37,0.66 -3.95,0 -7.89,-0.22 -11.84,-0.66l-50.43 -73.01 0 -0.88 1.75 -0.43c3.95,-1.03 8.11,-2.42 12.5,-4.17 4.39,-1.76 8.44,-4.06 12.17,-6.91 3.72,-2.85 6.83,-6.29 9.32,-10.31 2.48,-4.02 3.72,-8.88 3.72,-14.58 0,-10.52 -3.11,-18.35 -9.32,-23.46 -6.21,-5.11 -14.58,-7.67 -25.1,-7.67 -2.49,0 -4.79,0.07 -6.91,0.22 -2.12,0.15 -4.5,0.36 -7.13,0.66l0 140.54c-1.61,0.15 -3.4,0.29 -5.37,0.44 -1.98,0.15 -3.84,0.22 -5.59,0.22 -1.76,0 -3.65,-0.04 -5.7,-0.11 -2.05,-0.07 -3.94,-0.26 -5.7,-0.55l0 -157.86zm141.7 0.22l86.6 0c0.44,2.93 0.66,6.14 0.66,9.65 0,1.61 -0.04,3.29 -0.11,5.04 -0.07,1.76 -0.25,3.36 -0.55,4.82l-64.24 0 0 45.17 51.3 0c0.3,1.46 0.51,3.03 0.66,4.71 0.15,1.68 0.22,3.33 0.22,4.93 0,1.61 -0.07,3.29 -0.22,5.04 -0.15,1.75 -0.37,3.36 -0.66,4.82l-51.3 0 0 53.94 66 0c0.44,2.92 0.66,6.14 0.66,9.65 0,1.61 -0.04,3.29 -0.11,5.04 -0.07,1.76 -0.26,3.36 -0.55,4.82l-88.36 0 0 -157.64zm133.15 0c1.76,-0.3 3.76,-0.51 6.03,-0.66 2.27,-0.15 4.43,-0.22 6.47,-0.22 2.05,0 4.28,0.07 6.69,0.22 2.41,0.15 4.42,0.36 6.03,0.66l40.78 98.67 41 -98.67c1.46,-0.3 3.29,-0.51 5.48,-0.66 2.19,-0.15 4.31,-0.22 6.36,-0.22 1.9,0 4.02,0.07 6.36,0.22 2.34,0.15 4.31,0.36 5.92,0.66l7.46 157.64c-1.76,0.29 -3.55,0.51 -5.38,0.66 -1.83,0.15 -3.69,0.22 -5.59,0.22 -1.9,0 -3.76,-0.07 -5.59,-0.22 -1.83,-0.15 -3.54,-0.37 -5.15,-0.66l-5.04 -122.56 -38.59 89.89c-2.92,0.44 -5.92,0.66 -8.99,0.66 -2.78,0 -5.55,-0.22 -8.33,-0.66l-37.27 -90.55 -5.04 123.22c-1.61,0.29 -3.29,0.51 -5.04,0.66 -1.76,0.15 -3.43,0.22 -5.04,0.22 -1.9,0 -3.73,-0.07 -5.48,-0.22 -1.75,-0.15 -3.43,-0.37 -5.04,-0.66l7.02 -157.64zm185.77 0c1.75,-0.3 3.58,-0.51 5.48,-0.66 1.9,-0.15 3.8,-0.22 5.7,-0.22 1.9,0 3.8,0.07 5.7,0.22 1.9,0.15 3.73,0.36 5.48,0.66l0 157.64c-1.75,0.29 -3.54,0.51 -5.37,0.66 -1.83,0.15 -3.76,0.22 -5.81,0.22 -1.9,0 -3.83,-0.07 -5.81,-0.22 -1.97,-0.15 -3.76,-0.37 -5.37,-0.66l0 -157.64zm70.67 0c3.51,-0.44 7.31,-0.66 11.4,-0.66 3.95,0 7.6,0.22 10.96,0.66l0 89.45c0,9.06 0.59,16.81 1.76,23.24 1.17,6.43 3.07,11.65 5.7,15.67 2.63,4.02 6.1,6.98 10.41,8.88 4.31,1.9 9.61,2.85 15.9,2.85 6.29,0 11.55,-0.95 15.79,-2.85 4.24,-1.9 7.67,-4.86 10.3,-8.88 2.63,-4.02 4.53,-9.24 5.7,-15.67 1.17,-6.43 1.75,-14.18 1.75,-23.24l0 -89.45c3.65,-0.44 7.39,-0.66 11.18,-0.66 4.09,0 7.9,0.22 11.41,0.66l0 93.4c0,10.52 -0.99,19.95 -2.96,28.28 -1.98,8.33 -5.19,15.35 -9.65,21.05 -4.46,5.7 -10.26,10.05 -17.43,13.05 -7.16,3 -15.86,4.49 -26.09,4.49 -10.23,0 -18.93,-1.5 -26.09,-4.49 -7.16,-3 -12.97,-7.35 -17.43,-13.05 -4.46,-5.7 -7.67,-12.72 -9.65,-21.05 -1.97,-8.33 -2.96,-17.76 -2.96,-28.28l0 -93.4zm164.94 0c1.76,-0.3 3.77,-0.51 6.03,-0.66 2.27,-0.15 4.42,-0.22 6.47,-0.22 2.05,0 4.28,0.07 6.69,0.22 2.41,0.15 4.43,0.36 6.03,0.66l40.78 98.67 41 -98.67c1.46,-0.3 3.29,-0.51 5.48,-0.66 2.19,-0.15 4.31,-0.22 6.36,-0.22 1.9,0 4.02,0.07 6.35,0.22 2.34,0.15 4.31,0.36 5.92,0.66l7.46 157.64c-1.76,0.29 -3.55,0.51 -5.37,0.66 -1.83,0.15 -3.69,0.22 -5.59,0.22 -1.91,0 -3.77,-0.07 -5.59,-0.22 -1.83,-0.15 -3.54,-0.37 -5.15,-0.66l-5.04 -122.56 -38.59 89.89c-2.92,0.44 -5.92,0.66 -8.99,0.66 -2.78,0 -5.56,-0.22 -8.33,-0.66l-37.28 -90.55 -5.04 123.22c-1.61,0.29 -3.29,0.51 -5.04,0.66 -1.76,0.15 -3.44,0.22 -5.05,0.22 -1.9,0 -3.72,-0.07 -5.48,-0.22 -1.75,-0.15 -3.43,-0.37 -5.04,-0.66l7.01 -157.64zm281.39 0c1.61,-0.3 3.54,-0.51 5.81,-0.66 2.26,-0.15 4.42,-0.22 6.47,-0.22 1.9,0 3.98,0.07 6.24,0.22 2.27,0.15 4.35,0.36 6.25,0.66l39.9 134.84 39.69 -134.84c3.95,-0.44 7.97,-0.66 12.06,-0.66 1.9,0 3.91,0.04 6.03,0.11 2.12,0.07 4.06,0.25 5.81,0.55l-51.3 157.64c-1.9,0.29 -4.02,0.51 -6.36,0.66 -2.34,0.15 -4.53,0.22 -6.57,0.22 -2.05,0 -4.2,-0.07 -6.47,-0.22 -2.27,-0.15 -4.43,-0.37 -6.47,-0.66l-51.09 -157.64zm163.62 0c1.76,-0.3 3.58,-0.51 5.48,-0.66 1.9,-0.15 3.8,-0.22 5.7,-0.22 1.9,0 3.8,0.07 5.7,0.22 1.9,0.15 3.73,0.36 5.48,0.66l0 157.64c-1.75,0.29 -3.55,0.51 -5.37,0.66 -1.83,0.15 -3.76,0.22 -5.81,0.22 -1.9,0 -3.84,-0.07 -5.81,-0.22 -1.98,-0.15 -3.76,-0.37 -5.37,-0.66l0 -157.64zm72.2 0c1.61,-0.3 3.32,-0.51 5.15,-0.66 1.83,-0.15 3.76,-0.22 5.81,-0.22 1.9,0 3.8,0.07 5.7,0.22 1.9,0.15 3.72,0.36 5.48,0.66l0 137.91 61.83 0c0.3,1.61 0.48,3.29 0.55,5.05 0.07,1.75 0.11,3.36 0.11,4.82 0,3.51 -0.22,6.8 -0.66,9.87l-83.97 0 0 -157.64zm119.78 0c1.61,-0.3 3.32,-0.51 5.15,-0.66 1.83,-0.15 3.76,-0.22 5.81,-0.22 1.9,0 3.8,0.07 5.7,0.22 1.9,0.15 3.72,0.36 5.48,0.66l0 137.91 61.83 0c0.3,1.61 0.48,3.29 0.55,5.05 0.07,1.75 0.11,3.36 0.11,4.82 0,3.51 -0.22,6.8 -0.66,9.87l-83.97 0 0 -157.64zm197.39 121.24l-59.85 0 -10.74 36.4c-1.9,0.29 -3.8,0.51 -5.7,0.66 -1.9,0.15 -3.8,0.22 -5.7,0.22 -2.05,0 -4.06,-0.07 -6.03,-0.22 -1.97,-0.15 -3.76,-0.37 -5.37,-0.66l51.3 -157.64c1.9,-0.3 3.95,-0.51 6.14,-0.66 2.19,-0.15 4.46,-0.22 6.8,-0.22 2.05,0 4.17,0.07 6.36,0.22 2.19,0.15 4.31,0.36 6.36,0.66l51.09 157.64c-1.75,0.29 -3.73,0.51 -5.92,0.66 -2.19,0.15 -4.31,0.22 -6.36,0.22 -1.9,0 -3.84,-0.07 -5.81,-0.22 -1.98,-0.15 -3.84,-0.37 -5.59,-0.66l-10.96 -36.4zm-53.94 -19.51l48.02 0 -24.12 -80.46 -23.9 80.46zm232.93 -101.95c2.19,-0.29 4.79,-0.59 7.78,-0.88 3,-0.29 6.14,-0.55 9.43,-0.76 3.29,-0.22 6.58,-0.41 9.87,-0.55 3.29,-0.15 6.46,-0.22 9.54,-0.22 8.04,0 15.68,0.81 22.91,2.41 7.24,1.61 13.59,4.39 19.08,8.33 5.48,3.94 9.83,9.17 13.04,15.67 3.22,6.5 4.82,14.65 4.82,24.45 0,10.23 -1.72,18.74 -5.15,25.54 -3.43,6.8 -7.96,12.24 -13.59,16.33 -5.63,4.09 -12.02,6.98 -19.19,8.66 -7.16,1.68 -14.47,2.52 -21.93,2.52 -2.78,0 -5.23,-0.04 -7.34,-0.11 -2.12,-0.07 -4.43,-0.26 -6.91,-0.55l0 57c-3.51,0.44 -7.23,0.66 -11.18,0.66 -1.75,0 -3.62,-0.04 -5.59,-0.11 -1.97,-0.07 -3.83,-0.26 -5.59,-0.55l0 -157.86zm22.36 81.34c2.34,0.29 4.39,0.51 6.14,0.66 1.76,0.15 4.31,0.22 7.67,0.22 4.53,0 9.03,-0.48 13.48,-1.43 4.46,-0.95 8.44,-2.67 11.95,-5.15 3.51,-2.48 6.32,-5.88 8.44,-10.19 2.12,-4.31 3.18,-9.91 3.18,-16.78 0,-5.99 -0.91,-11.04 -2.74,-15.13 -1.83,-4.09 -4.35,-7.38 -7.56,-9.87 -3.22,-2.49 -7.09,-4.24 -11.62,-5.26 -4.53,-1.02 -9.43,-1.54 -14.69,-1.54 -5.41,0 -10.16,0.22 -14.25,0.66l0 63.8zm112.98 -81.12c1.61,-0.3 3.33,-0.51 5.15,-0.66 1.83,-0.15 3.76,-0.22 5.81,-0.22 1.9,0 3.8,0.07 5.7,0.22 1.9,0.15 3.72,0.36 5.48,0.66l0 137.91 61.83 0c0.3,1.61 0.48,3.29 0.55,5.05 0.07,1.75 0.11,3.36 0.11,4.82 0,3.51 -0.22,6.8 -0.66,9.87l-83.97 0 0 -157.64zm173.93 160.27c-11.41,0 -21.27,-2.01 -29.6,-6.03 -8.33,-4.02 -15.24,-9.65 -20.72,-16.88 -5.48,-7.24 -9.57,-15.82 -12.28,-25.76 -2.7,-9.94 -4.06,-20.83 -4.06,-32.67 0,-11.84 1.35,-22.73 4.06,-32.67 2.7,-9.94 6.8,-18.53 12.28,-25.76 5.48,-7.24 12.39,-12.9 20.72,-16.99 8.33,-4.09 18.2,-6.14 29.6,-6.14 11.4,0 21.26,2.05 29.59,6.14 8.33,4.09 15.24,9.76 20.72,16.99 5.48,7.24 9.54,15.82 12.17,25.76 2.63,9.94 3.95,20.83 3.95,32.67 0,11.84 -1.32,22.73 -3.95,32.67 -2.63,9.94 -6.69,18.53 -12.17,25.76 -5.48,7.24 -12.39,12.86 -20.72,16.88 -8.33,4.02 -18.2,6.03 -29.59,6.03zm0 -19.29c7.31,0 13.63,-1.43 18.96,-4.28 5.33,-2.85 9.75,-6.98 13.26,-12.39 3.51,-5.41 6.14,-11.91 7.9,-19.51 1.75,-7.6 2.63,-16.22 2.63,-25.87 0,-9.5 -0.88,-18.09 -2.63,-25.76 -1.76,-7.67 -4.39,-14.18 -7.9,-19.51 -3.51,-5.33 -7.93,-9.43 -13.26,-12.28 -5.33,-2.85 -11.66,-4.27 -18.96,-4.27 -7.31,0 -13.63,1.42 -18.97,4.27 -5.33,2.85 -9.76,6.94 -13.26,12.28 -3.51,5.33 -6.14,11.84 -7.89,19.51 -1.76,7.68 -2.63,16.26 -2.63,25.76 0,9.65 0.87,18.27 2.63,25.87 1.75,7.6 4.39,14.1 7.89,19.51 3.51,5.41 7.93,9.54 13.26,12.39 5.33,2.85 11.66,4.28 18.97,4.28zm129.2 -121.47l-41 0c-0.3,-1.46 -0.51,-3.07 -0.66,-4.82 -0.15,-1.75 -0.22,-3.43 -0.22,-5.04 0,-1.61 0.07,-3.25 0.22,-4.93 0.15,-1.68 0.36,-3.25 0.66,-4.71l104.36 0c0.3,1.46 0.51,3 0.66,4.61 0.15,1.6 0.22,3.21 0.22,4.82 0,1.61 -0.07,3.32 -0.22,5.15 -0.15,1.83 -0.37,3.47 -0.66,4.93l-41 0 0 138.13c-3.37,0.44 -7.02,0.66 -10.96,0.66 -4.09,0 -7.89,-0.22 -11.4,-0.66l0 -138.13zm93.25 114.23c4.82,1.76 9.86,3.29 15.13,4.61 5.26,1.31 11.69,1.98 19.3,1.98 11.98,0 20.94,-2.45 26.86,-7.35 5.92,-4.9 8.88,-11.51 8.88,-19.84 0,-4.09 -0.62,-7.6 -1.87,-10.53 -1.24,-2.92 -3.11,-5.44 -5.59,-7.56 -2.48,-2.12 -5.59,-4.06 -9.32,-5.81 -3.73,-1.75 -8.07,-3.66 -13.04,-5.7l-12.5 -5.04c-4.24,-1.76 -8.11,-3.69 -11.62,-5.81 -3.51,-2.12 -6.54,-4.72 -9.1,-7.78 -2.56,-3.07 -4.57,-6.61 -6.03,-10.63 -1.46,-4.02 -2.19,-8.81 -2.19,-14.36 0,-13.3 4.53,-23.72 13.59,-31.24 9.06,-7.53 21.78,-11.3 38.15,-11.3 7.02,0 13.67,0.59 19.95,1.76 6.28,1.17 11.84,2.63 16.66,4.39 -0.73,6.14 -2.34,12.2 -4.82,18.2 -3.94,-1.46 -8.52,-2.78 -13.7,-3.94 -5.19,-1.17 -11.07,-1.76 -17.65,-1.76 -9.2,0 -16.3,1.86 -21.27,5.59 -4.97,3.72 -7.45,9.31 -7.45,16.77 0,3.07 0.62,5.81 1.86,8.22 1.24,2.41 2.89,4.53 4.93,6.36 2.05,1.83 4.46,3.47 7.24,4.93 2.78,1.46 5.7,2.78 8.77,3.94l12.28 4.82c5.85,2.34 11.04,4.79 15.57,7.35 4.53,2.56 8.4,5.55 11.62,8.99 3.22,3.43 5.67,7.49 7.35,12.17 1.68,4.68 2.52,10.16 2.52,16.44 0,15.06 -5.19,26.93 -15.57,35.63 -10.38,8.7 -24.92,13.05 -43.63,13.05 -4.53,0 -8.63,-0.15 -12.28,-0.44 -3.65,-0.3 -7.05,-0.73 -10.2,-1.31 -3.14,-0.59 -6.17,-1.32 -9.09,-2.19 -2.93,-0.88 -5.92,-1.83 -8.99,-2.85 0.29,-3.22 0.94,-6.5 1.97,-9.87 1.03,-3.36 2.12,-6.65 3.29,-9.87z"/>
  </g>
 </g>
</svg>
