<?xml version="1.0" encoding="UTF-8"?>
<!DOCTYPE svg PUBLIC "-//W3C//DTD SVG 1.1//EN" "http://www.w3.org/Graphics/SVG/1.1/DTD/svg11.dtd">
<!-- Creator: CorelDRAW 2020 (64-Bit) -->
<svg xmlns="http://www.w3.org/2000/svg" xml:space="preserve" width="3.71814in" height="1.61909in" version="1.1" style="shape-rendering:geometricPrecision; text-rendering:geometricPrecision; image-rendering:optimizeQuality; fill-rule:evenodd; clip-rule:evenodd"
viewBox="0 0 3718.14 1619.09"
 xmlns:xlink="http://www.w3.org/1999/xlink"
 xmlns:xodm="http://www.corel.com/coreldraw/odm/2003">
 <defs>
  <style type="text/css">
   <![CDATA[
    .fil0 {fill:#FEB900}
    .fil1 {fill:#FEFEFE;fill-rule:nonzero}
   ]]>
  </style>
 </defs>
 <g id="Layer_x0020_1">
  <metadata id="CorelCorpID_0Corel-Layer"/>
  <g id="_1750299597424">
   <path class="fil0" d="M2532.11 250.33l0 -36.93c-83.03,0 -170.27,29.61 -225.77,57.4 -74.4,37.28 -143.5,92.85 -195.65,157.28 -33.33,41.21 -59.83,81.46 -81,132.41 -8.11,19.53 -13.13,27.2 -20.39,49.36 -6.02,18.33 -11.35,35.81 -15.24,54.54 -4.68,22.47 -17.63,105.98 -16.64,128.03 1.4,31.9 19.06,19.11 45.8,16.07 38.07,-4.3 77.71,-14.32 113.36,-26.19 220.75,-73.48 395.52,-299.04 395.52,-531.97zm-1346.36 -0.5l0 -36.93c83.01,0 170.26,29.61 225.75,57.4 74.41,37.28 143.52,92.85 195.65,157.28 33.35,41.21 59.85,81.46 81,132.4 8.11,19.54 13.13,27.21 20.39,49.37 6.01,18.33 11.35,35.81 15.25,54.54 4.67,22.47 17.61,105.97 16.64,128.04 -1.42,31.89 -19.07,19.1 -45.81,16.07 -38.07,-4.32 -77.72,-14.33 -113.37,-26.21 -220.75,-73.47 -395.5,-299.04 -395.5,-531.97zm258.82 0.5c32.79,7.64 139.53,98.04 168.87,134.82 9.13,11.42 13.89,15.76 22.83,26.41 10.94,13.01 10.13,23.37 25.8,27.56 0,-174.21 41.04,-256.75 41.04,-274.96 0,-5.79 -37.43,-43.59 -44.13,-50.28 -28.4,-28.39 -130.86,-90.61 -169.28,-113.87 -25.03,107.43 -45.15,128.62 -45.15,250.33zm448.26 -221.94l-24.44 -27.68c-62.24,54.93 -108.06,134.88 -131.26,192.43 -31.11,77.18 -46.15,164.58 -42.58,247.4 2.28,52.96 9.04,100.67 26.9,152.86 6.83,20.01 8.15,29.08 17.37,50.51 7.63,17.72 15.18,34.35 24.67,50.96 11.37,19.96 56.93,91.12 72.26,107.01 22.17,22.97 26.93,1.71 44.97,-18.28 25.68,-28.43 48.78,-62.17 67.65,-94.67 116.86,-201.18 98.59,-485.93 -55.54,-660.56zm384.87 221.94c-32.78,7.64 -139.51,98.04 -168.87,134.82 -9.11,11.42 -13.89,15.76 -22.83,26.41 -10.93,13.01 -10.12,23.37 -25.8,27.56 0,-174.21 -41.03,-256.75 -41.03,-274.96 0,-5.79 37.43,-43.59 44.11,-50.28 28.4,-28.39 130.87,-90.61 169.29,-113.87 25.01,107.43 45.14,128.62 45.14,250.33z"/>
   <g>
    <image x="1372.92" y="342.83" width="972.31" height="477.88" xlink:href="maanya lotus logo_Images\maanya lotus logo_ImgID1.png"/>
   </g>
   <g>
    <g>
     <path class="fil1" d="M260.44 1617.37m101.27 -58.36c0,-16.65 -5.15,-30.04 -15.11,-40.16 -10.13,-10.13 -23.34,-15.11 -39.82,-15.11 -2.23,0 -4.81,0.17 -7.9,0.34 -2.92,0.35 -5.32,0.52 -7.21,0.86 0,1.37 0,3.43 -0.17,6.18 -0.34,14.76 -0.52,25.92 -0.52,33.3 0,6.18 0.17,14.93 0.34,26.26 0.17,5.32 0.34,9.44 0.34,12.36l0.52 24.37c3.95,1.37 7.72,2.41 11.33,2.92 3.6,0.69 7.55,1.03 11.84,1.03 14.76,0 26.26,-4.63 34.33,-13.9 7.89,-9.27 12.02,-22.14 12.02,-38.45zm18.88 -1.72c0,17.85 -5.83,32.61 -17.68,43.94 -12.02,11.33 -27.81,16.99 -47.54,16.99 -4.12,0 -9.78,-0.34 -16.99,-0.86 -7.04,-0.52 -12.36,-0.86 -15.62,-0.86 -3.09,0 -6.52,0 -10.3,0.17 -3.61,0.17 -7.56,0.34 -12.02,0.69l0 -3.61c0.34,0 0.69,0 1.2,0.17 0.52,0 1.37,0 2.23,0 4.98,0 8.24,-1.72 9.78,-5.32 1.37,-3.61 2.23,-10.64 2.23,-21.28l0 -62.65c0,-10.3 -0.69,-16.82 -2.06,-19.74 -1.54,-2.92 -4.8,-4.29 -9.95,-4.29 -0.69,0 -1.2,0 -1.55,0 -0.34,0 -0.69,0 -1.03,0.17l0 -3.6c3.26,0.17 6.69,0.51 10.64,0.69 3.78,0.17 7.55,0.17 10.81,0.17 2.92,0 7.38,-0.17 13.73,-0.52 6.35,-0.17 10.98,-0.34 13.73,-0.34 21.28,0 38.44,5.32 51.15,16.3 12.87,10.81 19.22,25.41 19.22,43.77zm15.45 60.07m93.54 -24.89c-1.55,4.8 -2.92,9.27 -4.12,13.39 -1.03,3.95 -2.06,7.89 -2.75,11.5 -2.06,0 -5.15,-0.17 -9.27,-0.34 -12.87,-0.34 -23.17,-0.52 -31.07,-0.52 -10.98,0 -25.92,0.34 -44.8,0.69l-1.54 0.17 0 -3.61c0.34,0 0.69,0 1.2,0.17 0.52,0 1.37,0 2.23,0 4.98,0 8.24,-1.72 9.78,-5.32 1.37,-3.61 2.23,-10.64 2.23,-21.28l0 -62.65c0,-10.3 -0.69,-16.82 -2.06,-19.74 -1.54,-2.92 -4.8,-4.29 -9.95,-4.29 -0.69,0 -1.2,0 -1.55,0 -0.34,0 -0.69,0 -1.03,0.17l0 -3.6 2.74 0.17c19.74,1.03 34.16,1.55 42.74,1.55 4.46,0 9.95,-0.17 16.65,-0.52 6.52,-0.34 13.73,-0.69 21.11,-1.2 0,3.43 0.17,7.04 0.34,10.81 0.34,3.95 0.86,8.41 1.37,13.56l-3.43 0.52c-2.23,-7.89 -5.15,-12.7 -8.41,-14.42 -3.43,-1.89 -10.3,-2.75 -20.77,-2.75 -3.78,0 -7.56,0 -11.5,0.17 -3.95,0 -7.38,0.17 -10.47,0.34 0,4.98 -0.17,10.64 -0.17,17.17 -0.17,6.52 -0.17,16.48 -0.17,29.87 1.37,0.17 2.75,0.34 4.12,0.34 1.37,0.17 2.92,0.17 4.46,0.17l15.45 0c7.89,0 13.39,-0.86 16.3,-2.4 3.09,-1.54 4.63,-4.63 5.15,-9.1l3.43 0.35c-0.34,2.06 -0.69,4.29 -0.86,6.69 -0.17,2.4 -0.34,4.98 -0.34,7.89 0,2.75 0.17,5.49 0.34,8.07 0.17,2.57 0.52,5.32 0.86,8.24l-3.43 0.34c-0.52,-5.49 -2.06,-9.09 -5.15,-10.98 -2.92,-1.89 -8.41,-2.75 -16.3,-2.75l-15.45 0c-1.72,0 -3.26,0 -4.63,0.17 -1.2,0 -2.57,0.17 -3.95,0.34 0,7.55 0.17,15.79 0.34,25.06 0,9.27 0.35,17.17 0.52,23.86 3.95,0.34 7.9,0.69 12.02,1.03 3.95,0.17 7.72,0.34 11.16,0.34 10.64,0 18.36,-1.2 23,-3.43 4.8,-2.4 8.75,-7.55 12.19,-15.45l3.43 1.2zm15.45 24.89m79.81 -35.19c0,10.47 -4.29,19.39 -13.04,26.26 -8.76,7.04 -19.91,10.64 -33.3,10.64 -4.46,0 -9.1,-0.52 -14.07,-1.37 -4.98,-1.03 -10.47,-2.57 -16.82,-4.63l0 -2.4c0,-4.29 -0.34,-8.93 -0.69,-14.25 -0.51,-5.49 -1.2,-9.27 -1.89,-11.67l4.63 -1.2c1.72,10.13 5.15,17.5 10.3,22.14 5.15,4.64 12.53,6.87 21.97,6.87 8.24,0 14.93,-2.4 20.25,-7.04 5.32,-4.81 8.07,-10.47 8.07,-17.33 0,-5.67 -2.06,-10.47 -6,-14.42 -4.12,-3.95 -10.64,-7.38 -19.74,-10.47l-5.15 -1.72c-11.16,-3.78 -18.88,-8.07 -23.34,-13.04 -4.46,-5.15 -6.69,-11.67 -6.69,-19.57 0,-9.44 3.94,-17.33 11.84,-23.86 8.07,-6.35 17.85,-9.61 29.35,-9.61 4.12,0 8.58,0.34 13.56,1.2 4.81,0.69 9.44,1.72 13.9,3.09 0,3.43 0.17,6.86 0.52,10.13 0.34,3.26 1.03,7.21 2.06,12.19l-3.95 1.2c-2.06,-7.55 -5.32,-13.22 -9.78,-16.65 -4.46,-3.43 -10.81,-5.15 -18.88,-5.15 -7.55,0 -13.73,1.89 -18.19,5.83 -4.46,3.95 -6.7,9.09 -6.7,15.62 0,5.15 1.89,9.61 5.67,13.22 3.78,3.6 10.13,6.87 19.22,9.96l5.15 1.72c11.84,3.94 20.08,8.58 24.72,13.9 4.63,5.32 7.04,12.02 7.04,20.43z"/>
     <path class="fil1" d="M591.96 1617.37m103.84 -95.26l-3.43 0.86c-2.23,-7.72 -4.81,-12.7 -7.72,-14.76 -2.92,-2.23 -8.07,-3.26 -15.45,-3.26l-16.82 0c-0.17,8.58 -0.34,15.11 -0.34,19.74l0 61.79c0,11.84 0.86,19.39 2.57,22.65 1.72,3.09 5.49,4.81 11.15,4.81 0.69,0 1.37,0 1.89,0 0.34,-0.17 1.03,-0.17 1.54,-0.17l0 3.61c-6.52,-0.34 -11.67,-0.52 -15.44,-0.69 -3.61,-0.17 -6.7,-0.17 -9.44,-0.17 -2.57,0 -5.83,0 -9.44,0.17 -3.6,0.17 -8.75,0.34 -15.45,0.69l0 -3.61c0.52,0 1.2,0 1.72,0.17 0.35,0 1.03,0 1.72,0 5.67,0 9.44,-1.72 11.16,-4.81 1.72,-3.26 2.57,-10.81 2.57,-22.65l0 -61.79c0,-4.63 -0.17,-11.16 -0.34,-19.74l-15.96 0c-7.38,0 -12.87,1.2 -16.3,3.61 -3.43,2.57 -6.35,7.21 -8.58,14.42l-3.43 -0.86c1.2,-4.63 2.06,-8.75 2.57,-12.7 0.69,-3.78 0.86,-8.24 0.86,-13.04 2.92,1.2 6.35,1.89 10.3,2.23 3.94,0.17 10.3,0.35 18.88,0.35l37.76 0c8.93,0 15.62,-0.17 20.08,-0.52 4.46,-0.34 8.58,-1.03 12.19,-2.06 -0.35,1.72 -0.52,4.29 -0.52,7.72 0,2.57 0.17,5.32 0.34,8.24 0.34,2.75 0.86,6.01 1.37,9.78zm6.87 95.26m48.06 0c-0.34,0 -1.03,0 -1.89,-0.17 -9.95,-0.34 -17.33,-0.69 -22.14,-0.69 -4.63,0 -12.01,0.34 -22.14,0.69 -0.86,0.17 -1.54,0.17 -1.89,0.17l0 -3.61c0.34,0 0.69,0 1.03,0.17 0.52,0 1.2,0 2.41,0 5.32,0 8.75,-1.72 10.47,-4.98 1.55,-3.26 2.41,-10.81 2.41,-22.48l0 -61.79c0,-10.47 -0.69,-16.99 -2.23,-19.91 -1.55,-2.75 -5.15,-4.12 -10.64,-4.12 -0.69,0 -1.2,0 -1.55,0 -0.34,0 -0.69,0 -1.03,0.17l0 -3.6c0.34,0 1.03,0 1.72,0 10.3,0.51 17.33,0.86 21.45,0.86 4.12,0 11.16,-0.17 21.11,-0.69 0.86,-0.17 1.54,-0.17 2.06,-0.17l0 3.6c-0.34,-0.17 -0.69,-0.17 -1.03,-0.17 -0.34,0 -0.86,0 -1.54,0 -5.49,0 -9.1,1.37 -10.64,4.12 -1.37,2.92 -2.23,9.44 -2.23,19.91l0 61.79c0,11.67 0.86,19.22 2.41,22.48 1.71,3.26 5.15,4.98 10.47,4.98 1.2,0 1.89,0 2.4,0 0.34,-0.17 0.69,-0.17 1.03,-0.17l0 3.61zm12.87 0m124.44 -116.54c-0.52,-0.17 -1.2,-0.17 -1.89,-0.17 -2.06,0 -3.78,0.34 -5.49,1.2 -1.72,0.69 -2.92,1.72 -3.78,3.09 -1.37,2.06 -2.23,7.38 -2.74,15.62 -0.34,8.41 -0.69,21.28 -0.69,38.44l0 34.33c0,4.63 0.17,9.44 0.52,14.24 0.34,4.63 0.69,8.24 1.2,10.64l-6 0c-0.35,-0.69 -1.03,-1.72 -2.06,-3.09 -1.03,-1.37 -2.23,-3.09 -3.94,-4.98l-77.24 -92.34 0 37.76c0,19.57 0.17,32.96 0.69,40.17 0.34,7.38 1.37,12.02 2.74,13.9 1.2,1.55 2.57,2.57 4.29,3.26 1.72,0.69 3.95,1.03 6.87,1.03 1.2,0 2.23,0 3.43,-0.17l0 3.61c-1.03,0 -2.57,-0.17 -4.81,-0.34 -7.38,-0.34 -12.7,-0.52 -15.79,-0.52 -2.57,0 -7.38,0.17 -14.59,0.52 -2.23,0.17 -3.95,0.34 -5.15,0.34l0 -3.61c0.34,0 0.69,0 1.03,0.17 0.52,0 1.03,0 1.72,0 2.06,0 3.78,-0.34 5.49,-1.2 1.55,-0.69 2.92,-1.72 3.78,-3.09 1.37,-2.06 2.23,-7.21 2.74,-15.62 0.52,-8.41 0.69,-21.28 0.69,-38.45l0 -32.61c0,-8.41 -0.86,-14.24 -2.57,-17.51 -1.89,-3.26 -5.15,-4.8 -10.3,-4.8 -0.52,0 -1.37,0 -2.57,0.17l0 -3.6c0.17,0 0.52,0 0.86,0 6.52,0.51 11.5,0.86 14.76,0.86 1.54,0 3.61,0 6.01,-0.17 2.4,-0.17 4.98,-0.52 7.55,-0.69 0.86,2.23 2.06,4.46 3.61,6.69 1.54,2.4 3.78,5.32 6.69,8.75l63.51 76.38 0 -30.04c0,-19.05 -0.17,-32.27 -0.35,-39.99 -0.34,-7.72 -1.03,-12.36 -2.23,-14.07 -1.03,-1.54 -2.41,-2.74 -4.12,-3.43 -1.72,-0.52 -4.12,-0.86 -7.04,-0.86l-1.72 0.17 0 -3.6c4.98,0.34 8.75,0.51 11.5,0.69 2.57,0.17 4.81,0.17 6.52,0.17 1.89,0 4.46,0 7.89,-0.17 3.26,-0.17 6.87,-0.52 10.98,-0.69l0 3.6zm0.86 116.54m75.87 -52.35l-17.51 -53.21 -19.74 53.21c2.06,0.17 4.81,0.52 8.41,0.69 3.6,0.17 6.86,0.17 9.61,0.17 2.74,0 6.01,0 9.78,-0.17 3.78,-0.17 6.87,-0.52 9.44,-0.69zm45.14 52.35c-0.86,0 -2.41,-0.17 -4.46,-0.34 -7.72,-0.34 -13.39,-0.52 -16.99,-0.52 -4.46,0 -10.64,0.17 -18.54,0.52 -2.41,0.17 -4.29,0.34 -5.49,0.34l0 -3.61c0.51,0.17 1.2,0.17 1.71,0.17 3.78,0 6.52,-0.69 8.41,-1.89 1.89,-1.37 2.74,-3.26 2.74,-5.84 0,-2.23 -0.69,-5.66 -2.06,-10.3 -1.2,-4.63 -4.12,-12.7 -8.24,-24.03 -3.09,-0.17 -6.35,-0.34 -9.78,-0.34 -3.6,-0.17 -7.38,-0.17 -11.67,-0.17 -4.29,0 -8.07,0 -11.5,0.17 -3.43,0 -6.52,0.17 -9.1,0.34 -0.51,1.54 -1.37,3.78 -2.57,6.52 -5.66,15.1 -8.58,24.2 -8.58,27.8 0,2.57 1.03,4.46 2.74,5.84 1.89,1.2 4.81,1.89 8.41,1.89 0.52,0 1.2,0 1.72,-0.17l0 3.61c-3.43,-0.34 -6.69,-0.52 -9.95,-0.69 -3.26,-0.17 -6.18,-0.17 -8.93,-0.17 -2.57,0 -5.67,0 -8.93,0.17 -3.26,0.17 -6.52,0.34 -9.96,0.69l0 -3.61c0.52,0.17 1.2,0.17 1.72,0.17 2.57,0 4.98,-0.86 7.21,-2.57 2.23,-1.54 4.12,-3.95 5.67,-6.87 2.06,-4.12 6.18,-13.73 12.19,-29 6.01,-15.11 16.31,-41.54 30.72,-79.13l12.02 0c8.07,24.03 15.44,46 22.31,65.74 6.69,19.74 11.67,33.64 14.59,41.54 1.37,3.78 3.09,6.35 5.15,7.9 1.89,1.54 4.46,2.4 7.72,2.4 0.51,0 1.2,0 1.72,-0.17l0 3.61z"/>
     <path class="fil1" d="M995.47 1617.37m103.84 -95.26l-3.43 0.86c-2.23,-7.72 -4.81,-12.7 -7.72,-14.76 -2.92,-2.23 -8.07,-3.26 -15.45,-3.26l-16.82 0c-0.17,8.58 -0.34,15.11 -0.34,19.74l0 61.79c0,11.84 0.86,19.39 2.57,22.65 1.72,3.09 5.49,4.81 11.15,4.81 0.69,0 1.37,0 1.89,0 0.34,-0.17 1.03,-0.17 1.54,-0.17l0 3.61c-6.52,-0.34 -11.67,-0.52 -15.44,-0.69 -3.61,-0.17 -6.7,-0.17 -9.44,-0.17 -2.57,0 -5.83,0 -9.44,0.17 -3.6,0.17 -8.75,0.34 -15.45,0.69l0 -3.61c0.52,0 1.2,0 1.72,0.17 0.35,0 1.03,0 1.72,0 5.67,0 9.44,-1.72 11.16,-4.81 1.72,-3.26 2.57,-10.81 2.57,-22.65l0 -61.79c0,-4.63 -0.17,-11.16 -0.34,-19.74l-15.96 0c-7.38,0 -12.87,1.2 -16.3,3.61 -3.43,2.57 -6.35,7.21 -8.58,14.42l-3.43 -0.86c1.2,-4.63 2.06,-8.75 2.57,-12.7 0.69,-3.78 0.86,-8.24 0.86,-13.04 2.92,1.2 6.35,1.89 10.3,2.23 3.94,0.17 10.3,0.35 18.88,0.35l37.76 0c8.93,0 15.62,-0.17 20.08,-0.52 4.46,-0.34 8.58,-1.03 12.19,-2.06 -0.35,1.72 -0.52,4.29 -0.52,7.72 0,2.57 0.17,5.32 0.34,8.24 0.34,2.75 0.86,6.01 1.37,9.78zm6.87 95.26m48.06 0c-0.34,0 -1.03,0 -1.89,-0.17 -9.95,-0.34 -17.33,-0.69 -22.14,-0.69 -4.63,0 -12.01,0.34 -22.14,0.69 -0.86,0.17 -1.54,0.17 -1.89,0.17l0 -3.61c0.34,0 0.69,0 1.03,0.17 0.52,0 1.2,0 2.41,0 5.32,0 8.75,-1.72 10.47,-4.98 1.55,-3.26 2.41,-10.81 2.41,-22.48l0 -61.79c0,-10.47 -0.69,-16.99 -2.23,-19.91 -1.55,-2.75 -5.15,-4.12 -10.64,-4.12 -0.69,0 -1.2,0 -1.55,0 -0.34,0 -0.69,0 -1.03,0.17l0 -3.6c0.34,0 1.03,0 1.72,0 10.3,0.51 17.33,0.86 21.45,0.86 4.12,0 11.16,-0.17 21.11,-0.69 0.86,-0.17 1.54,-0.17 2.06,-0.17l0 3.6c-0.34,-0.17 -0.69,-0.17 -1.03,-0.17 -0.34,0 -0.86,0 -1.54,0 -5.49,0 -9.1,1.37 -10.64,4.12 -1.37,2.92 -2.23,9.44 -2.23,19.91l0 61.79c0,11.67 0.86,19.22 2.41,22.48 1.71,3.26 5.15,4.98 10.47,4.98 1.2,0 1.89,0 2.4,0 0.34,-0.17 0.69,-0.17 1.03,-0.17l0 3.61zm14.59 0m101.27 -56.64c0,-17.85 -3.95,-32.27 -11.85,-43.08 -7.89,-10.64 -18.36,-16.13 -31.06,-16.13 -11.5,0 -20.94,4.8 -28.32,14.42 -7.38,9.61 -11.16,22.14 -11.16,37.93 0,17.85 3.95,32.1 11.85,42.74 7.89,10.64 18.36,15.96 31.06,15.96 11.5,0 20.94,-4.8 28.49,-14.24 7.38,-9.44 10.99,-21.97 10.99,-37.59zm18.88 -3.43c0,17.17 -5.83,31.76 -17.51,43.77 -11.67,12.02 -25.74,18.02 -42.56,18.02 -17.68,0 -32.1,-5.83 -43.26,-17.51 -11.33,-11.67 -16.82,-26.43 -16.82,-44.28 0,-16.99 5.83,-31.58 17.68,-43.59 11.84,-12.19 25.92,-18.19 42.4,-18.19 17.5,0 31.92,5.83 43.08,17.5 11.33,11.67 16.99,26.43 16.99,44.28zm15.45 60.07m124.44 -116.54c-0.52,-0.17 -1.2,-0.17 -1.89,-0.17 -2.06,0 -3.78,0.34 -5.49,1.2 -1.72,0.69 -2.92,1.72 -3.78,3.09 -1.37,2.06 -2.23,7.38 -2.74,15.62 -0.34,8.41 -0.69,21.28 -0.69,38.44l0 34.33c0,4.63 0.17,9.44 0.52,14.24 0.34,4.63 0.69,8.24 1.2,10.64l-6 0c-0.35,-0.69 -1.03,-1.72 -2.06,-3.09 -1.03,-1.37 -2.23,-3.09 -3.94,-4.98l-77.24 -92.34 0 37.76c0,19.57 0.17,32.96 0.69,40.17 0.34,7.38 1.37,12.02 2.74,13.9 1.2,1.55 2.57,2.57 4.29,3.26 1.72,0.69 3.95,1.03 6.87,1.03 1.2,0 2.23,0 3.43,-0.17l0 3.61c-1.03,0 -2.57,-0.17 -4.81,-0.34 -7.38,-0.34 -12.7,-0.52 -15.79,-0.52 -2.57,0 -7.38,0.17 -14.59,0.52 -2.23,0.17 -3.95,0.34 -5.15,0.34l0 -3.61c0.34,0 0.69,0 1.03,0.17 0.52,0 1.03,0 1.72,0 2.06,0 3.78,-0.34 5.49,-1.2 1.55,-0.69 2.92,-1.72 3.78,-3.09 1.37,-2.06 2.23,-7.21 2.74,-15.62 0.52,-8.41 0.69,-21.28 0.69,-38.45l0 -32.61c0,-8.41 -0.86,-14.24 -2.57,-17.51 -1.89,-3.26 -5.15,-4.8 -10.3,-4.8 -0.52,0 -1.37,0 -2.57,0.17l0 -3.6c0.17,0 0.52,0 0.86,0 6.52,0.51 11.5,0.86 14.76,0.86 1.54,0 3.61,0 6.01,-0.17 2.4,-0.17 4.98,-0.52 7.55,-0.69 0.86,2.23 2.06,4.46 3.61,6.69 1.54,2.4 3.78,5.32 6.69,8.75l63.51 76.38 0 -30.04c0,-19.05 -0.17,-32.27 -0.35,-39.99 -0.34,-7.72 -1.03,-12.36 -2.23,-14.07 -1.03,-1.54 -2.41,-2.74 -4.12,-3.43 -1.72,-0.52 -4.12,-0.86 -7.04,-0.86l-1.72 0.17 0 -3.6c4.98,0.34 8.75,0.51 11.5,0.69 2.57,0.17 4.81,0.17 6.52,0.17 1.89,0 4.46,0 7.89,-0.17 3.26,-0.17 6.87,-0.52 10.98,-0.69l0 3.6z"/>
     <path class="fil1" d="M1496.58 1617.37m85.82 -95.78l-3.43 0.52c-2.23,-7.89 -5.15,-12.7 -8.41,-14.42 -3.43,-1.89 -10.3,-2.75 -20.77,-2.75 -3.78,0 -7.56,0 -11.5,0.17 -3.95,0 -7.38,0.17 -10.47,0.34 0,4.98 -0.17,10.64 -0.17,17.17 -0.17,6.52 -0.17,16.65 -0.17,30.38 1.37,0.17 2.75,0.35 3.95,0.35 1.37,0.17 2.92,0.17 4.63,0.17l13.73 0c7.72,0 13.22,-0.86 16.13,-2.4 3.09,-1.72 4.98,-4.81 5.32,-9.27l3.43 0.34c-0.34,2.06 -0.69,4.46 -0.86,6.87 -0.17,2.57 -0.34,4.98 -0.34,7.38 0,2.57 0.17,5.49 0.34,8.41 0.17,3.09 0.52,5.83 0.86,8.24l-3.43 0.52c-0.34,-5.32 -2.23,-9.1 -5.15,-10.98 -3.09,-1.89 -8.41,-2.75 -16.3,-2.75l-13.73 0c-1.72,0 -3.26,0 -4.63,0.17 -1.2,0 -2.57,0.17 -3.95,0.34 0,17.68 0.17,29.87 0.69,36.39 0.34,6.7 1.2,10.99 2.74,12.87 1.2,1.55 2.57,2.57 4.29,3.26 1.72,0.69 3.95,1.03 6.87,1.03 1.2,0 2.23,0 3.43,-0.17l0 3.61c-1.03,0 -2.75,-0.17 -4.81,-0.34 -8.93,-0.34 -15.45,-0.52 -20.08,-0.52 -4.98,0 -12.01,0.17 -20.94,0.69 -1.37,0 -2.41,0.17 -3.09,0.17l0 -3.61c0.34,0 0.69,0 1.2,0.17 0.52,0 1.37,0 2.23,0 4.98,0 8.24,-1.72 9.78,-4.98 1.54,-3.43 2.23,-10.98 2.23,-22.48l0 -61.79c0,-10.3 -0.69,-16.82 -2.06,-19.74 -1.54,-2.92 -4.8,-4.29 -9.95,-4.29 -0.69,0 -1.2,0 -1.55,0 -0.34,0 -0.69,0 -1.03,0.17l0 -3.6 2.74 0.17c19.74,1.03 34.16,1.55 42.74,1.55 4.46,0 9.95,-0.17 16.65,-0.52 6.52,-0.34 13.73,-0.69 21.11,-1.2 0,3.43 0.17,7.04 0.34,10.81 0.34,3.95 0.86,8.41 1.37,13.56zm12.02 95.78m101.27 -56.64c0,-17.85 -3.95,-32.27 -11.85,-43.08 -7.89,-10.64 -18.36,-16.13 -31.06,-16.13 -11.5,0 -20.94,4.8 -28.32,14.42 -7.38,9.61 -11.16,22.14 -11.16,37.93 0,17.85 3.95,32.1 11.85,42.74 7.89,10.64 18.36,15.96 31.06,15.96 11.5,0 20.94,-4.8 28.49,-14.24 7.38,-9.44 10.99,-21.97 10.99,-37.59zm18.88 -3.43c0,17.17 -5.83,31.76 -17.51,43.77 -11.67,12.02 -25.74,18.02 -42.56,18.02 -17.68,0 -32.1,-5.83 -43.26,-17.51 -11.33,-11.67 -16.82,-26.43 -16.82,-44.28 0,-16.99 5.83,-31.58 17.68,-43.59 11.84,-12.19 25.92,-18.19 42.4,-18.19 17.5,0 31.92,5.83 43.08,17.5 11.33,11.67 16.99,26.43 16.99,44.28zm15.45 60.07m72.94 -85.82c0,-8.41 -2.92,-15.28 -8.58,-20.43 -5.66,-5.32 -13.04,-7.9 -22.31,-7.9 -1.72,0 -3.43,0 -5.32,0.17 -1.89,0.17 -3.78,0.34 -5.49,0.69 0,6.52 -0.17,13.73 -0.17,21.46 -0.17,7.55 -0.17,18.71 -0.17,33.13 0.69,0 1.72,0 2.92,0.17 4.46,0.34 8.07,0.51 10.81,0.51 3.78,0 6.52,0 8.41,0 1.72,-0.17 3.26,-0.17 4.46,-0.34 5.15,-2.92 8.93,-6.69 11.5,-11.33 2.57,-4.63 3.94,-10.13 3.94,-16.13zm42.05 85.48l-2.57 0.34c-2.23,0.34 -4.12,0.52 -6,0.69 -1.89,0.17 -3.61,0.17 -5.15,0.17 -5.67,0 -10.47,-0.86 -14.07,-2.75 -3.78,-1.72 -7.04,-4.8 -9.96,-9.27 -1.72,-2.57 -4.12,-6.18 -7.21,-10.98 -1.03,-1.72 -1.72,-2.74 -2.23,-3.6l-7.72 -12.02c-2.57,-4.12 -4.81,-7.38 -6.52,-9.96 -1.72,-2.57 -2.92,-4.12 -3.43,-4.63 -1.89,0.17 -4.12,0.52 -6.69,0.69 -2.41,0.17 -4.98,0.17 -7.38,0.17l-5.15 0 0 20.6c0,11.67 0.86,19.22 2.57,22.65 1.54,3.26 4.98,4.98 10.3,4.98 0.69,0 1.2,0 1.72,0 0.34,-0.17 0.69,-0.17 0.86,-0.17l0 3.61c-0.34,0 -1.03,0 -2.06,0 -9.78,-0.52 -16.99,-0.86 -21.11,-0.86 -4.12,0 -11.15,0.34 -21.11,0.86 -1.03,0 -1.72,0 -2.06,0l0 -3.78c0.34,0 0.69,0 1.2,0.17 0.52,0 1.37,0 2.23,0 4.98,0 8.24,-1.72 9.78,-5.32 1.37,-3.61 2.23,-10.64 2.23,-21.28l0 -62.65c0,-10.3 -0.69,-16.82 -2.06,-19.74 -1.54,-2.92 -4.8,-4.29 -9.95,-4.29 -0.69,0 -1.2,0 -1.55,0 -0.34,0 -0.69,0 -1.03,0.17l0 -3.6 1.03 0c9.27,0.51 16.13,0.86 20.43,0.86 2.92,0 6.87,-0.17 12.02,-0.52 5.15,-0.17 9.27,-0.34 12.02,-0.34 12.87,0 23.52,2.92 31.58,8.75 8.07,6.01 12.19,13.56 12.19,23 0,6.52 -1.89,12.36 -5.83,17.68 -3.78,5.32 -9.61,9.96 -17.34,14.07l20.6 30.9c6.35,9.44 10.98,15.44 14.07,18.19 3.09,2.74 6.69,4.12 10.81,4.12l2.57 0 0 3.09zm51.5 0.34m74.66 -85.82c0,-8.58 -2.92,-15.28 -8.75,-20.6 -5.83,-5.15 -13.56,-7.72 -23,-7.72 -1.89,0 -3.95,0 -6.01,0.17 -1.89,0.17 -3.78,0.34 -5.67,0.69 -0.17,6.7 -0.17,13.91 -0.17,21.46 -0.17,7.72 -0.17,19.39 -0.17,35.19 2.23,0.17 4.29,0.52 6.01,0.69 1.89,0 3.61,0.17 5.15,0.17 9.61,0 17.51,-2.92 23.52,-8.41 6.18,-5.67 9.09,-12.87 9.09,-21.63zm17.17 -0.86c0,10.81 -4.46,19.74 -13.39,26.78 -8.75,6.87 -20.08,10.47 -33.81,10.47 -2.75,0 -6.69,-0.34 -11.5,-0.86 -1.03,0 -1.72,-0.17 -2.23,-0.17 0,14.93 0.17,25.4 0.69,31.24 0.34,5.67 1.37,9.61 2.74,11.5 1.2,1.55 2.57,2.57 4.29,3.26 1.72,0.69 3.95,1.03 6.87,1.03 1.2,0 2.23,0 3.43,-0.17l0 3.61c-1.03,0 -2.75,-0.17 -4.81,-0.34 -8.93,-0.34 -15.45,-0.52 -20.08,-0.52 -4.98,0 -12.01,0.17 -20.94,0.69 -1.37,0 -2.41,0.17 -3.09,0.17l0 -3.61c0.34,0 0.69,0 1.2,0.17 0.52,0 1.37,0 2.23,0 4.98,0 8.24,-1.72 9.78,-4.98 1.54,-3.43 2.23,-10.98 2.23,-22.48l0 -61.79c0,-10.3 -0.69,-16.82 -2.06,-19.74 -1.54,-2.92 -4.8,-4.29 -9.95,-4.29 -0.69,0 -1.2,0 -1.55,0 -0.34,0 -0.69,0 -1.03,0.17l0 -3.6c0.86,0 2.06,0.17 3.95,0.17 8.07,0.52 14.59,0.69 19.22,0.69 2.23,0 6.01,-0.17 11.33,-0.52 5.49,-0.17 9.78,-0.34 12.7,-0.34 13.39,0 24.03,2.92 31.93,8.93 7.89,6 11.84,14.24 11.84,24.54zm7.72 86.68m72.94 -85.82c0,-8.41 -2.92,-15.28 -8.58,-20.43 -5.66,-5.32 -13.04,-7.9 -22.31,-7.9 -1.72,0 -3.43,0 -5.32,0.17 -1.89,0.17 -3.78,0.34 -5.49,0.69 0,6.52 -0.17,13.73 -0.17,21.46 -0.17,7.55 -0.17,18.71 -0.17,33.13 0.69,0 1.72,0 2.92,0.17 4.46,0.34 8.07,0.51 10.81,0.51 3.78,0 6.52,0 8.41,0 1.72,-0.17 3.26,-0.17 4.46,-0.34 5.15,-2.92 8.93,-6.69 11.5,-11.33 2.57,-4.63 3.94,-10.13 3.94,-16.13zm42.05 85.48l-2.57 0.34c-2.23,0.34 -4.12,0.52 -6,0.69 -1.89,0.17 -3.61,0.17 -5.15,0.17 -5.67,0 -10.47,-0.86 -14.07,-2.75 -3.78,-1.72 -7.04,-4.8 -9.96,-9.27 -1.72,-2.57 -4.12,-6.18 -7.21,-10.98 -1.03,-1.72 -1.72,-2.74 -2.23,-3.6l-7.72 -12.02c-2.57,-4.12 -4.81,-7.38 -6.52,-9.96 -1.72,-2.57 -2.92,-4.12 -3.43,-4.63 -1.89,0.17 -4.12,0.52 -6.69,0.69 -2.41,0.17 -4.98,0.17 -7.38,0.17l-5.15 0 0 20.6c0,11.67 0.86,19.22 2.57,22.65 1.54,3.26 4.98,4.98 10.3,4.98 0.69,0 1.2,0 1.72,0 0.34,-0.17 0.69,-0.17 0.86,-0.17l0 3.61c-0.34,0 -1.03,0 -2.06,0 -9.78,-0.52 -16.99,-0.86 -21.11,-0.86 -4.12,0 -11.15,0.34 -21.11,0.86 -1.03,0 -1.72,0 -2.06,0l0 -3.78c0.34,0 0.69,0 1.2,0.17 0.52,0 1.37,0 2.23,0 4.98,0 8.24,-1.72 9.78,-5.32 1.37,-3.61 2.23,-10.64 2.23,-21.28l0 -62.65c0,-10.3 -0.69,-16.82 -2.06,-19.74 -1.54,-2.92 -4.8,-4.29 -9.95,-4.29 -0.69,0 -1.2,0 -1.55,0 -0.34,0 -0.69,0 -1.03,0.17l0 -3.6 1.03 0c9.27,0.51 16.13,0.86 20.43,0.86 2.92,0 6.87,-0.17 12.02,-0.52 5.15,-0.17 9.27,-0.34 12.02,-0.34 12.87,0 23.52,2.92 31.58,8.75 8.07,6.01 12.19,13.56 12.19,23 0,6.52 -1.89,12.36 -5.83,17.68 -3.78,5.32 -9.61,9.96 -17.34,14.07l20.6 30.9c6.35,9.44 10.98,15.44 14.07,18.19 3.09,2.74 6.69,4.12 10.81,4.12l2.57 0 0 3.09zm-2.57 0.34m48.06 0c-0.34,0 -1.03,0 -1.89,-0.17 -9.95,-0.34 -17.33,-0.69 -22.14,-0.69 -4.63,0 -12.01,0.34 -22.14,0.69 -0.86,0.17 -1.54,0.17 -1.89,0.17l0 -3.61c0.34,0 0.69,0 1.03,0.17 0.52,0 1.2,0 2.41,0 5.32,0 8.75,-1.72 10.47,-4.98 1.55,-3.26 2.41,-10.81 2.41,-22.48l0 -61.79c0,-10.47 -0.69,-16.99 -2.23,-19.91 -1.55,-2.75 -5.15,-4.12 -10.64,-4.12 -0.69,0 -1.2,0 -1.55,0 -0.34,0 -0.69,0 -1.03,0.17l0 -3.6c0.34,0 1.03,0 1.72,0 10.3,0.51 17.33,0.86 21.45,0.86 4.12,0 11.16,-0.17 21.11,-0.69 0.86,-0.17 1.54,-0.17 2.06,-0.17l0 3.6c-0.34,-0.17 -0.69,-0.17 -1.03,-0.17 -0.34,0 -0.86,0 -1.54,0 -5.49,0 -9.1,1.37 -10.64,4.12 -1.37,2.92 -2.23,9.44 -2.23,19.91l0 61.79c0,11.67 0.86,19.22 2.41,22.48 1.71,3.26 5.15,4.98 10.47,4.98 1.2,0 1.89,0 2.4,0 0.34,-0.17 0.69,-0.17 1.03,-0.17l0 3.61zm0 0m118.43 -116.54c-0.52,-0.17 -1.2,-0.17 -1.72,-0.17 -2.57,0 -4.98,0.86 -7.21,2.4 -2.23,1.72 -4.12,3.95 -5.67,7.04 -2.4,4.81 -10.47,25.23 -24.2,61.28 -7.55,19.74 -13.39,35.36 -17.85,46.86l-9.44 0c-6.35,-19.22 -12.87,-38.1 -19.39,-56.81 -6.7,-18.71 -12.7,-35.53 -18.37,-50.46 -1.37,-3.78 -3.09,-6.35 -4.98,-7.89 -2.06,-1.72 -4.64,-2.4 -7.9,-2.4 -0.52,0 -1.2,0 -1.72,0.17l0 -3.6c1.03,0 2.4,0.17 4.46,0.17 7.72,0.52 13.39,0.69 16.99,0.69 5.49,0 12.87,-0.35 22.31,-0.86l0.86 0 0 3.6c-0.52,-0.17 -1.2,-0.17 -1.72,-0.17 -3.6,0 -6.35,0.51 -8.24,1.71 -1.89,1.2 -2.92,2.92 -2.92,5.15 0,2.92 1.37,8.07 3.95,15.62 0.52,1.54 1.03,2.57 1.2,3.26l24.89 71.23c2.74,-6.86 7.21,-18.36 13.22,-34.5l3.09 -8.41 3.43 -9.09c8.07,-21.28 12.02,-33.64 12.02,-37.25 0,-2.57 -0.86,-4.63 -2.74,-5.83 -1.89,-1.37 -4.64,-1.89 -8.41,-1.89 -0.51,0 -1.2,0 -1.72,0.17l0 -3.6c3.09,0.17 6.52,0.51 10.13,0.69 3.6,0.17 6.86,0.17 9.61,0.17 2.4,0 5.15,0 7.89,-0.17 2.92,-0.17 6.18,-0.34 10.13,-0.69l0 3.6zm-1.72 116.54m48.06 0c-0.34,0 -1.03,0 -1.89,-0.17 -9.95,-0.34 -17.33,-0.69 -22.14,-0.69 -4.63,0 -12.01,0.34 -22.14,0.69 -0.86,0.17 -1.54,0.17 -1.89,0.17l0 -3.61c0.34,0 0.69,0 1.03,0.17 0.52,0 1.2,0 2.41,0 5.32,0 8.75,-1.72 10.47,-4.98 1.55,-3.26 2.41,-10.81 2.41,-22.48l0 -61.79c0,-10.47 -0.69,-16.99 -2.23,-19.91 -1.55,-2.75 -5.15,-4.12 -10.64,-4.12 -0.69,0 -1.2,0 -1.55,0 -0.34,0 -0.69,0 -1.03,0.17l0 -3.6c0.34,0 1.03,0 1.72,0 10.3,0.51 17.33,0.86 21.45,0.86 4.12,0 11.16,-0.17 21.11,-0.69 0.86,-0.17 1.54,-0.17 2.06,-0.17l0 3.6c-0.34,-0.17 -0.69,-0.17 -1.03,-0.17 -0.34,0 -0.86,0 -1.54,0 -5.49,0 -9.1,1.37 -10.64,4.12 -1.37,2.92 -2.23,9.44 -2.23,19.91l0 61.79c0,11.67 0.86,19.22 2.41,22.48 1.71,3.26 5.15,4.98 10.47,4.98 1.2,0 1.89,0 2.4,0 0.34,-0.17 0.69,-0.17 1.03,-0.17l0 3.61zm12.87 0m90.11 -25.4c-1.89,5.83 -3.26,10.81 -4.29,14.59 -1.03,3.95 -1.89,7.56 -2.57,10.81 -2.23,0 -5.49,-0.17 -9.78,-0.34 -12.36,-0.34 -21.97,-0.52 -28.83,-0.52 -9.78,0 -24.03,0.34 -42.91,0.69l-1.72 0.17 0 -3.61c0.34,0 0.69,0 1.2,0.17 0.52,0 1.37,0 2.23,0 4.98,0 8.24,-1.72 9.78,-4.98 1.54,-3.43 2.23,-10.98 2.23,-22.48l0 -61.79c0,-10.3 -0.69,-16.82 -2.06,-19.74 -1.54,-2.92 -4.8,-4.29 -9.95,-4.29 -0.69,0 -1.2,0 -1.55,0 -0.34,0 -0.69,0 -1.03,0.17l0 -3.6c0.86,0 2.23,0.17 4.12,0.17 7.9,0.52 14.07,0.69 18.19,0.69 4.63,0 12.02,-0.17 22.14,-0.69 0.86,-0.17 1.37,-0.17 1.89,-0.17l0 3.6c-0.52,-0.17 -1.2,-0.17 -1.72,-0.17 -6.18,0 -10.13,1.54 -11.67,4.63 -1.72,3.26 -2.57,9.61 -2.57,19.39 0,21.63 0.17,38.62 0.35,50.81 0.17,12.19 0.34,23.34 0.69,33.3 3.95,0.52 7.55,0.86 10.98,1.03 3.43,0.17 6.87,0.34 9.96,0.34 9.27,0 16.13,-1.03 20.59,-3.26 4.63,-2.06 8.93,-7.56 12.87,-16.13l3.43 1.2zm2.57 25.4m93.54 -24.89c-1.55,4.8 -2.92,9.27 -4.12,13.39 -1.03,3.95 -2.06,7.89 -2.75,11.5 -2.06,0 -5.15,-0.17 -9.27,-0.34 -12.87,-0.34 -23.17,-0.52 -31.07,-0.52 -10.98,0 -25.92,0.34 -44.8,0.69l-1.54 0.17 0 -3.61c0.34,0 0.69,0 1.2,0.17 0.52,0 1.37,0 2.23,0 4.98,0 8.24,-1.72 9.78,-5.32 1.37,-3.61 2.23,-10.64 2.23,-21.28l0 -62.65c0,-10.3 -0.69,-16.82 -2.06,-19.74 -1.54,-2.92 -4.8,-4.29 -9.95,-4.29 -0.69,0 -1.2,0 -1.55,0 -0.34,0 -0.69,0 -1.03,0.17l0 -3.6 2.74 0.17c19.74,1.03 34.16,1.55 42.74,1.55 4.46,0 9.95,-0.17 16.65,-0.52 6.52,-0.34 13.73,-0.69 21.11,-1.2 0,3.43 0.17,7.04 0.34,10.81 0.34,3.95 0.86,8.41 1.37,13.56l-3.43 0.52c-2.23,-7.89 -5.15,-12.7 -8.41,-14.42 -3.43,-1.89 -10.3,-2.75 -20.77,-2.75 -3.78,0 -7.56,0 -11.5,0.17 -3.95,0 -7.38,0.17 -10.47,0.34 0,4.98 -0.17,10.64 -0.17,17.17 -0.17,6.52 -0.17,16.48 -0.17,29.87 1.37,0.17 2.75,0.34 4.12,0.34 1.37,0.17 2.92,0.17 4.46,0.17l15.45 0c7.89,0 13.39,-0.86 16.3,-2.4 3.09,-1.54 4.63,-4.63 5.15,-9.1l3.43 0.35c-0.34,2.06 -0.69,4.29 -0.86,6.69 -0.17,2.4 -0.34,4.98 -0.34,7.89 0,2.75 0.17,5.49 0.34,8.07 0.17,2.57 0.52,5.32 0.86,8.24l-3.43 0.34c-0.52,-5.49 -2.06,-9.09 -5.15,-10.98 -2.92,-1.89 -8.41,-2.75 -16.3,-2.75l-15.45 0c-1.72,0 -3.26,0 -4.63,0.17 -1.2,0 -2.57,0.17 -3.95,0.34 0,7.55 0.17,15.79 0.34,25.06 0,9.27 0.35,17.17 0.52,23.86 3.95,0.34 7.9,0.69 12.02,1.03 3.95,0.17 7.72,0.34 11.16,0.34 10.64,0 18.36,-1.2 23,-3.43 4.8,-2.4 8.75,-7.55 12.19,-15.45l3.43 1.2zm14.59 24.89m115.85 -51.49c-4.46,0 -7.38,1.2 -8.93,3.61 -1.37,2.4 -2.23,6.86 -2.23,13.56l0 13.73c0,3.09 0.17,6.01 0.17,8.76 0.17,2.57 0.34,5.15 0.69,7.55 -10.13,2.4 -18.02,3.95 -23.86,4.81 -5.67,0.86 -11.16,1.2 -16.48,1.2 -19.57,0 -35.35,-5.49 -47.37,-16.48 -11.84,-10.98 -17.85,-25.41 -17.85,-43.6 0,-19.05 6.18,-34.33 18.54,-46 12.19,-11.67 28.49,-17.5 48.4,-17.5 6.52,0 13.05,0.51 19.4,1.72 6.35,1.2 12.53,2.92 18.37,5.15 0,3.95 0.17,7.72 0.69,11.5 0.34,3.61 1.03,7.9 1.89,12.53l-4.29 0.86c-2.57,-9.44 -6.87,-16.13 -12.7,-19.91 -5.83,-3.95 -14.76,-5.83 -26.78,-5.83 -13.39,0 -24.2,4.8 -32.27,14.59 -8.24,9.78 -12.36,23 -12.36,39.48 0,17.17 4.64,30.9 13.73,41.19 8.93,10.3 21.11,15.45 36.04,15.45 3.95,0 7.56,-0.34 10.81,-0.86 3.43,-0.52 6.52,-1.37 9.44,-2.57 0.17,-2.92 0.17,-6.35 0.17,-9.78 0.17,-3.6 0.17,-8.93 0.17,-15.96 0,-6.7 -1.03,-11.33 -3.09,-13.56 -2.06,-2.41 -6.18,-3.61 -12.36,-3.61 -0.52,0 -1.37,0.17 -2.57,0.34l0 -3.78 0.86 0c9.44,0.52 16.82,0.86 22.31,0.86 4.29,0 11.16,-0.34 20.43,-0.86l1.03 0 0 3.43zm16.31 51.49m93.54 -24.89c-1.55,4.8 -2.92,9.27 -4.12,13.39 -1.03,3.95 -2.06,7.89 -2.75,11.5 -2.06,0 -5.15,-0.17 -9.27,-0.34 -12.87,-0.34 -23.17,-0.52 -31.07,-0.52 -10.98,0 -25.92,0.34 -44.8,0.69l-1.54 0.17 0 -3.61c0.34,0 0.69,0 1.2,0.17 0.52,0 1.37,0 2.23,0 4.98,0 8.24,-1.72 9.78,-5.32 1.37,-3.61 2.23,-10.64 2.23,-21.28l0 -62.65c0,-10.3 -0.69,-16.82 -2.06,-19.74 -1.54,-2.92 -4.8,-4.29 -9.95,-4.29 -0.69,0 -1.2,0 -1.55,0 -0.34,0 -0.69,0 -1.03,0.17l0 -3.6 2.74 0.17c19.74,1.03 34.16,1.55 42.74,1.55 4.46,0 9.95,-0.17 16.65,-0.52 6.52,-0.34 13.73,-0.69 21.11,-1.2 0,3.43 0.17,7.04 0.34,10.81 0.34,3.95 0.86,8.41 1.37,13.56l-3.43 0.52c-2.23,-7.89 -5.15,-12.7 -8.41,-14.42 -3.43,-1.89 -10.3,-2.75 -20.77,-2.75 -3.78,0 -7.56,0 -11.5,0.17 -3.95,0 -7.38,0.17 -10.47,0.34 0,4.98 -0.17,10.64 -0.17,17.17 -0.17,6.52 -0.17,16.48 -0.17,29.87 1.37,0.17 2.75,0.34 4.12,0.34 1.37,0.17 2.92,0.17 4.46,0.17l15.45 0c7.89,0 13.39,-0.86 16.3,-2.4 3.09,-1.54 4.63,-4.63 5.15,-9.1l3.43 0.35c-0.34,2.06 -0.69,4.29 -0.86,6.69 -0.17,2.4 -0.34,4.98 -0.34,7.89 0,2.75 0.17,5.49 0.34,8.07 0.17,2.57 0.52,5.32 0.86,8.24l-3.43 0.34c-0.52,-5.49 -2.06,-9.09 -5.15,-10.98 -2.92,-1.89 -8.41,-2.75 -16.3,-2.75l-15.45 0c-1.72,0 -3.26,0 -4.63,0.17 -1.2,0 -2.57,0.17 -3.95,0.34 0,7.55 0.17,15.79 0.34,25.06 0,9.27 0.35,17.17 0.52,23.86 3.95,0.34 7.9,0.69 12.02,1.03 3.95,0.17 7.72,0.34 11.16,0.34 10.64,0 18.36,-1.2 23,-3.43 4.8,-2.4 8.75,-7.55 12.19,-15.45l3.43 1.2zm12.87 24.89m101.27 -58.36c0,-16.65 -5.15,-30.04 -15.11,-40.16 -10.13,-10.13 -23.34,-15.11 -39.82,-15.11 -2.23,0 -4.81,0.17 -7.9,0.34 -2.92,0.35 -5.32,0.52 -7.21,0.86 0,1.37 0,3.43 -0.17,6.18 -0.34,14.76 -0.52,25.92 -0.52,33.3 0,6.18 0.17,14.93 0.34,26.26 0.17,5.32 0.34,9.44 0.34,12.36l0.52 24.37c3.95,1.37 7.72,2.41 11.33,2.92 3.6,0.69 7.55,1.03 11.84,1.03 14.76,0 26.26,-4.63 34.33,-13.9 7.89,-9.27 12.02,-22.14 12.02,-38.45zm18.88 -1.72c0,17.85 -5.83,32.61 -17.68,43.94 -12.02,11.33 -27.81,16.99 -47.54,16.99 -4.12,0 -9.78,-0.34 -16.99,-0.86 -7.04,-0.52 -12.36,-0.86 -15.62,-0.86 -3.09,0 -6.52,0 -10.3,0.17 -3.61,0.17 -7.56,0.34 -12.02,0.69l0 -3.61c0.34,0 0.69,0 1.2,0.17 0.52,0 1.37,0 2.23,0 4.98,0 8.24,-1.72 9.78,-5.32 1.37,-3.61 2.23,-10.64 2.23,-21.28l0 -62.65c0,-10.3 -0.69,-16.82 -2.06,-19.74 -1.54,-2.92 -4.8,-4.29 -9.95,-4.29 -0.69,0 -1.2,0 -1.55,0 -0.34,0 -0.69,0 -1.03,0.17l0 -3.6c3.26,0.17 6.69,0.51 10.64,0.69 3.78,0.17 7.55,0.17 10.81,0.17 2.92,0 7.38,-0.17 13.73,-0.52 6.35,-0.17 10.98,-0.34 13.73,-0.34 21.28,0 38.44,5.32 51.15,16.3 12.87,10.81 19.22,25.41 19.22,43.77zm68.66 60.07m90.11 -25.4c-1.89,5.83 -3.26,10.81 -4.29,14.59 -1.03,3.95 -1.89,7.56 -2.57,10.81 -2.23,0 -5.49,-0.17 -9.78,-0.34 -12.36,-0.34 -21.97,-0.52 -28.83,-0.52 -9.78,0 -24.03,0.34 -42.91,0.69l-1.72 0.17 0 -3.61c0.34,0 0.69,0 1.2,0.17 0.52,0 1.37,0 2.23,0 4.98,0 8.24,-1.72 9.78,-4.98 1.54,-3.43 2.23,-10.98 2.23,-22.48l0 -61.79c0,-10.3 -0.69,-16.82 -2.06,-19.74 -1.54,-2.92 -4.8,-4.29 -9.95,-4.29 -0.69,0 -1.2,0 -1.55,0 -0.34,0 -0.69,0 -1.03,0.17l0 -3.6c0.86,0 2.23,0.17 4.12,0.17 7.9,0.52 14.07,0.69 18.19,0.69 4.63,0 12.02,-0.17 22.14,-0.69 0.86,-0.17 1.37,-0.17 1.89,-0.17l0 3.6c-0.52,-0.17 -1.2,-0.17 -1.72,-0.17 -6.18,0 -10.13,1.54 -11.67,4.63 -1.72,3.26 -2.57,9.61 -2.57,19.39 0,21.63 0.17,38.62 0.35,50.81 0.17,12.19 0.34,23.34 0.69,33.3 3.95,0.52 7.55,0.86 10.98,1.03 3.43,0.17 6.87,0.34 9.96,0.34 9.27,0 16.13,-1.03 20.59,-3.26 4.63,-2.06 8.93,-7.56 12.87,-16.13l3.43 1.2zm1.72 25.4m48.06 0c-0.34,0 -1.03,0 -1.89,-0.17 -9.95,-0.34 -17.33,-0.69 -22.14,-0.69 -4.63,0 -12.01,0.34 -22.14,0.69 -0.86,0.17 -1.54,0.17 -1.89,0.17l0 -3.61c0.34,0 0.69,0 1.03,0.17 0.52,0 1.2,0 2.41,0 5.32,0 8.75,-1.72 10.47,-4.98 1.55,-3.26 2.41,-10.81 2.41,-22.48l0 -61.79c0,-10.47 -0.69,-16.99 -2.23,-19.91 -1.55,-2.75 -5.15,-4.12 -10.64,-4.12 -0.69,0 -1.2,0 -1.55,0 -0.34,0 -0.69,0 -1.03,0.17l0 -3.6c0.34,0 1.03,0 1.72,0 10.3,0.51 17.33,0.86 21.45,0.86 4.12,0 11.16,-0.17 21.11,-0.69 0.86,-0.17 1.54,-0.17 2.06,-0.17l0 3.6c-0.34,-0.17 -0.69,-0.17 -1.03,-0.17 -0.34,0 -0.86,0 -1.54,0 -5.49,0 -9.1,1.37 -10.64,4.12 -1.37,2.92 -2.23,9.44 -2.23,19.91l0 61.79c0,11.67 0.86,19.22 2.41,22.48 1.71,3.26 5.15,4.98 10.47,4.98 1.2,0 1.89,0 2.4,0 0.34,-0.17 0.69,-0.17 1.03,-0.17l0 3.61zm0 0m118.43 -116.54c-0.52,-0.17 -1.2,-0.17 -1.72,-0.17 -2.57,0 -4.98,0.86 -7.21,2.4 -2.23,1.72 -4.12,3.95 -5.67,7.04 -2.4,4.81 -10.47,25.23 -24.2,61.28 -7.55,19.74 -13.39,35.36 -17.85,46.86l-9.44 0c-6.35,-19.22 -12.87,-38.1 -19.39,-56.81 -6.7,-18.71 -12.7,-35.53 -18.37,-50.46 -1.37,-3.78 -3.09,-6.35 -4.98,-7.89 -2.06,-1.72 -4.64,-2.4 -7.9,-2.4 -0.52,0 -1.2,0 -1.72,0.17l0 -3.6c1.03,0 2.4,0.17 4.46,0.17 7.72,0.52 13.39,0.69 16.99,0.69 5.49,0 12.87,-0.35 22.31,-0.86l0.86 0 0 3.6c-0.52,-0.17 -1.2,-0.17 -1.72,-0.17 -3.6,0 -6.35,0.51 -8.24,1.71 -1.89,1.2 -2.92,2.92 -2.92,5.15 0,2.92 1.37,8.07 3.95,15.62 0.52,1.54 1.03,2.57 1.2,3.26l24.89 71.23c2.74,-6.86 7.21,-18.36 13.22,-34.5l3.09 -8.41 3.43 -9.09c8.07,-21.28 12.02,-33.64 12.02,-37.25 0,-2.57 -0.86,-4.63 -2.74,-5.83 -1.89,-1.37 -4.64,-1.89 -8.41,-1.89 -0.51,0 -1.2,0 -1.72,0.17l0 -3.6c3.09,0.17 6.52,0.51 10.13,0.69 3.6,0.17 6.86,0.17 9.61,0.17 2.4,0 5.15,0 7.89,-0.17 2.92,-0.17 6.18,-0.34 10.13,-0.69l0 3.6zm-1.72 116.54m48.06 0c-0.34,0 -1.03,0 -1.89,-0.17 -9.95,-0.34 -17.33,-0.69 -22.14,-0.69 -4.63,0 -12.01,0.34 -22.14,0.69 -0.86,0.17 -1.54,0.17 -1.89,0.17l0 -3.61c0.34,0 0.69,0 1.03,0.17 0.52,0 1.2,0 2.41,0 5.32,0 8.75,-1.72 10.47,-4.98 1.55,-3.26 2.41,-10.81 2.41,-22.48l0 -61.79c0,-10.47 -0.69,-16.99 -2.23,-19.91 -1.55,-2.75 -5.15,-4.12 -10.64,-4.12 -0.69,0 -1.2,0 -1.55,0 -0.34,0 -0.69,0 -1.03,0.17l0 -3.6c0.34,0 1.03,0 1.72,0 10.3,0.51 17.33,0.86 21.45,0.86 4.12,0 11.16,-0.17 21.11,-0.69 0.86,-0.17 1.54,-0.17 2.06,-0.17l0 3.6c-0.34,-0.17 -0.69,-0.17 -1.03,-0.17 -0.34,0 -0.86,0 -1.54,0 -5.49,0 -9.1,1.37 -10.64,4.12 -1.37,2.92 -2.23,9.44 -2.23,19.91l0 61.79c0,11.67 0.86,19.22 2.41,22.48 1.71,3.26 5.15,4.98 10.47,4.98 1.2,0 1.89,0 2.4,0 0.34,-0.17 0.69,-0.17 1.03,-0.17l0 3.61zm12.87 0m124.44 -116.54c-0.52,-0.17 -1.2,-0.17 -1.89,-0.17 -2.06,0 -3.78,0.34 -5.49,1.2 -1.72,0.69 -2.92,1.72 -3.78,3.09 -1.37,2.06 -2.23,7.38 -2.74,15.62 -0.34,8.41 -0.69,21.28 -0.69,38.44l0 34.33c0,4.63 0.17,9.44 0.52,14.24 0.34,4.63 0.69,8.24 1.2,10.64l-6 0c-0.35,-0.69 -1.03,-1.72 -2.06,-3.09 -1.03,-1.37 -2.23,-3.09 -3.94,-4.98l-77.24 -92.34 0 37.76c0,19.57 0.17,32.96 0.69,40.17 0.34,7.38 1.37,12.02 2.74,13.9 1.2,1.55 2.57,2.57 4.29,3.26 1.72,0.69 3.95,1.03 6.87,1.03 1.2,0 2.23,0 3.43,-0.17l0 3.61c-1.03,0 -2.57,-0.17 -4.81,-0.34 -7.38,-0.34 -12.7,-0.52 -15.79,-0.52 -2.57,0 -7.38,0.17 -14.59,0.52 -2.23,0.17 -3.95,0.34 -5.15,0.34l0 -3.61c0.34,0 0.69,0 1.03,0.17 0.52,0 1.03,0 1.72,0 2.06,0 3.78,-0.34 5.49,-1.2 1.55,-0.69 2.92,-1.72 3.78,-3.09 1.37,-2.06 2.23,-7.21 2.74,-15.62 0.52,-8.41 0.69,-21.28 0.69,-38.45l0 -32.61c0,-8.41 -0.86,-14.24 -2.57,-17.51 -1.89,-3.26 -5.15,-4.8 -10.3,-4.8 -0.52,0 -1.37,0 -2.57,0.17l0 -3.6c0.17,0 0.52,0 0.86,0 6.52,0.51 11.5,0.86 14.76,0.86 1.54,0 3.61,0 6.01,-0.17 2.4,-0.17 4.98,-0.52 7.55,-0.69 0.86,2.23 2.06,4.46 3.61,6.69 1.54,2.4 3.78,5.32 6.69,8.75l63.51 76.38 0 -30.04c0,-19.05 -0.17,-32.27 -0.35,-39.99 -0.34,-7.72 -1.03,-12.36 -2.23,-14.07 -1.03,-1.54 -2.41,-2.74 -4.12,-3.43 -1.72,-0.52 -4.12,-0.86 -7.04,-0.86l-1.72 0.17 0 -3.6c4.98,0.34 8.75,0.51 11.5,0.69 2.57,0.17 4.81,0.17 6.52,0.17 1.89,0 4.46,0 7.89,-0.17 3.26,-0.17 6.87,-0.52 10.98,-0.69l0 3.6zm16.31 116.54m115.85 -51.49c-4.46,0 -7.38,1.2 -8.93,3.61 -1.37,2.4 -2.23,6.86 -2.23,13.56l0 13.73c0,3.09 0.17,6.01 0.17,8.76 0.17,2.57 0.34,5.15 0.69,7.55 -10.13,2.4 -18.02,3.95 -23.86,4.81 -5.67,0.86 -11.16,1.2 -16.48,1.2 -19.57,0 -35.35,-5.49 -47.37,-16.48 -11.84,-10.98 -17.85,-25.41 -17.85,-43.6 0,-19.05 6.18,-34.33 18.54,-46 12.19,-11.67 28.49,-17.5 48.4,-17.5 6.52,0 13.05,0.51 19.4,1.72 6.35,1.2 12.53,2.92 18.37,5.15 0,3.95 0.17,7.72 0.69,11.5 0.34,3.61 1.03,7.9 1.89,12.53l-4.29 0.86c-2.57,-9.44 -6.87,-16.13 -12.7,-19.91 -5.83,-3.95 -14.76,-5.83 -26.78,-5.83 -13.39,0 -24.2,4.8 -32.27,14.59 -8.24,9.78 -12.36,23 -12.36,39.48 0,17.17 4.64,30.9 13.73,41.19 8.93,10.3 21.11,15.45 36.04,15.45 3.95,0 7.56,-0.34 10.81,-0.86 3.43,-0.52 6.52,-1.37 9.44,-2.57 0.17,-2.92 0.17,-6.35 0.17,-9.78 0.17,-3.6 0.17,-8.93 0.17,-15.96 0,-6.7 -1.03,-11.33 -3.09,-13.56 -2.06,-2.41 -6.18,-3.61 -12.36,-3.61 -0.52,0 -1.37,0.17 -2.57,0.34l0 -3.78 0.86 0c9.44,0.52 16.82,0.86 22.31,0.86 4.29,0 11.16,-0.34 20.43,-0.86l1.03 0 0 3.43z"/>
    </g>
    <path class="fil1" d="M324.17 1346.3m351.61 0c-1.2,0 -2.81,0 -5.22,-0.4 -19.29,-1.2 -34.56,-1.61 -45,-1.61 -8.84,0 -23.71,0.4 -44.2,1.61 -3.62,0 -6.03,0.4 -8.04,0.4l0 -8.44c1.2,0 2.81,0 4.42,0 1.61,0.4 2.81,0.4 3.62,0.4 9.65,0 16.07,-2.01 20.09,-6.03 4.02,-3.62 6.03,-10.45 6.03,-20.09 0,-20.89 -0.81,-49.83 -2.41,-87.2 -1.2,-37.37 -3.21,-75.55 -5.63,-113.72l-2.01 6.03 -82.38 176.81c-4.42,9.65 -8.04,17.68 -10.45,24.91 -2.41,7.24 -4.02,14.87 -5.63,23.31l-10.05 0c-0.8,-4.42 -2.41,-8.84 -4.42,-14.06 -1.61,-5.63 -6.43,-16.07 -13.66,-32.15l-78.36 -174.8 -6.03 -12.06 -2.01 32.15c-2.01,26.92 -3.21,54.65 -4.42,83.58 -0.8,28.53 -1.61,55.86 -1.61,81.17 0,12.46 2.41,20.9 6.43,25.31 4.42,4.42 12.06,6.83 23.71,6.83 1.2,0 3.62,0 6.03,-0.4l0 8.44c-1.2,0 -3.61,-0.4 -6.43,-0.4 -18.48,-1.2 -31.74,-1.61 -39.78,-1.61 -7.63,0 -19.29,0.4 -35.36,1.2 -4.02,0.4 -6.83,0.8 -8.84,0.8l0 -8.44c2.81,0.4 4.82,0.4 6.03,0.4 6.43,0 11.65,-0.81 15.27,-2.81 3.62,-1.61 6.83,-4.82 8.84,-9.24 2.41,-4.82 4.82,-26.52 7.23,-65.5 0.4,-4.82 0.8,-8.44 0.8,-10.85l4.02 -60.28c0.4,-4.82 1.61,-20.09 3.22,-45.01 2.01,-25.31 2.81,-40.19 2.81,-45.41 0,-9.24 -2.01,-15.67 -6.43,-20.09 -4.02,-4.02 -10.45,-6.03 -19.69,-6.03 -1.21,0 -2.81,0 -4.02,0.4l0 -8.44c1.2,0 2.81,0 5.22,0.4 16.07,1.2 27.32,1.61 32.95,1.61 4.02,0 9.24,0 15.67,-0.4 6.43,-0.4 12.86,-1.2 19.29,-1.61 -0.4,1.61 -0.4,2.81 -0.4,3.61 -0.4,0.8 -0.4,1.61 -0.4,2.41 0,7.23 5.22,22.5 16.07,45.41 1.61,4.02 3.22,6.83 4.02,8.84l70.32 152.7 62.29 -132.61c14.46,-30.94 23.31,-49.83 26.12,-57.06 2.81,-7.24 4.02,-12.86 4.02,-17.28 0,-0.81 0,-1.61 0,-2.41 -0.4,-0.8 -0.4,-2.01 -0.8,-3.61 2.81,0.4 6.43,0.4 11.65,0.8 10.04,0.8 17.68,1.2 23.31,1.2 4.42,0 10.44,0 17.68,-0.8 7.63,-0.4 13.66,-0.8 18.48,-1.2l0 8.44c-1.2,-0.4 -2.81,-0.4 -4.02,-0.4 -10.85,0 -18.48,2.01 -22.5,6.03 -4.42,4.02 -6.43,10.85 -6.43,20.5 0,4.02 0.4,12.86 0.8,27.32 0.8,14.47 1.21,28.53 2.01,42.6l4.02 72.33c1.61,26.93 2.81,45.81 3.62,57.46 0.8,11.25 1.61,19.29 2.41,22.91 1.21,6.03 3.62,10.05 6.83,12.46 3.21,2.41 8.44,3.62 15.27,3.62l6.03 -0.4 0 8.44zm4.02 0m177.62 -122.56l-40.99 -124.57 -46.21 124.57c4.82,0.4 11.25,1.2 19.69,1.61 8.44,0.4 16.07,0.4 22.5,0.4 6.43,0 14.06,0 22.91,-0.4 8.84,-0.4 16.07,-1.2 22.1,-1.61zm105.69 122.56c-2.01,0 -5.63,-0.4 -10.45,-0.8 -18.08,-0.8 -31.34,-1.2 -39.78,-1.2 -10.44,0 -24.91,0.4 -43.4,1.2 -5.63,0.4 -10.05,0.8 -12.86,0.8l0 -8.44c1.2,0.4 2.81,0.4 4.02,0.4 8.84,0 15.27,-1.61 19.69,-4.42 4.42,-3.22 6.43,-7.63 6.43,-13.66 0,-5.22 -1.61,-13.26 -4.82,-24.11 -2.81,-10.85 -9.65,-29.74 -19.29,-56.26 -7.24,-0.4 -14.87,-0.8 -22.91,-0.8 -8.44,-0.41 -17.28,-0.41 -27.33,-0.41 -10.05,0 -18.89,0 -26.93,0.41 -8.04,0 -15.27,0.4 -21.3,0.8 -1.2,3.61 -3.22,8.84 -6.03,15.27 -13.26,35.36 -20.09,56.66 -20.09,65.1 0,6.03 2.41,10.44 6.43,13.66 4.42,2.81 11.25,4.42 19.69,4.42 1.2,0 2.81,0 4.02,-0.4l0 8.44c-8.04,-0.8 -15.67,-1.2 -23.31,-1.61 -7.63,-0.4 -14.46,-0.4 -20.89,-0.4 -6.03,0 -13.26,0 -20.9,0.4 -7.63,0.4 -15.27,0.8 -23.31,1.61l0 -8.44c1.2,0.4 2.81,0.4 4.02,0.4 6.03,0 11.65,-2.01 16.88,-6.03 5.22,-3.62 9.64,-9.24 13.26,-16.07 4.82,-9.65 14.47,-32.15 28.53,-67.91 14.06,-35.36 38.18,-97.25 71.93,-185.25l28.13 0c18.89,56.26 36.17,107.7 52.24,153.91 15.67,46.21 27.33,78.76 34.16,97.24 3.22,8.84 7.23,14.87 12.06,18.49 4.42,3.61 10.45,5.63 18.08,5.63 1.21,0 2.81,0 4.02,-0.4l0 8.44zm-30.14 0m177.62 -122.56l-40.99 -124.57 -46.21 124.57c4.82,0.4 11.25,1.2 19.69,1.61 8.44,0.4 16.07,0.4 22.5,0.4 6.43,0 14.06,0 22.91,-0.4 8.84,-0.4 16.07,-1.2 22.1,-1.61zm105.69 122.56c-2.01,0 -5.63,-0.4 -10.45,-0.8 -18.08,-0.8 -31.34,-1.2 -39.78,-1.2 -10.44,0 -24.91,0.4 -43.4,1.2 -5.63,0.4 -10.05,0.8 -12.86,0.8l0 -8.44c1.2,0.4 2.81,0.4 4.02,0.4 8.84,0 15.27,-1.61 19.69,-4.42 4.42,-3.22 6.43,-7.63 6.43,-13.66 0,-5.22 -1.61,-13.26 -4.82,-24.11 -2.81,-10.85 -9.65,-29.74 -19.29,-56.26 -7.24,-0.4 -14.87,-0.8 -22.91,-0.8 -8.44,-0.41 -17.28,-0.41 -27.33,-0.41 -10.05,0 -18.89,0 -26.93,0.41 -8.04,0 -15.27,0.4 -21.3,0.8 -1.2,3.61 -3.22,8.84 -6.03,15.27 -13.26,35.36 -20.09,56.66 -20.09,65.1 0,6.03 2.41,10.44 6.43,13.66 4.42,2.81 11.25,4.42 19.69,4.42 1.2,0 2.81,0 4.02,-0.4l0 8.44c-8.04,-0.8 -15.67,-1.2 -23.31,-1.61 -7.63,-0.4 -14.46,-0.4 -20.89,-0.4 -6.03,0 -13.26,0 -20.9,0.4 -7.63,0.4 -15.27,0.8 -23.31,1.61l0 -8.44c1.2,0.4 2.81,0.4 4.02,0.4 6.03,0 11.65,-2.01 16.88,-6.03 5.22,-3.62 9.64,-9.24 13.26,-16.07 4.82,-9.65 14.47,-32.15 28.53,-67.91 14.06,-35.36 38.18,-97.25 71.93,-185.25l28.13 0c18.89,56.26 36.17,107.7 52.24,153.91 15.67,46.21 27.33,78.76 34.16,97.24 3.22,8.84 7.23,14.87 12.06,18.49 4.42,3.61 10.45,5.63 18.08,5.63 1.21,0 2.81,0 4.02,-0.4l0 8.44z"/>
    <path class="fil1" d="M1222.1 1346.3m291.34 -272.85c-1.2,-0.4 -2.81,-0.4 -4.42,-0.4 -4.82,0 -8.84,0.8 -12.86,2.81 -4.02,1.61 -6.83,4.02 -8.84,7.24 -3.21,4.82 -5.22,17.28 -6.43,36.57 -0.8,19.69 -1.61,49.83 -1.61,90.01l0 80.37c0,10.85 0.4,22.1 1.2,33.35 0.8,10.85 1.61,19.29 2.81,24.91l-14.07 0c-0.8,-1.61 -2.41,-4.02 -4.82,-7.23 -2.41,-3.21 -5.22,-7.23 -9.24,-11.65l-180.83 -216.19 0 88.41c0,45.81 0.4,77.15 1.61,94.03 0.8,17.28 3.22,28.13 6.43,32.55 2.81,3.62 6.03,6.03 10.05,7.63 4.02,1.61 9.24,2.41 16.07,2.41 2.81,0 5.22,0 8.04,-0.4l0 8.44c-2.41,0 -6.03,-0.4 -11.25,-0.8 -17.28,-0.8 -29.74,-1.2 -36.97,-1.2 -6.03,0 -17.28,0.4 -34.16,1.2 -5.22,0.4 -9.24,0.8 -12.06,0.8l0 -8.44c0.8,0 1.61,0 2.41,0.4 1.2,0 2.41,0 4.02,0 4.82,0 8.84,-0.81 12.86,-2.81 3.62,-1.61 6.83,-4.02 8.84,-7.23 3.21,-4.82 5.22,-16.88 6.43,-36.57 1.2,-19.69 1.61,-49.83 1.61,-90.02l0 -76.35c0,-19.69 -2.01,-33.35 -6.03,-40.99 -4.42,-7.63 -12.06,-11.25 -24.11,-11.25 -1.2,0 -3.22,0 -6.03,0.4l0 -8.44c0.4,0 1.2,0 2.01,0 15.27,1.2 26.93,2.01 34.56,2.01 3.62,0 8.44,0 14.06,-0.4 5.63,-0.4 11.65,-1.2 17.69,-1.61 2.01,5.22 4.82,10.44 8.44,15.67 3.62,5.63 8.84,12.46 15.67,20.5l148.68 178.82 0 -70.33c0,-44.6 -0.4,-75.55 -0.8,-93.63 -0.8,-18.08 -2.41,-28.93 -5.22,-32.95 -2.41,-3.62 -5.63,-6.43 -9.64,-8.04 -4.02,-1.2 -9.65,-2.01 -16.48,-2.01l-4.02 0.4 0 -8.44c11.65,0.8 20.5,1.2 26.93,1.61 6.03,0.4 11.25,0.4 15.27,0.4 4.42,0 10.45,0 18.49,-0.4 7.63,-0.4 16.07,-1.2 25.72,-1.61l0 8.44zm2.01 272.85m257.19 -273.26l-6.03 0c-7.63,0 -14.46,2.41 -20.09,7.63 -5.22,5.22 -14.06,17.28 -26.12,36.57l-64.3 102.47 0 54.25c0,27.72 2.01,45.41 6.03,53.04 4.02,7.23 12.86,11.25 26.12,11.25 1.61,0 3.22,0 4.02,0 1.2,-0.4 2.81,-0.4 4.02,-0.4l0 8.44c-15.67,-0.8 -27.72,-1.2 -36.17,-1.61 -8.44,-0.4 -15.67,-0.4 -22.1,-0.4 -6.03,0 -13.26,0 -22.1,0.4 -8.44,0.4 -20.5,0.8 -36.17,1.61l0 -8.44c1.21,0 2.81,0 3.62,0.4 1.2,0 2.81,0 4.42,0 13.26,0 22.1,-4.02 26.12,-11.25 4.02,-7.64 6.03,-25.32 6.03,-53.04l0 -52.24 -62.29 -108.5 -2.81 -5.22c-13.26,-23.31 -24.51,-34.96 -33.35,-34.96 -1.61,0 -2.81,0 -3.61,0 -0.8,0 -1.61,0 -2.41,0.4l0 -8.44c2.41,0 6.43,0.4 12.06,0.8 16.07,0.8 28.13,1.2 36.17,1.2 7.23,0 15.27,0 23.71,-0.4 8.44,-0.4 18.08,-0.8 28.53,-1.61l0 8.44c-2.41,-0.4 -4.82,-0.4 -6.03,-0.4 -7.23,0 -12.86,0.8 -16.47,3.22 -3.62,2.01 -5.63,4.82 -5.63,8.84 0,3.62 0.8,7.23 2.81,11.65 1.61,4.42 4.82,10.85 9.24,18.48l49.02 86.4 3.22 -5.22c23.31,-37.37 39.78,-65.1 50.23,-83.18 4.02,-6.83 6.43,-12.06 8.04,-16.07 1.2,-4.02 2.01,-8.04 2.01,-12.06 0,-4.02 -1.61,-6.83 -4.42,-8.84 -3.21,-2.41 -7.63,-3.22 -13.66,-3.22 -1.2,0 -3.22,0 -6.03,0.4l0 -8.44c1.61,0 4.42,0.4 8.44,0.4 16.48,1.2 28.93,1.61 37.78,1.61 6.43,0 16.88,-0.4 30.94,-1.61 3.22,0 5.63,-0.4 7.24,-0.4l0 8.04z"/>
    <path class="fil1" d="M1720.85 1346.3m177.62 -122.56l-40.99 -124.57 -46.21 124.57c4.82,0.4 11.25,1.2 19.69,1.61 8.44,0.4 16.07,0.4 22.5,0.4 6.43,0 14.06,0 22.91,-0.4 8.84,-0.4 16.07,-1.2 22.1,-1.61zm105.69 122.56c-2.01,0 -5.63,-0.4 -10.45,-0.8 -18.08,-0.8 -31.34,-1.2 -39.78,-1.2 -10.44,0 -24.91,0.4 -43.4,1.2 -5.63,0.4 -10.05,0.8 -12.86,0.8l0 -8.44c1.2,0.4 2.81,0.4 4.02,0.4 8.84,0 15.27,-1.61 19.69,-4.42 4.42,-3.22 6.43,-7.63 6.43,-13.66 0,-5.22 -1.61,-13.26 -4.82,-24.11 -2.81,-10.85 -9.65,-29.74 -19.29,-56.26 -7.24,-0.4 -14.87,-0.8 -22.91,-0.8 -8.44,-0.41 -17.28,-0.41 -27.33,-0.41 -10.05,0 -18.89,0 -26.93,0.41 -8.04,0 -15.27,0.4 -21.3,0.8 -1.2,3.61 -3.22,8.84 -6.03,15.27 -13.26,35.36 -20.09,56.66 -20.09,65.1 0,6.03 2.41,10.44 6.43,13.66 4.42,2.81 11.25,4.42 19.69,4.42 1.2,0 2.81,0 4.02,-0.4l0 8.44c-8.04,-0.8 -15.67,-1.2 -23.31,-1.61 -7.63,-0.4 -14.46,-0.4 -20.89,-0.4 -6.03,0 -13.26,0 -20.9,0.4 -7.63,0.4 -15.27,0.8 -23.31,1.61l0 -8.44c1.2,0.4 2.81,0.4 4.02,0.4 6.03,0 11.65,-2.01 16.88,-6.03 5.22,-3.62 9.64,-9.24 13.26,-16.07 4.82,-9.65 14.47,-32.15 28.53,-67.91 14.06,-35.36 38.18,-97.25 71.93,-185.25l28.13 0c18.89,56.26 36.17,107.7 52.24,153.91 15.67,46.21 27.33,78.76 34.16,97.24 3.22,8.84 7.23,14.87 12.06,18.49 4.42,3.61 10.45,5.63 18.08,5.63 1.21,0 2.81,0 4.02,-0.4l0 8.44z"/>
    <path class="fil1" d="M2130.66 1346.3m210.97 -59.47c-4.42,13.66 -7.63,25.31 -10.05,34.16 -2.41,9.24 -4.42,17.68 -6.03,25.31 -5.22,0 -12.86,-0.4 -22.91,-0.8 -28.93,-0.8 -51.43,-1.2 -67.51,-1.2 -22.91,0 -56.26,0.8 -100.46,1.61l-4.02 0.4 0 -8.44c0.8,0 1.61,0 2.81,0.4 1.2,0 3.22,0 5.22,0 11.65,0 19.29,-4.02 22.91,-11.65 3.62,-8.04 5.22,-25.72 5.22,-52.64l0 -144.67c0,-24.11 -1.61,-39.38 -4.82,-46.21 -3.61,-6.83 -11.25,-10.05 -23.31,-10.05 -1.61,0 -2.81,0 -3.61,0 -0.81,0 -1.61,0 -2.41,0.4l0 -8.44c2.01,0 5.22,0.4 9.65,0.4 18.48,1.2 32.95,1.61 42.59,1.61 10.85,0 28.13,-0.4 51.84,-1.61 2.01,-0.4 3.22,-0.4 4.42,-0.4l0 8.44c-1.2,-0.4 -2.81,-0.4 -4.02,-0.4 -14.46,0 -23.71,3.62 -27.33,10.85 -4.02,7.63 -6.03,22.5 -6.03,45.41 0,50.63 0.4,90.41 0.8,118.94 0.41,28.53 0.81,54.65 1.61,77.96 9.24,1.2 17.68,2.01 25.72,2.41 8.04,0.4 16.07,0.8 23.31,0.8 21.7,0 37.78,-2.41 48.22,-7.63 10.85,-4.82 20.89,-17.68 30.14,-37.78l8.04 2.81zm10.04 59.47m237.09 -132.61c0,-41.79 -9.24,-75.55 -27.72,-100.86 -18.49,-24.91 -43,-37.78 -72.74,-37.78 -26.93,0 -49.02,11.25 -66.3,33.76 -17.28,22.5 -26.12,51.84 -26.12,88.81 0,41.8 9.24,75.15 27.73,100.06 18.48,24.91 43,37.37 72.73,37.37 26.93,0 49.03,-11.25 66.71,-33.35 17.28,-22.1 25.72,-51.44 25.72,-88zm44.2 -8.04c0,40.19 -13.66,74.34 -40.99,102.47 -27.33,28.13 -60.28,42.2 -99.66,42.2 -41.39,0 -75.15,-13.67 -101.27,-40.99 -26.52,-27.33 -39.38,-61.89 -39.38,-103.68 0,-39.78 13.67,-73.94 41.39,-102.07 27.72,-28.53 60.68,-42.59 99.26,-42.59 40.99,0 74.74,13.66 100.86,40.99 26.52,27.33 39.78,61.89 39.78,103.68zm20.09 140.65m243.12 -223.02l-8.04 2.01c-5.22,-18.08 -11.25,-29.74 -18.08,-34.56 -6.83,-5.22 -18.89,-7.63 -36.17,-7.63l-39.38 0c-0.4,20.09 -0.8,35.36 -0.8,46.21l0 144.67c0,27.72 2.01,45.41 6.03,53.04 4.02,7.23 12.86,11.25 26.12,11.25 1.61,0 3.21,0 4.42,0 0.8,-0.4 2.41,-0.4 3.61,-0.4l0 8.44c-15.27,-0.8 -27.33,-1.2 -36.17,-1.61 -8.44,-0.4 -15.67,-0.4 -22.1,-0.4 -6.03,0 -13.66,0 -22.1,0.4 -8.44,0.4 -20.49,0.8 -36.17,1.61l0 -8.44c1.2,0 2.81,0 4.02,0.4 0.8,0 2.41,0 4.02,0 13.26,0 22.1,-4.02 26.12,-11.25 4.02,-7.64 6.03,-25.32 6.03,-53.04l0 -144.67c0,-10.85 -0.4,-26.12 -0.8,-46.21l-37.37 0c-17.28,0 -30.14,2.81 -38.17,8.44 -8.04,6.03 -14.87,16.88 -20.09,33.76l-8.04 -2.01c2.81,-10.85 4.82,-20.5 6.03,-29.74 1.61,-8.84 2.01,-19.29 2.01,-30.54 6.83,2.81 14.87,4.42 24.11,5.22 9.24,0.4 24.11,0.8 44.2,0.8l88.41 0c20.9,0 36.57,-0.4 47.02,-1.2 10.45,-0.8 20.09,-2.41 28.53,-4.82 -0.8,4.02 -1.2,10.05 -1.2,18.08 0,6.03 0.4,12.46 0.8,19.29 0.8,6.43 2.01,14.06 3.22,22.91zm22.1 223.02m281.3 -272.85c-1.2,-0.4 -2.41,-0.4 -4.02,-0.4 -6.03,0 -11.25,0.8 -15.27,2.81 -3.62,2.01 -6.83,5.22 -8.84,9.24 -1.61,3.62 -2.81,10.85 -3.62,22.1 -0.8,11.65 -1.2,29.74 -1.2,54.25l0 76.35c0,36.97 -8.84,65.1 -26.52,84.79 -18.08,19.69 -43.4,29.74 -77.16,29.74 -36.57,0 -65.1,-10.45 -84.79,-30.94 -19.69,-20.9 -29.74,-49.83 -29.74,-87.6 0,-10.85 0.4,-27.73 0.8,-50.23 0.4,-22.1 0.4,-38.58 0.4,-48.22 0,-26.52 -1.61,-43.4 -5.22,-51.04 -3.62,-7.63 -11.25,-11.25 -22.1,-11.25 -1.2,0 -2.81,0 -4.02,0.4l0 -8.44c4.42,0.4 12.46,0.4 24.52,1.2 12.46,0.4 20.89,0.8 25.72,0.8 6.83,0 18.89,-0.4 36.17,-1.2 8.04,-0.4 14.07,-0.4 18.08,-0.8l0 8.44c-1.2,-0.4 -2.81,-0.4 -4.02,-0.4 -12.46,0 -20.5,3.22 -24.11,9.24 -4.02,6.43 -6.03,19.29 -6.03,38.98l0 116.54c0,29.74 7.23,53.04 21.3,69.52 14.07,16.48 32.95,24.92 57.06,24.92 28.53,0 49.43,-8.44 62.69,-24.52 13.26,-16.47 19.69,-42.59 19.69,-77.96 0,-43.8 -0.4,-76.75 -1.2,-99.26 -1.2,-22.1 -2.81,-36.17 -4.82,-41.39 -2.81,-6.43 -5.63,-10.85 -9.64,-12.86 -3.62,-2.41 -9.24,-3.22 -16.48,-3.22 -1.61,0 -2.81,0 -3.62,0 -0.8,0 -1.61,0 -2.41,0.4l0 -8.44c4.82,0 12.06,0.4 22.91,1.2 10.44,0.4 18.89,0.8 25.31,0.8 6.43,0 13.26,0 20.5,-0.4 7.23,-0.4 13.66,-1.2 19.69,-1.61l0 8.44zm38.18 272.85m186.86 -82.38c0,24.51 -10.05,45.41 -30.54,61.48 -20.5,16.48 -46.61,24.92 -77.96,24.92 -10.45,0 -21.3,-1.21 -32.95,-3.22 -11.65,-2.41 -24.52,-6.03 -39.38,-10.85l0 -5.63c0,-10.04 -0.8,-20.89 -1.61,-33.35 -1.21,-12.86 -2.81,-21.7 -4.42,-27.33l10.85 -2.81c4.02,23.71 12.06,40.99 24.11,51.84 12.06,10.85 29.33,16.07 51.44,16.07 19.29,0 34.96,-5.63 47.42,-16.48 12.46,-11.25 18.89,-24.51 18.89,-40.59 0,-13.26 -4.82,-24.51 -14.06,-33.76 -9.65,-9.24 -24.92,-17.28 -46.21,-24.51l-12.06 -4.02c-26.12,-8.84 -44.2,-18.89 -54.65,-30.54 -10.45,-12.06 -15.67,-27.32 -15.67,-45.81 0,-22.1 9.24,-40.59 27.72,-55.85 18.89,-14.87 41.8,-22.5 68.72,-22.5 9.65,0 20.09,0.8 31.75,2.81 11.25,1.61 22.1,4.02 32.55,7.24 0,8.04 0.4,16.07 1.2,23.71 0.81,7.63 2.41,16.88 4.82,28.53l-9.24 2.81c-4.82,-17.68 -12.46,-30.94 -22.91,-38.98 -10.45,-8.04 -25.32,-12.06 -44.2,-12.06 -17.68,0 -32.15,4.42 -42.59,13.67 -10.45,9.24 -15.67,21.3 -15.67,36.57 0,12.06 4.42,22.5 13.26,30.94 8.84,8.44 23.71,16.07 45.01,23.31l12.06 4.02c27.73,9.24 47.02,20.09 57.87,32.55 10.85,12.46 16.48,28.13 16.48,47.82z"/>
    <path class="fil0" d="M2277.67 935.69c-103.52,0 -205.86,-18.75 -296.03,-48.71 -30.63,-10.17 -71.88,-32.24 -85.64,-33.37 20.31,30.32 119.71,69.03 163.63,82.61 218.96,67.74 462.9,11.89 679.42,-27.53l101.43 -17.57c212.57,-35.22 462.25,-64.78 674,2 13.39,4.22 14.58,5.93 27.24,9.71 75.36,22.46 166.18,79.71 176.43,82.1 -3.91,-14.6 -31.18,-30.35 -43.42,-38.65 -122.43,-83.08 -280,-141.92 -436.74,-141.92 -183.56,0 -159.08,1.5 -320.76,23.97 -190.96,26.54 -447.93,107.36 -639.56,107.36l0 0z"/>
    <path class="fil0" d="M1440.47 935.68c103.52,0 205.86,-18.75 296.03,-48.69 30.63,-10.17 71.88,-32.24 85.64,-33.37 -20.31,30.32 -119.71,69.03 -163.63,82.61 -218.96,67.74 -462.91,11.89 -679.42,-27.53l-101.43 -17.57c-212.57,-35.22 -462.25,-64.78 -674,1.99 -13.39,4.24 -14.59,5.94 -27.24,9.71 -75.36,22.47 -166.18,79.72 -176.43,82.11 3.91,-14.6 31.18,-30.35 43.42,-38.67 122.43,-83.07 280,-141.91 436.74,-141.91 183.54,0 159.08,1.5 320.76,23.97 190.96,26.54 447.93,107.35 639.56,107.35l0 0z"/>
   </g>
   <path class="fil0" d="M1604.63 824.65l0 -12.3c-30.65,-2.56 -65.71,-19.1 -90.81,-28.21 -72.24,-26.21 -157.46,-77.6 -213.91,-130.82 -6.43,-6.06 -10.06,-8.35 -15.35,-13.36 -7.5,-7.13 -6.57,-7.22 -13.56,-15.18 -28.11,-31.97 -26.12,-33.93 -125.54,-4.85 -85.82,25.11 -140.33,63.9 -160.53,69.29 2.24,26.82 65.61,55.44 86.18,65.68 102.89,51.17 236.18,82.07 361.15,82.07 83.13,0 150.67,-12.32 172.36,-12.32z"/>
   <g>
    <image x="1372.92" y="697.13" width="247.19" height="140.07" xlink:href="maanya lotus logo_Images\maanya lotus logo_ImgID2.png"/>
   </g>
   <path class="fil0" d="M2113.5 812.57l0 12.32c21.7,0 89.25,12.31 172.38,12.31 124.96,0 258.25,-30.9 361.14,-82.07 20.58,-10.24 83.96,-38.86 86.18,-65.67 -20.18,-5.39 -74.71,-44.18 -160.53,-69.29 -99.41,-29.08 -97.42,-27.14 -125.53,4.83 -6.99,7.97 -6.06,8.07 -13.56,15.18 -5.3,5.02 -8.91,7.31 -15.36,13.38 -56.46,53.21 -141.68,104.59 -213.91,130.8 -25.11,9.11 -60.15,25.67 -90.82,28.21l0 0z"/>
   <g>
    <image x="2106.27" y="697.13" width="238.95" height="140.07" xlink:href="maanya lotus logo_Images\maanya lotus logo_ImgID3.png"/>
   </g>
  </g>
 </g>
</svg>
