<?xml version="1.0" encoding="UTF-8"?>
<!DOCTYPE svg PUBLIC "-//W3C//DTD SVG 1.1//EN" "http://www.w3.org/Graphics/SVG/1.1/DTD/svg11.dtd">
<!-- Creator: CorelDRAW 2020 (64-Bit) -->
<svg xmlns="http://www.w3.org/2000/svg" xml:space="preserve" width="3.79785in" height="1.41411in" version="1.1" style="shape-rendering:geometricPrecision; text-rendering:geometricPrecision; image-rendering:optimizeQuality; fill-rule:evenodd; clip-rule:evenodd"
viewBox="0 0 3797.84 1414.11"
 xmlns:xlink="http://www.w3.org/1999/xlink"
 xmlns:xodm="http://www.corel.com/coreldraw/odm/2003">
 <defs>
  <style type="text/css">
   <![CDATA[
    .fil0 {fill:#FEB900}
    .fil1 {fill:#FEFEFE;fill-rule:nonzero}
   ]]>
  </style>
 </defs>
 <g id="Layer_x0020_1">
  <metadata id="CorelCorpID_0Corel-Layer"/>
  <g id="_1714636675824">
   <g>
    <path class="fil0" d="M394.92 853c-2.62,-2.48 -6.67,-10.2 -7.85,-7.44 -0.13,0.31 -144.05,-88.62 -221.63,-271.16 -21.52,-50.63 -28.83,-94.93 -48.43,-139.85 107.88,27.65 6.21,22.49 215.35,52.74 221.28,32.01 126.8,35.82 208.83,59.93 -84.87,-139.46 -256.77,-96.54 -366.34,-128.02 -53.78,-15.46 -83.18,-36.78 -130.97,-49.02 9.81,129.8 120.41,331.58 208.73,414.1 54.76,51.17 80.85,67.22 142.32,68.73z"/>
    <path class="fil0" d="M-0 1319.75c77.32,0 92.02,12.74 147.3,16.17 75.25,4.67 318.11,-28.35 379.26,-128.83 -61.31,15.72 -66.53,38.43 -139.7,55.5 -212.5,49.59 -199.48,10.96 -284.47,8.88 52.84,-79.36 27.99,24.09 136.39,-204.02 15.7,-33.05 42.63,-82.65 64.34,-106.23 42.6,-46.28 58.23,-29.92 106.43,-76.02 -57.52,1.41 -101.89,24.94 -140.76,54.35 -59.48,45 -113.06,185.06 -165.95,268.03 -38.26,60.01 -73.43,68.01 -102.83,112.18z"/>
    <path class="fil0" d="M570.44 434.55l29.26 144.85c0,-208.32 36.05,-324.8 160.89,-482.84 25.55,120.67 40.76,139.45 93.9,234.67 45.16,80.95 83.85,174.64 37.74,280.35 46.23,-20.53 15.33,36.21 37,-55.85 53.12,-225.65 -135.29,-308.12 -154.01,-555.74 -63.21,50.95 -204.78,310.2 -204.78,434.55z"/>
    <path class="fil0" d="M994.61 515.02c158.52,-40.63 165.89,-80.47 409.55,-80.47 -65.76,108.06 -33.44,-11.54 -146.17,241.51 -20.44,45.88 -31.9,84.11 -70.02,116.09 -49.32,41.39 -87.87,28.37 -120.22,76.94 241.74,-5.92 262.15,-299.54 354.51,-398.55 34.75,-37.25 41.43,-26.79 55.05,-68.19 -103.72,0 -196.13,-5.14 -279.67,14.16 -75.8,17.5 -165.55,42.25 -203.02,98.5z"/>
   </g>
   <g>
    <path class="fil1" d="M687.28 1166.59m0 0l0 -314.11 107.65 0c19.14,0 33.49,0.87 43.46,3.07 13.96,2.63 25.92,7.46 35.49,14.48 9.17,7.46 16.74,17.55 22.72,30.27 5.58,13.16 8.77,27.64 8.77,42.99 0,26.76 -7.97,49.57 -23.13,68 -15.55,18.43 -43.46,27.64 -83.73,27.64l-73.36 0 0 127.66 -37.87 0zm37.87 -164.96l73.76 0c24.32,0 41.86,-4.82 51.83,-14.91 10.37,-10.09 15.55,-24.13 15.55,-42.11 0,-13.17 -3.19,-24.57 -9.17,-33.78 -5.98,-9.21 -13.95,-15.35 -23.92,-18.43 -5.98,-1.76 -17.94,-2.63 -35.08,-2.63l-72.96 0 0 111.87z"/>
    <path class="fil1" d="M921.91 1166.59m0 0l73.36 -209.41 27.11 0 77.87 209.41 -28.7 0 -22.33 -63.46 -79.47 0 -21 63.46 -26.85 0zm55.02 -85.98l64.59 0 -19.93 -57.91c-6.11,-17.55 -10.63,-32.17 -13.56,-43.57 -2.39,13.45 -5.85,26.91 -10.1,40.07l-21 61.42zm143.79 85.98m0 0l0 -209.41 84.26 0c17.01,0 29.77,2.05 38.8,5.56 8.77,3.8 15.69,10.53 21,19.89 5.31,9.65 7.97,20.18 7.97,31.59 0,14.92 -4.52,27.49 -13.02,37.73 -8.77,10.24 -22.33,16.67 -40.67,19.3 6.65,3.51 11.7,7.02 15.15,10.53 7.44,7.31 14.35,16.67 21,27.78l33.23 57.03 -31.9 0 -24.98 -43.57c-7.44,-12.57 -13.56,-22.23 -18.34,-28.96 -4.78,-6.43 -9.04,-11.11 -12.76,-13.74 -3.72,-2.93 -7.44,-4.68 -11.43,-5.85 -2.93,-0.59 -7.44,-0.88 -14.09,-0.88l-29.24 0 0 93 -24.99 0zm24.99 -116.98l54.22 0c11.43,0 20.47,-1.17 27.11,-3.8 6.38,-2.63 11.43,-7.02 14.62,-12.57 3.45,-5.85 5.05,-11.99 5.05,-19.01 0,-9.65 -3.19,-17.84 -9.83,-24.27 -6.38,-6.44 -16.74,-9.65 -30.83,-9.65l-60.33 0 0 69.31zm170.64 116.98m0 0l0 -209.41 25.25 0 0 209.41 -25.25 0zm56.61 0m0.26 -59.37l22.59 -3.51c0.8,16.08 3.45,26.91 8.24,32.76 4.78,6.14 11.7,9.07 20.2,9.07 6.38,0 11.69,-1.76 16.21,-4.97 4.78,-3.22 7.7,-7.31 9.57,-12.87 1.59,-5.56 2.66,-14.33 2.66,-26.32l0 -144.19 24.98 0 0 142.72c0,17.55 -1.86,31 -5.58,40.65 -3.99,9.65 -10.1,16.96 -18.34,21.93 -8.5,5.27 -18.07,7.61 -29.5,7.61 -16.75,0 -29.5,-5.26 -38.28,-15.8 -8.77,-10.53 -13.02,-26.32 -12.76,-47.08zm124.66 59.37m0 0l73.36 -209.41 27.11 0 77.87 209.41 -28.7 0 -22.33 -63.46 -79.47 0 -21 63.46 -26.85 0zm55.02 -85.98l64.59 0 -19.93 -57.91c-6.11,-17.55 -10.63,-32.17 -13.56,-43.57 -2.39,13.45 -5.85,26.91 -10.1,40.07l-21 61.42z"/>
    <path class="fil1" d="M1662.23 1166.59m62.46 0l0 -184.54 -62.46 0 0 -24.86 150.7 0 0 24.86 -62.99 0 0 184.54 -25.25 0zm114.82 0m0 0l0 -209.41 25.25 0 0 85.99 98.87 0 0 -85.99 25.25 0 0 209.41 -25.25 0 0 -98.56 -98.87 0 0 98.56 -25.25 0zm170.11 0m0 0l73.36 -209.41 27.11 0 77.87 209.41 -28.7 0 -22.33 -63.46 -79.47 0 -21 63.46 -26.85 0zm55.02 -85.98l64.59 0 -19.93 -57.91c-6.11,-17.55 -10.63,-32.17 -13.56,-43.57 -2.39,13.45 -5.85,26.91 -10.1,40.07l-21 61.42z"/>
    <path class="fil1" d="M2327.74 1166.59m0 0l0 -314.11 57.02 0 67.38 222.42c6.38,20.62 10.76,35.98 13.56,46.5 3.59,-11.41 8.37,-28.08 15.55,-50.45l68.18 -218.48 50.64 0 0 314.11 -36.28 0 0 -262.79 -82.93 262.79 -33.89 0 -82.53 -267.17 0 267.17 -36.68 0z"/>
    <path class="fil1" d="M2651.21 1166.59m0 0l0 -209.41 137.68 0 0 24.86 -112.43 0 0 64.05 105.25 0 0 24.57 -105.25 0 0 71.07 116.68 0 0 24.86 -141.94 0zm155.76 0m0 0l73.36 -209.41 27.11 0 77.88 209.41 -28.71 0 -22.33 -63.46 -79.47 0 -21 63.46 -26.85 0zm55.02 -85.98l64.59 0 -19.93 -57.91c-6.11,-17.55 -10.63,-32.17 -13.56,-43.57 -2.39,13.45 -5.85,26.91 -10.1,40.07l-21 61.42zm143.26 85.98m0 0l0 -209.41 65.65 0c14.62,0 26.05,1.17 33.76,2.93 10.9,2.93 20.2,7.9 27.91,15.21 10.1,9.07 17.54,21.06 22.59,35.68 5.05,14.62 7.44,31 7.44,49.72 0,15.79 -1.6,30.12 -5.06,42.41 -3.45,12.28 -7.7,22.23 -13.02,30.42 -5.31,7.9 -10.89,14.33 -17.28,19.01 -6.38,4.68 -13.82,8.19 -22.59,10.53 -9.04,2.34 -19.14,3.51 -30.57,3.51l-68.84 0zm25.25 -24.86l40.67 0c12.49,0 22.32,-1.17 29.5,-3.8 7.18,-2.63 12.76,-6.14 17.01,-10.82 6.11,-6.44 10.63,-15.5 14.09,-26.32 3.19,-11.11 4.78,-24.57 4.78,-40.36 0,-21.94 -3.19,-38.9 -9.57,-50.6 -6.64,-11.7 -14.62,-19.59 -23.92,-23.69 -6.91,-2.93 -17.54,-4.09 -32.7,-4.09l-39.87 0 0 159.68zm158.94 24.86m0 -102.07c0,-34.8 8.5,-62 25.51,-81.6 17.02,-19.59 38.81,-29.54 65.65,-29.54 17.54,0 33.49,4.68 47.58,14.04 14.09,9.07 24.72,21.94 32.16,38.61 7.44,16.38 11.16,35.1 11.16,56.15 0,21.35 -3.99,40.36 -11.69,57.03 -7.71,16.67 -18.87,29.24 -32.96,38.02 -14.35,8.48 -29.77,12.87 -46.25,12.87 -18.07,0 -34.02,-4.68 -48.11,-14.33 -14.09,-9.36 -24.72,-22.52 -32.16,-38.9 -7.18,-16.38 -10.9,-33.93 -10.9,-52.35zm26.05 0.58c0,25.15 6.11,45.04 18.6,59.67 12.23,14.33 27.65,21.64 46.25,21.64 18.87,0 34.56,-7.31 46.78,-21.94 12.23,-14.62 18.34,-35.39 18.34,-62.59 0,-16.96 -2.39,-31.88 -7.71,-44.46 -5.32,-12.87 -13.02,-22.52 -23.12,-29.54 -10.1,-7.02 -21.27,-10.53 -33.76,-10.53 -17.81,0 -33.22,6.73 -45.98,20.18 -13.03,13.45 -19.41,35.97 -19.41,67.56zm171.17 101.48m50.5 0l-50.5 -209.41 25.78 0 28.97 137.17c3.19,14.62 5.85,28.66 8.24,42.99 4.78,-22.52 7.71,-35.39 8.5,-38.9l36.15 -141.26 30.3 0 27.37 105.87c6.91,26.32 11.7,51.18 14.89,74.29 2.39,-13.16 5.58,-28.37 9.3,-45.63l29.77 -134.54 25.52 0 -52.36 209.41 -24.19 0 -40.13 -159.39c-3.19,-13.46 -5.31,-21.65 -5.85,-24.57 -2.13,9.36 -3.99,17.55 -5.58,24.57l-40.4 159.39 -25.79 0zm209.18 0m0 -67.27l23.66 -2.34c1.33,10.53 3.72,19.01 7.97,25.74 3.99,6.73 10.36,12.29 19.13,16.38 8.51,4.09 18.34,6.14 29.24,6.14 9.57,0 18.07,-1.46 25.25,-4.68 7.44,-3.22 13.02,-7.31 16.48,-12.87 3.72,-5.56 5.58,-11.41 5.58,-17.84 0,-6.73 -1.86,-12.28 -5.31,-17.26 -3.46,-4.97 -9.3,-9.07 -17.01,-12.28 -5.31,-2.34 -16.48,-5.85 -34.02,-10.24 -17.54,-4.68 -29.76,-9.07 -36.68,-13.16 -9.04,-5.26 -15.95,-11.7 -20.46,-19.59 -4.25,-7.6 -6.65,-16.38 -6.65,-26.03 0,-10.53 2.93,-20.47 8.24,-29.54 5.58,-9.35 13.55,-16.08 23.92,-21.06 10.37,-4.68 22.06,-7.02 34.82,-7.02 14.09,0 26.58,2.34 37.48,7.61 10.63,4.97 18.87,12.28 24.72,21.93 5.85,9.65 9.04,20.76 9.31,33.05l-23.93 2.05c-1.33,-13.45 -5.85,-23.4 -13.29,-30.12 -7.44,-6.72 -18.61,-10.24 -33.22,-10.24 -15.15,0 -26.31,3.22 -33.23,9.36 -6.91,6.14 -10.36,13.45 -10.36,22.23 0,7.6 2.39,13.74 7.18,18.43 5.05,4.97 17.54,9.94 38.01,14.91 20.46,5.26 34.55,9.65 42.26,13.45 10.9,5.56 19.14,12.58 24.45,21.35 5.31,8.48 7.97,18.43 7.97,29.83 0,11.11 -2.92,21.64 -8.77,31.29 -5.85,9.94 -14.09,17.55 -24.99,23.11 -10.9,5.56 -23.12,8.19 -36.68,8.19 -17.28,0 -31.63,-2.63 -43.33,-8.19 -11.43,-5.56 -20.73,-14.04 -27.37,-24.86 -6.65,-11.11 -10.1,-23.69 -10.37,-37.73z"/>
    <path class="fil1" d="M696.05 1384.4m36.37 0l0 -88.88 -36.37 0 0 -11.98 87.76 0 0 11.98 -36.69 0 0 88.88 -14.71 0zm64.7 0m0 0l0 -100.85 13.62 0 0 36.2c6.34,-6.76 14.39,-10 23.99,-10 6.04,0 11.15,0.99 15.48,3.1 4.49,2.25 7.59,5.07 9.44,8.87 1.85,3.8 2.78,9.16 2.78,16.34l0 46.34 -13.62 0 0 -46.34c0,-6.2 -1.39,-10.7 -4.33,-13.52 -2.94,-2.82 -7.12,-4.23 -12.54,-4.23 -4.03,0 -7.74,0.99 -11.3,2.96 -3.56,1.83 -6.19,4.37 -7.58,7.75 -1.55,3.24 -2.32,7.74 -2.32,13.38l0 40 -13.62 0zm81.57 0m59.44 -23.52l14.09 1.55c-2.32,7.46 -6.35,13.24 -12.39,17.46 -6.04,4.08 -13.62,6.2 -22.91,6.2 -11.76,0 -21.05,-3.38 -28.02,-9.86 -6.81,-6.62 -10.22,-15.92 -10.22,-27.75 0,-12.26 3.41,-21.83 10.37,-28.59 6.96,-6.76 15.94,-10.14 27.09,-10.14 10.68,0 19.5,3.24 26.31,9.86 6.81,6.76 10.22,16.06 10.22,28.17 0,0.7 0,1.83 -0.16,3.24l-59.74 0c0.46,8.03 2.94,14.23 7.43,18.45 4.49,4.23 10.06,6.34 16.72,6.34 4.95,0 9.29,-1.13 12.85,-3.52 3.56,-2.39 6.34,-6.2 8.35,-11.41zm-44.73 -20l44.89 0c-0.62,-6.2 -2.32,-10.7 -5.11,-13.8 -4.33,-4.79 -10.06,-7.19 -16.87,-7.19 -6.35,0 -11.46,1.83 -15.79,5.63 -4.18,3.8 -6.65,9.02 -7.12,15.35zm118.87 43.52m12.54 0l-12.54 0 0 -100.85 13.46 0 0 35.92c5.88,-6.48 13.15,-9.72 21.98,-9.72 4.95,0 9.75,0.85 14.08,2.68 4.49,1.83 8.05,4.37 10.83,7.61 2.94,3.24 5.11,7.32 6.81,11.83 1.55,4.65 2.32,9.58 2.32,14.93 0,12.54 -3.4,22.11 -10.21,29.02 -6.81,6.76 -14.86,10.28 -24.45,10.28 -9.44,0 -16.87,-3.66 -22.29,-10.85l0 9.16zm-0.15 -37.05c0,8.74 1.39,15.07 3.87,18.88 4.33,6.48 10.22,9.57 17.49,9.57 5.88,0 10.99,-2.25 15.33,-7.04 4.33,-4.65 6.5,-11.69 6.5,-20.98 0,-9.58 -2.02,-16.62 -6.19,-21.13 -4.18,-4.51 -9.13,-6.76 -15.02,-6.76 -6.04,0 -11.14,2.39 -15.48,7.04 -4.33,4.65 -6.5,11.55 -6.5,20.42zm73.37 37.05m0 0l0 -100.85 13.62 0 0 100.85 -13.62 0zm29.56 0m0 -36.48c0,-13.52 4.18,-23.67 12.38,-30.15 6.97,-5.35 15.32,-8.03 25.23,-8.03 11.15,0 20.12,3.24 27.09,9.86 6.96,6.48 10.53,15.64 10.53,27.19 0,9.44 -1.55,16.9 -4.65,22.26 -3.09,5.35 -7.58,9.58 -13.46,12.54 -6.04,2.96 -12.38,4.51 -19.5,4.51 -11.14,0 -20.28,-3.38 -27.24,-9.86 -6.81,-6.62 -10.37,-16.06 -10.37,-28.31zm14.08 0c0,9.29 2.17,16.33 6.66,20.98 4.49,4.65 10.21,6.9 16.87,6.9 6.81,0 12.39,-2.25 16.87,-6.9 4.49,-4.79 6.81,-11.83 6.81,-21.41 0,-9.01 -2.32,-15.91 -6.81,-20.56 -4.49,-4.65 -10.06,-7.04 -16.87,-7.04 -6.66,0 -12.38,2.39 -16.87,7.04 -4.49,4.65 -6.66,11.55 -6.66,20.99zm71.67 36.48m0 -21.83l13.46 -1.97c0.78,4.93 2.79,8.74 6.35,11.41 3.41,2.54 8.2,3.8 14.4,3.8 6.19,0 10.83,-1.13 13.93,-3.38 2.94,-2.39 4.49,-5.07 4.49,-8.17 0,-2.81 -1.24,-5.07 -4.02,-6.62 -1.86,-1.13 -6.5,-2.54 -13.93,-4.22 -9.9,-2.26 -16.87,-4.22 -20.74,-5.92 -3.72,-1.69 -6.66,-3.94 -8.67,-6.9 -2.01,-2.96 -3.09,-6.34 -3.09,-9.86 0,-3.24 0.93,-6.2 2.48,-9.02 1.7,-2.82 3.87,-5.07 6.81,-6.9 2.01,-1.41 4.95,-2.68 8.51,-3.66 3.71,-0.98 7.58,-1.41 11.76,-1.41 6.35,0 11.92,0.7 16.72,2.39 4.64,1.69 8.2,3.94 10.52,6.76 2.17,2.82 3.71,6.62 4.65,11.27l-13.31 1.69c-0.62,-3.8 -2.33,-6.76 -5.26,-8.87 -2.94,-2.11 -6.96,-3.1 -12.23,-3.1 -6.35,0 -10.68,0.99 -13.47,2.81 -2.63,1.83 -4.02,4.09 -4.02,6.62 0,1.55 0.62,2.96 1.7,4.37 1.08,1.27 2.94,2.39 5.26,3.24 1.39,0.42 5.41,1.55 12.07,3.1 9.59,2.39 16.25,4.37 20.12,5.78 3.71,1.55 6.81,3.66 8.98,6.48 2.17,2.96 3.25,6.48 3.25,10.7 0,4.08 -1.39,8.02 -4.03,11.55 -2.63,3.66 -6.5,6.48 -11.45,8.45 -4.96,2.11 -10.69,3.1 -16.87,3.1 -10.52,0 -18.42,-1.97 -23.99,-5.91 -5.42,-3.94 -8.83,-9.86 -10.37,-17.61zm77.39 21.83m0 -21.83l13.46 -1.97c0.78,4.93 2.79,8.74 6.35,11.41 3.41,2.54 8.2,3.8 14.4,3.8 6.19,0 10.83,-1.13 13.93,-3.38 2.94,-2.39 4.49,-5.07 4.49,-8.17 0,-2.81 -1.24,-5.07 -4.02,-6.62 -1.86,-1.13 -6.5,-2.54 -13.93,-4.22 -9.9,-2.26 -16.87,-4.22 -20.74,-5.92 -3.72,-1.69 -6.66,-3.94 -8.67,-6.9 -2.01,-2.96 -3.09,-6.34 -3.09,-9.86 0,-3.24 0.93,-6.2 2.48,-9.02 1.7,-2.82 3.87,-5.07 6.81,-6.9 2.01,-1.41 4.95,-2.68 8.51,-3.66 3.71,-0.98 7.58,-1.41 11.76,-1.41 6.35,0 11.92,0.7 16.72,2.39 4.64,1.69 8.2,3.94 10.52,6.76 2.17,2.82 3.71,6.62 4.65,11.27l-13.31 1.69c-0.62,-3.8 -2.33,-6.76 -5.26,-8.87 -2.94,-2.11 -6.96,-3.1 -12.23,-3.1 -6.35,0 -10.68,0.99 -13.47,2.81 -2.63,1.83 -4.02,4.09 -4.02,6.62 0,1.55 0.62,2.96 1.7,4.37 1.08,1.27 2.94,2.39 5.26,3.24 1.39,0.42 5.41,1.55 12.07,3.1 9.6,2.39 16.25,4.37 20.12,5.78 3.71,1.55 6.81,3.66 8.98,6.48 2.17,2.96 3.25,6.48 3.25,10.7 0,4.08 -1.39,8.02 -4.03,11.55 -2.63,3.66 -6.5,6.48 -11.45,8.45 -4.96,2.11 -10.69,3.1 -16.87,3.1 -10.52,0 -18.42,-1.97 -23.99,-5.91 -5.42,-3.94 -8.83,-9.86 -10.37,-17.61zm77.7 21.83m0 -36.48c0,-13.52 4.18,-23.67 12.38,-30.15 6.96,-5.35 15.32,-8.03 25.23,-8.03 11.15,0 20.12,3.24 27.09,9.86 6.97,6.48 10.53,15.64 10.53,27.19 0,9.44 -1.55,16.9 -4.65,22.26 -3.09,5.35 -7.58,9.58 -13.46,12.54 -6.04,2.96 -12.38,4.51 -19.5,4.51 -11.14,0 -20.28,-3.38 -27.24,-9.86 -6.81,-6.62 -10.37,-16.06 -10.37,-28.31zm14.08 0c0,9.29 2.17,16.33 6.66,20.98 4.49,4.65 10.22,6.9 16.87,6.9 6.81,0 12.39,-2.25 16.87,-6.9 4.49,-4.79 6.81,-11.83 6.81,-21.41 0,-9.01 -2.32,-15.91 -6.81,-20.56 -4.48,-4.65 -10.06,-7.04 -16.87,-7.04 -6.65,0 -12.38,2.39 -16.87,7.04 -4.48,4.65 -6.66,11.55 -6.66,20.99zm77.08 36.48m0 0l0 -73.11 12.23 0 0 10.28c2.48,-3.52 5.88,-6.48 10.06,-8.59 4.18,-2.25 8.83,-3.24 14.24,-3.24 5.88,0 10.83,1.13 14.55,3.38 3.87,2.11 6.5,5.35 8.05,9.3 6.34,-8.45 14.7,-12.68 24.76,-12.68 8.05,0 14.09,1.97 18.42,5.92 4.33,4.08 6.5,10.28 6.5,18.59l0 50.15 -13.62 0 0 -46.06c0,-4.93 -0.46,-8.45 -1.24,-10.7 -0.93,-2.11 -2.48,-3.94 -4.8,-5.21 -2.32,-1.41 -5.11,-1.97 -8.2,-1.97 -5.73,0 -10.37,1.69 -14.09,5.07 -3.71,3.38 -5.57,8.87 -5.57,16.48l0 42.4 -13.62 0 0 -47.47c0,-5.49 -1.08,-9.58 -3.25,-12.39 -2.32,-2.68 -5.88,-4.09 -10.99,-4.09 -3.71,0 -7.28,0.85 -10.52,2.68 -3.25,1.83 -5.57,4.51 -7.12,8.03 -1.39,3.67 -2.17,8.73 -2.17,15.35l0 37.89 -13.62 0zm164.53 0m37.15 -11.13l2.01 10.99c-3.87,0.7 -7.27,1.13 -10.37,1.13 -4.96,0 -8.67,-0.7 -11.45,-2.11 -2.79,-1.55 -4.64,-3.38 -5.73,-5.63 -1.08,-2.39 -1.7,-7.18 -1.7,-14.65l0 -41.98 -9.91 0 0 -9.72 9.91 0 0 -18.03 13.62 -7.46 0 25.49 13.62 0 0 9.72 -13.62 0 0 42.68c0,3.52 0.16,5.78 0.62,6.76 0.46,0.98 1.24,1.83 2.32,2.39 1.09,0.7 2.63,0.98 4.65,0.98 1.55,0 3.56,-0.14 6.04,-0.56zm13.31 11.13m0 0l0 -100.85 13.62 0 0 36.2c6.34,-6.76 14.39,-10 23.99,-10 6.04,0 11.15,0.99 15.48,3.1 4.49,2.25 7.58,5.07 9.44,8.87 1.86,3.8 2.78,9.16 2.78,16.34l0 46.34 -13.61 0 0 -46.34c0,-6.2 -1.4,-10.7 -4.34,-13.52 -2.94,-2.82 -7.12,-4.23 -12.54,-4.23 -4.03,0 -7.74,0.99 -11.3,2.96 -3.56,1.83 -6.19,4.37 -7.58,7.75 -1.55,3.24 -2.32,7.74 -2.32,13.38l0 40 -13.62 0zm81.42 0m56.96 -9.02c-4.95,3.94 -9.75,6.62 -14.55,8.31 -4.64,1.55 -9.6,2.39 -15.02,2.39 -8.67,0 -15.48,-1.97 -20.28,-5.91 -4.65,-3.94 -7.12,-9.02 -7.12,-15.07 0,-3.52 0.93,-6.76 2.78,-9.72 1.7,-2.96 4.02,-5.35 6.96,-7.19 2.94,-1.83 6.19,-3.1 9.75,-4.09 2.63,-0.56 6.66,-1.27 12.07,-1.83 10.99,-1.13 19.19,-2.54 24.3,-4.23 0,-1.69 0.15,-2.81 0.15,-3.24 0,-5.07 -1.39,-8.59 -3.87,-10.7 -3.56,-2.82 -8.67,-4.23 -15.48,-4.23 -6.5,0 -11.15,1.13 -14.24,3.1 -3.09,2.11 -5.26,5.63 -6.81,10.85l-13.31 -1.69c1.24,-5.21 3.25,-9.3 6.04,-12.54 2.79,-3.1 6.81,-5.63 12.07,-7.32 5.11,-1.69 11.3,-2.54 18.11,-2.54 6.81,0 12.38,0.7 16.72,2.11 4.33,1.55 7.43,3.38 9.44,5.63 2.01,2.11 3.41,4.93 4.33,8.31 0.31,2.12 0.62,5.92 0.62,11.41l0 16.62c0,11.41 0.31,18.73 0.93,21.83 0.46,2.96 1.7,5.92 3.41,8.74l-14.24 0c-1.4,-2.54 -2.33,-5.64 -2.79,-9.02zm-1.08 -27.61c-4.95,1.83 -12.38,3.38 -22.13,4.65 -5.72,0.7 -9.59,1.55 -11.92,2.39 -2.32,0.98 -4.18,2.39 -5.42,4.08 -1.24,1.83 -1.86,3.66 -1.86,5.92 0,3.24 1.39,6.06 4.18,8.17 2.63,2.25 6.65,3.38 11.92,3.38 5.26,0 9.91,-1.13 14.08,-3.1 4.03,-2.11 7.12,-4.93 8.98,-8.59 1.39,-2.82 2.17,-6.9 2.17,-12.39l0 -4.51zm27.4 36.62m37.15 -11.13l2.01 10.99c-3.87,0.7 -7.27,1.13 -10.37,1.13 -4.95,0 -8.67,-0.7 -11.45,-2.11 -2.79,-1.55 -4.64,-3.38 -5.72,-5.63 -1.09,-2.39 -1.7,-7.18 -1.7,-14.65l0 -41.98 -9.91 0 0 -9.72 9.91 0 0 -18.03 13.62 -7.46 0 25.49 13.62 0 0 9.72 -13.62 0 0 42.68c0,3.52 0.15,5.78 0.62,6.76 0.46,0.98 1.24,1.83 2.32,2.39 1.09,0.7 2.63,0.98 4.65,0.98 1.55,0 3.56,-0.14 6.04,-0.56zm56.34 11.13m0 0l0 -73.11 12.22 0 0 10.28c2.48,-3.52 5.89,-6.48 10.06,-8.59 4.18,-2.25 8.82,-3.24 14.24,-3.24 5.88,0 10.83,1.13 14.54,3.38 3.87,2.11 6.5,5.35 8.05,9.3 6.35,-8.45 14.7,-12.68 24.76,-12.68 8.05,0 14.09,1.97 18.42,5.92 4.33,4.08 6.5,10.28 6.5,18.59l0 50.15 -13.62 0 0 -46.06c0,-4.93 -0.46,-8.45 -1.24,-10.7 -0.93,-2.11 -2.48,-3.94 -4.8,-5.21 -2.32,-1.41 -5.11,-1.97 -8.2,-1.97 -5.72,0 -10.37,1.69 -14.08,5.07 -3.72,3.38 -5.57,8.87 -5.57,16.48l0 42.4 -13.62 0 0 -47.47c0,-5.49 -1.08,-9.58 -3.25,-12.39 -2.32,-2.68 -5.88,-4.09 -10.99,-4.09 -3.71,0 -7.27,0.85 -10.52,2.68 -3.25,1.83 -5.57,4.51 -7.12,8.03 -1.39,3.67 -2.17,8.73 -2.17,15.35l0 37.89 -13.62 0zm124.29 0m56.96 -9.02c-4.95,3.94 -9.75,6.62 -14.55,8.31 -4.64,1.55 -9.59,2.39 -15.01,2.39 -8.67,0 -15.48,-1.97 -20.28,-5.91 -4.64,-3.94 -7.12,-9.02 -7.12,-15.07 0,-3.52 0.93,-6.76 2.79,-9.72 1.7,-2.96 4.02,-5.35 6.96,-7.19 2.94,-1.83 6.19,-3.1 9.75,-4.09 2.63,-0.56 6.65,-1.27 12.07,-1.83 10.99,-1.13 19.19,-2.54 24.3,-4.23 0,-1.69 0.15,-2.81 0.15,-3.24 0,-5.07 -1.39,-8.59 -3.87,-10.7 -3.56,-2.82 -8.67,-4.23 -15.48,-4.23 -6.5,0 -11.15,1.13 -14.24,3.1 -3.09,2.11 -5.26,5.63 -6.81,10.85l-13.31 -1.69c1.24,-5.21 3.25,-9.3 6.04,-12.54 2.79,-3.1 6.81,-5.63 12.07,-7.32 5.11,-1.69 11.3,-2.54 18.11,-2.54 6.81,0 12.38,0.7 16.71,2.11 4.34,1.55 7.43,3.38 9.44,5.63 2.01,2.11 3.41,4.93 4.33,8.31 0.31,2.12 0.62,5.92 0.62,11.41l0 16.62c0,11.41 0.31,18.73 0.93,21.83 0.46,2.96 1.7,5.92 3.41,8.74l-14.24 0c-1.39,-2.54 -2.32,-5.64 -2.79,-9.02zm-1.08 -27.61c-4.95,1.83 -12.38,3.38 -22.13,4.65 -5.73,0.7 -9.59,1.55 -11.92,2.39 -2.32,0.98 -4.18,2.39 -5.42,4.08 -1.24,1.83 -1.86,3.66 -1.86,5.92 0,3.24 1.39,6.06 4.18,8.17 2.63,2.25 6.66,3.38 11.92,3.38 5.26,0 9.91,-1.13 14.08,-3.1 4.02,-2.11 7.12,-4.93 8.98,-8.59 1.39,-2.82 2.17,-6.9 2.17,-12.39l0 -4.51zm34.82 36.62m0 0l0 -100.85 13.62 0 0 57.47 32.2 -29.72 17.65 0 -30.65 27.19 33.74 45.92 -16.72 0 -26.63 -37.33 -9.59 8.31 0 29.02 -13.62 0zm72.9 0m59.44 -23.52l14.09 1.55c-2.32,7.46 -6.35,13.24 -12.38,17.46 -6.04,4.08 -13.62,6.2 -22.91,6.2 -11.76,0 -21.05,-3.38 -28.02,-9.86 -6.81,-6.62 -10.22,-15.92 -10.22,-27.75 0,-12.26 3.41,-21.83 10.37,-28.59 6.96,-6.76 15.94,-10.14 27.09,-10.14 10.68,0 19.5,3.24 26.31,9.86 6.81,6.76 10.21,16.06 10.21,28.17 0,0.7 0,1.83 -0.15,3.24l-59.74 0c0.46,8.03 2.94,14.23 7.43,18.45 4.48,4.23 10.06,6.34 16.71,6.34 4.96,0 9.29,-1.13 12.85,-3.52 3.56,-2.39 6.34,-6.2 8.35,-11.41zm-44.73 -20l44.89 0c-0.62,-6.2 -2.32,-10.7 -5.11,-13.8 -4.33,-4.79 -10.06,-7.19 -16.87,-7.19 -6.35,0 -11.46,1.83 -15.79,5.63 -4.18,3.8 -6.66,9.02 -7.12,15.35zm70.43 43.52m0 -21.83l13.46 -1.97c0.77,4.93 2.78,8.74 6.35,11.41 3.41,2.54 8.2,3.8 14.4,3.8 6.19,0 10.83,-1.13 13.93,-3.38 2.94,-2.39 4.49,-5.07 4.49,-8.17 0,-2.81 -1.24,-5.07 -4.02,-6.62 -1.86,-1.13 -6.5,-2.54 -13.93,-4.22 -9.91,-2.26 -16.87,-4.22 -20.74,-5.92 -3.72,-1.69 -6.65,-3.94 -8.67,-6.9 -2.01,-2.96 -3.09,-6.34 -3.09,-9.86 0,-3.24 0.93,-6.2 2.48,-9.02 1.7,-2.82 3.87,-5.07 6.81,-6.9 2.01,-1.41 4.95,-2.68 8.52,-3.66 3.71,-0.98 7.58,-1.41 11.76,-1.41 6.35,0 11.92,0.7 16.72,2.39 4.64,1.69 8.2,3.94 10.52,6.76 2.17,2.82 3.72,6.62 4.65,11.27l-13.31 1.69c-0.62,-3.8 -2.32,-6.76 -5.26,-8.87 -2.94,-2.11 -6.96,-3.1 -12.23,-3.1 -6.34,0 -10.68,0.99 -13.46,2.81 -2.63,1.83 -4.02,4.09 -4.02,6.62 0,1.55 0.62,2.96 1.7,4.37 1.08,1.27 2.94,2.39 5.26,3.24 1.39,0.42 5.42,1.55 12.07,3.1 9.59,2.39 16.25,4.37 20.12,5.78 3.71,1.55 6.81,3.66 8.98,6.48 2.17,2.96 3.25,6.48 3.25,10.7 0,4.08 -1.39,8.02 -4.02,11.55 -2.63,3.66 -6.5,6.48 -11.45,8.45 -4.96,2.11 -10.68,3.1 -16.87,3.1 -10.53,0 -18.42,-1.97 -24,-5.91 -5.42,-3.94 -8.82,-9.86 -10.37,-17.61zm118.09 21.83m7.12 28.17l-1.55 -11.69c2.94,0.7 5.57,1.13 7.9,1.13 2.94,0 5.42,-0.43 7.12,-1.41 1.85,-0.85 3.4,-2.11 4.48,-3.8 0.93,-1.27 2.33,-4.37 4.18,-9.15 0.31,-0.7 0.62,-1.69 1.24,-3.1l-30.49 -73.24 14.71 0 16.71 42.4c2.17,5.35 4.03,10.99 5.73,16.9 1.7,-5.77 3.56,-11.26 5.73,-16.62l17.02 -42.68 13.62 0 -30.49 74.37c-3.25,8.03 -5.88,13.52 -7.58,16.62 -2.48,4.08 -5.26,7.04 -8.36,8.87 -3.1,1.97 -6.81,2.96 -11.15,2.96 -2.63,0 -5.57,-0.56 -8.82,-1.55zm72.9 -28.17m0 -36.48c0,-13.52 4.18,-23.67 12.38,-30.15 6.96,-5.35 15.32,-8.03 25.23,-8.03 11.15,0 20.12,3.24 27.09,9.86 6.96,6.48 10.53,15.64 10.53,27.19 0,9.44 -1.55,16.9 -4.65,22.26 -3.09,5.35 -7.58,9.58 -13.46,12.54 -6.04,2.96 -12.38,4.51 -19.5,4.51 -11.14,0 -20.28,-3.38 -27.24,-9.86 -6.81,-6.62 -10.37,-16.06 -10.37,-28.31zm14.08 0c0,9.29 2.17,16.33 6.66,20.98 4.49,4.65 10.21,6.9 16.87,6.9 6.81,0 12.38,-2.25 16.87,-6.9 4.49,-4.79 6.81,-11.83 6.81,-21.41 0,-9.01 -2.32,-15.91 -6.81,-20.56 -4.49,-4.65 -10.06,-7.04 -16.87,-7.04 -6.66,0 -12.38,2.39 -16.87,7.04 -4.49,4.65 -6.66,11.55 -6.66,20.99zm76.77 36.48m52.94 0l0 -10.7c-6.35,8.17 -14.7,12.39 -25.54,12.39 -4.65,0 -9.13,-0.85 -13.16,-2.54 -4.18,-1.69 -7.27,-3.66 -9.13,-6.2 -2.01,-2.54 -3.41,-5.63 -4.33,-9.16 -0.46,-2.54 -0.78,-6.34 -0.78,-11.55l0 -45.36 13.62 0 0 40.57c0,6.48 0.31,10.85 0.78,13.1 0.93,3.24 2.79,5.78 5.42,7.61 2.78,1.83 6.19,2.82 10.37,2.82 4.03,0 7.9,-0.99 11.46,-2.82 3.56,-1.97 6.19,-4.51 7.58,-7.74 1.55,-3.38 2.32,-8.17 2.32,-14.37l0 -39.16 13.46 0 0 73.11 -12.07 0zm67.64 0m12.07 0l0 -63.39 -12.07 0 0 -9.72 12.07 0 0 -7.74c0,-4.93 0.46,-8.59 1.39,-10.85 1.4,-3.24 3.72,-5.92 6.97,-7.89 3.25,-1.97 7.89,-2.96 13.93,-2.96 3.71,0 8.05,0.42 12.69,1.26l-2.17 10.7c-2.79,-0.42 -5.42,-0.7 -7.9,-0.7 -4.18,0 -7.11,0.84 -8.82,2.54 -1.7,1.55 -2.63,4.5 -2.63,9.01l0 6.62 15.64 0 0 9.72 -15.64 0 0 63.39 -13.46 0zm35.29 0m59.44 -23.52l14.08 1.55c-2.32,7.46 -6.34,13.24 -12.38,17.46 -6.04,4.08 -13.62,6.2 -22.91,6.2 -11.76,0 -21.05,-3.38 -28.02,-9.86 -6.81,-6.62 -10.22,-15.92 -10.22,-27.75 0,-12.26 3.41,-21.83 10.37,-28.59 6.97,-6.76 15.94,-10.14 27.09,-10.14 10.68,0 19.5,3.24 26.31,9.86 6.81,6.76 10.21,16.06 10.21,28.17 0,0.7 0,1.83 -0.15,3.24l-59.74 0c0.46,8.03 2.94,14.23 7.43,18.45 4.49,4.23 10.06,6.34 16.72,6.34 4.95,0 9.28,-1.13 12.85,-3.52 3.56,-2.39 6.34,-6.2 8.36,-11.41zm-44.73 -20l44.89 0c-0.62,-6.2 -2.32,-10.7 -5.11,-13.8 -4.33,-4.79 -10.06,-7.19 -16.87,-7.19 -6.35,0 -11.46,1.83 -15.79,5.63 -4.18,3.8 -6.66,9.02 -7.12,15.35zm71.35 43.52m59.43 -23.52l14.09 1.55c-2.32,7.46 -6.35,13.24 -12.38,17.46 -6.04,4.08 -13.62,6.2 -22.91,6.2 -11.76,0 -21.05,-3.38 -28.01,-9.86 -6.81,-6.62 -10.22,-15.92 -10.22,-27.75 0,-12.26 3.41,-21.83 10.37,-28.59 6.96,-6.76 15.94,-10.14 27.09,-10.14 10.68,0 19.5,3.24 26.31,9.86 6.81,6.76 10.21,16.06 10.21,28.17 0,0.7 0,1.83 -0.15,3.24l-59.74 0c0.46,8.03 2.94,14.23 7.43,18.45 4.48,4.23 10.06,6.34 16.71,6.34 4.96,0 9.29,-1.13 12.85,-3.52 3.56,-2.39 6.35,-6.2 8.35,-11.41zm-44.73 -20l44.89 0c-0.62,-6.2 -2.32,-10.7 -5.11,-13.8 -4.33,-4.79 -10.06,-7.19 -16.87,-7.19 -6.35,0 -11.46,1.83 -15.79,5.63 -4.18,3.8 -6.65,9.02 -7.12,15.35zm75.53 43.52m0 0l0 -100.85 13.62 0 0 100.85 -13.62 0zm77.7 0m12.54 0l-12.54 0 0 -100.85 13.46 0 0 35.92c5.88,-6.48 13.15,-9.72 21.98,-9.72 4.95,0 9.75,0.85 14.08,2.68 4.49,1.83 8.05,4.37 10.83,7.61 2.94,3.24 5.11,7.32 6.81,11.83 1.55,4.65 2.32,9.58 2.32,14.93 0,12.54 -3.41,22.11 -10.22,29.02 -6.81,6.76 -14.86,10.28 -24.45,10.28 -9.44,0 -16.87,-3.66 -22.29,-10.85l0 9.16zm-0.15 -37.05c0,8.74 1.39,15.07 3.87,18.88 4.33,6.48 10.22,9.57 17.49,9.57 5.88,0 10.99,-2.25 15.33,-7.04 4.33,-4.65 6.5,-11.69 6.5,-20.98 0,-9.58 -2.02,-16.62 -6.19,-21.13 -4.18,-4.51 -9.13,-6.76 -15.02,-6.76 -6.04,0 -11.14,2.39 -15.47,7.04 -4.33,4.65 -6.5,11.55 -6.5,20.42zm73.37 37.05m0 0l0 -100.85 13.62 0 0 100.85 -13.62 0zm30.18 0m59.44 -23.52l14.09 1.55c-2.32,7.46 -6.35,13.24 -12.38,17.46 -6.04,4.08 -13.62,6.2 -22.91,6.2 -11.76,0 -21.05,-3.38 -28.02,-9.86 -6.81,-6.62 -10.22,-15.92 -10.22,-27.75 0,-12.26 3.41,-21.83 10.37,-28.59 6.96,-6.76 15.94,-10.14 27.09,-10.14 10.68,0 19.5,3.24 26.31,9.86 6.81,6.76 10.21,16.06 10.21,28.17 0,0.7 0,1.83 -0.15,3.24l-59.75 0c0.46,8.03 2.94,14.23 7.43,18.45 4.49,4.23 10.06,6.34 16.72,6.34 4.95,0 9.29,-1.13 12.85,-3.52 3.56,-2.39 6.35,-6.2 8.36,-11.41zm-44.73 -20l44.89 0c-0.62,-6.2 -2.33,-10.7 -5.11,-13.8 -4.33,-4.79 -10.06,-7.19 -16.87,-7.19 -6.35,0 -11.45,1.83 -15.79,5.63 -4.18,3.8 -6.65,9.02 -7.12,15.35zm70.43 43.52m0 -21.83l13.46 -1.97c0.78,4.93 2.79,8.74 6.35,11.41 3.41,2.54 8.2,3.8 14.4,3.8 6.19,0 10.83,-1.13 13.93,-3.38 2.94,-2.39 4.49,-5.07 4.49,-8.17 0,-2.81 -1.24,-5.07 -4.03,-6.62 -1.86,-1.13 -6.5,-2.54 -13.93,-4.22 -9.9,-2.26 -16.87,-4.22 -20.74,-5.92 -3.72,-1.69 -6.66,-3.94 -8.67,-6.9 -2.01,-2.96 -3.09,-6.34 -3.09,-9.86 0,-3.24 0.93,-6.2 2.48,-9.02 1.7,-2.82 3.87,-5.07 6.81,-6.9 2.01,-1.41 4.95,-2.68 8.51,-3.66 3.71,-0.98 7.58,-1.41 11.76,-1.41 6.35,0 11.92,0.7 16.72,2.39 4.64,1.69 8.2,3.94 10.52,6.76 2.17,2.82 3.71,6.62 4.65,11.27l-13.31 1.69c-0.62,-3.8 -2.32,-6.76 -5.26,-8.87 -2.94,-2.11 -6.96,-3.1 -12.23,-3.1 -6.35,0 -10.68,0.99 -13.46,2.81 -2.63,1.83 -4.03,4.09 -4.03,6.62 0,1.55 0.62,2.96 1.7,4.37 1.08,1.27 2.94,2.39 5.26,3.24 1.39,0.42 5.41,1.55 12.07,3.1 9.6,2.39 16.25,4.37 20.12,5.78 3.71,1.55 6.81,3.66 8.98,6.48 2.17,2.96 3.25,6.48 3.25,10.7 0,4.08 -1.39,8.02 -4.03,11.55 -2.63,3.66 -6.5,6.48 -11.45,8.45 -4.96,2.11 -10.68,3.1 -16.87,3.1 -10.52,0 -18.42,-1.97 -23.99,-5.91 -5.42,-3.94 -8.83,-9.86 -10.37,-17.61zm77.39 21.83m0 -21.83l13.46 -1.97c0.78,4.93 2.79,8.74 6.35,11.41 3.41,2.54 8.2,3.8 14.4,3.8 6.19,0 10.83,-1.13 13.93,-3.38 2.94,-2.39 4.49,-5.07 4.49,-8.17 0,-2.81 -1.24,-5.07 -4.03,-6.62 -1.86,-1.13 -6.5,-2.54 -13.93,-4.22 -9.9,-2.26 -16.87,-4.22 -20.74,-5.92 -3.72,-1.69 -6.66,-3.94 -8.67,-6.9 -2.01,-2.96 -3.09,-6.34 -3.09,-9.86 0,-3.24 0.93,-6.2 2.48,-9.02 1.7,-2.82 3.87,-5.07 6.81,-6.9 2.01,-1.41 4.95,-2.68 8.51,-3.66 3.71,-0.98 7.59,-1.41 11.76,-1.41 6.35,0 11.92,0.7 16.72,2.39 4.64,1.69 8.2,3.94 10.52,6.76 2.17,2.82 3.72,6.62 4.65,11.27l-13.31 1.69c-0.62,-3.8 -2.32,-6.76 -5.26,-8.87 -2.94,-2.11 -6.96,-3.1 -12.23,-3.1 -6.35,0 -10.68,0.99 -13.46,2.81 -2.63,1.83 -4.03,4.09 -4.03,6.62 0,1.55 0.62,2.96 1.7,4.37 1.08,1.27 2.94,2.39 5.26,3.24 1.39,0.42 5.41,1.55 12.07,3.1 9.6,2.39 16.25,4.37 20.12,5.78 3.71,1.55 6.81,3.66 8.98,6.48 2.17,2.96 3.25,6.48 3.25,10.7 0,4.08 -1.39,8.02 -4.02,11.55 -2.63,3.66 -6.5,6.48 -11.45,8.45 -4.96,2.11 -10.68,3.1 -16.87,3.1 -10.52,0 -18.42,-1.97 -23.99,-5.91 -5.42,-3.94 -8.83,-9.86 -10.37,-17.61zm78.32 21.83m59.44 -23.52l14.09 1.55c-2.32,7.46 -6.35,13.24 -12.38,17.46 -6.04,4.08 -13.62,6.2 -22.91,6.2 -11.76,0 -21.05,-3.38 -28.02,-9.86 -6.81,-6.62 -10.22,-15.92 -10.22,-27.75 0,-12.26 3.41,-21.83 10.37,-28.59 6.96,-6.76 15.94,-10.14 27.09,-10.14 10.68,0 19.5,3.24 26.31,9.86 6.81,6.76 10.22,16.06 10.22,28.17 0,0.7 0,1.83 -0.16,3.24l-59.74 0c0.46,8.03 2.94,14.23 7.43,18.45 4.49,4.23 10.06,6.34 16.72,6.34 4.95,0 9.29,-1.13 12.85,-3.52 3.56,-2.39 6.34,-6.2 8.35,-11.41zm-44.73 -20l44.89 0c-0.62,-6.2 -2.32,-10.7 -5.11,-13.8 -4.33,-4.79 -10.06,-7.19 -16.87,-7.19 -6.35,0 -11.46,1.83 -15.79,5.63 -4.18,3.8 -6.65,9.02 -7.11,15.35zm70.89 43.52m56.96 0l0 -9.3c-4.95,7.33 -12.54,10.99 -22.44,10.99 -6.35,0 -12.23,-1.69 -17.65,-4.93 -5.26,-3.1 -9.44,-7.61 -12.39,-13.38 -2.94,-5.78 -4.48,-12.39 -4.48,-19.86 0,-7.33 1.39,-13.94 4.02,-19.86 2.63,-5.92 6.66,-10.42 12.07,-13.66 5.26,-3.1 11.3,-4.65 17.95,-4.65 4.8,0 9.13,0.85 12.85,2.68 3.72,1.97 6.81,4.37 9.29,7.32l0 -36.2 13.46 0 0 100.85 -12.69 0zm-42.87 -36.48c0,9.43 2.17,16.33 6.5,20.98 4.33,4.65 9.44,6.9 15.32,6.9 5.88,0 10.99,-2.11 15.17,-6.62 4.02,-4.37 6.19,-11.13 6.19,-20.28 0,-9.86 -2.17,-17.32 -6.35,-21.97 -4.18,-4.65 -9.44,-7.04 -15.63,-7.04 -6.04,0 -11.15,2.25 -15.17,6.76 -4.02,4.51 -6.04,11.55 -6.04,21.27zm80.8 36.48m0 0l0 -14.09 15.48 0 0 14.09 -15.48 0zm43.03 0m0 0l0 -14.09 15.48 0 0 14.09 -15.48 0zm43.03 0m0 0l0 -14.09 15.48 0 0 14.09 -15.48 0zm43.03 0m0 0l0 -14.09 15.48 0 0 14.09 -15.48 0zm43.03 0m0 0l0 -14.09 15.48 0 0 14.09 -15.48 0zm43.03 0m0 0l0 -14.09 15.48 0 0 14.09 -15.48 0z"/>
   </g>
  </g>
 </g>
</svg>
